ISO-10303-21;
HEADER;
/* Generated by software containing ST-Developer
 * from STEP Tools, Inc. (www.steptools.com) 
 */
/* OPTION: using custom renumber hook */

FILE_DESCRIPTION(
/* description */ ('STEP AP242 Edition 2',
'CAx-IF Rec.Pracs.---Representation and Presentation of Product Manufa
cturing Information (PMI)---4.0---2014-10-13',
'CAx-IF Rec.Pracs.---3D Tessellated Geometry---0.4---2014-09-14','2;1',
'CAx-IF Rec.Pracs.---User Defined Attributes---1.5---2016-08-15'),
/* implementation_level */ '2;1');

FILE_NAME(
/* name */ 'Case - Case Top',
/* time_stamp */ '2026-09-19T04:29:41Z',
/* author */ (''),
/* organization */ (''),
/* preprocessor_version */ 'ST-DEVELOPER v20',
/* originating_system */ 'ONSHAPE BY PTC INC, 1.221',
/* authorisation */ '  ');

FILE_SCHEMA (('AP242_MANAGED_MODEL_BASED_3D_ENGINEERING_MIM_LF { 1 0 10303 442 3 1 4 }'));
ENDSEC;

DATA;
#10=SHAPE_REPRESENTATION_RELATIONSHIP('','',#557,#11);
#11=ADVANCED_BREP_SHAPE_REPRESENTATION('',(#555),#929);
#12=SPHERICAL_SURFACE('',#595,0.005);
#13=SPHERICAL_SURFACE('',#597,0.005);
#14=SPHERICAL_SURFACE('',#607,0.005);
#15=SPHERICAL_SURFACE('',#609,0.005);
#16=CYLINDRICAL_SURFACE('',#580,0.00375);
#17=CYLINDRICAL_SURFACE('',#582,0.00375);
#18=CYLINDRICAL_SURFACE('',#584,0.015);
#19=CYLINDRICAL_SURFACE('',#587,0.006);
#20=CYLINDRICAL_SURFACE('',#588,0.005);
#21=CYLINDRICAL_SURFACE('',#590,0.005);
#22=CYLINDRICAL_SURFACE('',#593,0.005);
#23=CYLINDRICAL_SURFACE('',#599,0.005);
#24=CYLINDRICAL_SURFACE('',#601,0.005);
#25=CYLINDRICAL_SURFACE('',#603,0.005);
#26=CYLINDRICAL_SURFACE('',#605,0.005);
#27=CYLINDRICAL_SURFACE('',#611,0.005);
#28=CYLINDRICAL_SURFACE('',#612,0.00275695872464005);
#29=CIRCLE('',#560,0.00275695872464005);
#30=CIRCLE('',#562,0.00275695872464005);
#31=CIRCLE('',#564,0.006);
#32=CIRCLE('',#569,0.006);
#33=CIRCLE('',#572,0.015);
#34=CIRCLE('',#573,0.00375);
#35=CIRCLE('',#574,0.00375);
#36=CIRCLE('',#576,0.005);
#37=CIRCLE('',#577,0.005);
#38=CIRCLE('',#578,0.005);
#39=CIRCLE('',#579,0.005);
#40=CIRCLE('',#581,0.00375);
#41=CIRCLE('',#583,0.00375);
#42=CIRCLE('',#585,0.015);
#43=CIRCLE('',#589,0.005);
#44=CIRCLE('',#591,0.005);
#45=CIRCLE('',#592,0.005);
#46=CIRCLE('',#594,0.005);
#47=CIRCLE('',#596,0.005);
#48=CIRCLE('',#598,0.005);
#49=CIRCLE('',#600,0.005);
#50=CIRCLE('',#602,0.005);
#51=CIRCLE('',#604,0.005);
#52=CIRCLE('',#606,0.005);
#53=CIRCLE('',#608,0.005);
#54=CIRCLE('',#610,0.005);
#55=ORIENTED_EDGE('',*,*,#195,.F.);
#56=ORIENTED_EDGE('',*,*,#196,.T.);
#57=ORIENTED_EDGE('',*,*,#197,.T.);
#58=ORIENTED_EDGE('',*,*,#198,.F.);
#59=ORIENTED_EDGE('',*,*,#199,.T.);
#60=ORIENTED_EDGE('',*,*,#200,.F.);
#61=ORIENTED_EDGE('',*,*,#201,.T.);
#62=ORIENTED_EDGE('',*,*,#202,.T.);
#63=ORIENTED_EDGE('',*,*,#203,.F.);
#64=ORIENTED_EDGE('',*,*,#204,.F.);
#65=ORIENTED_EDGE('',*,*,#205,.T.);
#66=ORIENTED_EDGE('',*,*,#206,.T.);
#67=ORIENTED_EDGE('',*,*,#207,.F.);
#68=ORIENTED_EDGE('',*,*,#208,.T.);
#69=ORIENTED_EDGE('',*,*,#209,.F.);
#70=ORIENTED_EDGE('',*,*,#210,.T.);
#71=ORIENTED_EDGE('',*,*,#211,.T.);
#72=ORIENTED_EDGE('',*,*,#212,.F.);
#73=ORIENTED_EDGE('',*,*,#213,.T.);
#74=ORIENTED_EDGE('',*,*,#214,.F.);
#75=ORIENTED_EDGE('',*,*,#215,.T.);
#76=ORIENTED_EDGE('',*,*,#216,.T.);
#77=ORIENTED_EDGE('',*,*,#196,.F.);
#78=ORIENTED_EDGE('',*,*,#215,.F.);
#79=ORIENTED_EDGE('',*,*,#217,.T.);
#80=ORIENTED_EDGE('',*,*,#218,.T.);
#81=ORIENTED_EDGE('',*,*,#219,.F.);
#82=ORIENTED_EDGE('',*,*,#218,.F.);
#83=ORIENTED_EDGE('',*,*,#220,.T.);
#84=ORIENTED_EDGE('',*,*,#198,.T.);
#85=ORIENTED_EDGE('',*,*,#221,.F.);
#86=ORIENTED_EDGE('',*,*,#222,.T.);
#87=ORIENTED_EDGE('',*,*,#223,.T.);
#88=ORIENTED_EDGE('',*,*,#224,.T.);
#89=ORIENTED_EDGE('',*,*,#225,.T.);
#90=ORIENTED_EDGE('',*,*,#226,.F.);
#91=ORIENTED_EDGE('',*,*,#227,.F.);
#92=ORIENTED_EDGE('',*,*,#228,.T.);
#93=ORIENTED_EDGE('',*,*,#229,.T.);
#94=ORIENTED_EDGE('',*,*,#230,.T.);
#95=ORIENTED_EDGE('',*,*,#231,.T.);
#96=ORIENTED_EDGE('',*,*,#232,.T.);
#97=ORIENTED_EDGE('',*,*,#233,.T.);
#98=ORIENTED_EDGE('',*,*,#234,.T.);
#99=ORIENTED_EDGE('',*,*,#235,.T.);
#100=ORIENTED_EDGE('',*,*,#236,.T.);
#101=ORIENTED_EDGE('',*,*,#237,.T.);
#102=ORIENTED_EDGE('',*,*,#238,.T.);
#103=ORIENTED_EDGE('',*,*,#239,.F.);
#104=ORIENTED_EDGE('',*,*,#240,.F.);
#105=ORIENTED_EDGE('',*,*,#241,.F.);
#106=ORIENTED_EDGE('',*,*,#207,.T.);
#107=ORIENTED_EDGE('',*,*,#242,.T.);
#108=ORIENTED_EDGE('',*,*,#231,.F.);
#109=ORIENTED_EDGE('',*,*,#243,.T.);
#110=ORIENTED_EDGE('',*,*,#222,.F.);
#111=ORIENTED_EDGE('',*,*,#244,.T.);
#112=ORIENTED_EDGE('',*,*,#227,.T.);
#113=ORIENTED_EDGE('',*,*,#245,.T.);
#114=ORIENTED_EDGE('',*,*,#216,.F.);
#115=ORIENTED_EDGE('',*,*,#219,.T.);
#116=ORIENTED_EDGE('',*,*,#221,.T.);
#117=ORIENTED_EDGE('',*,*,#197,.F.);
#118=ORIENTED_EDGE('',*,*,#246,.F.);
#119=ORIENTED_EDGE('',*,*,#241,.T.);
#120=ORIENTED_EDGE('',*,*,#247,.F.);
#121=ORIENTED_EDGE('',*,*,#240,.T.);
#122=ORIENTED_EDGE('',*,*,#248,.F.);
#123=ORIENTED_EDGE('',*,*,#239,.T.);
#124=ORIENTED_EDGE('',*,*,#248,.T.);
#125=ORIENTED_EDGE('',*,*,#247,.T.);
#126=ORIENTED_EDGE('',*,*,#246,.T.);
#127=ORIENTED_EDGE('',*,*,#214,.T.);
#128=ORIENTED_EDGE('',*,*,#195,.T.);
#129=ORIENTED_EDGE('',*,*,#220,.F.);
#130=ORIENTED_EDGE('',*,*,#217,.F.);
#131=ORIENTED_EDGE('',*,*,#226,.T.);
#132=ORIENTED_EDGE('',*,*,#213,.F.);
#133=ORIENTED_EDGE('',*,*,#244,.F.);
#134=ORIENTED_EDGE('',*,*,#225,.F.);
#135=ORIENTED_EDGE('',*,*,#249,.F.);
#136=ORIENTED_EDGE('',*,*,#228,.F.);
#137=ORIENTED_EDGE('',*,*,#250,.F.);
#138=ORIENTED_EDGE('',*,*,#229,.F.);
#139=ORIENTED_EDGE('',*,*,#251,.F.);
#140=ORIENTED_EDGE('',*,*,#235,.F.);
#141=ORIENTED_EDGE('',*,*,#245,.F.);
#142=ORIENTED_EDGE('',*,*,#230,.F.);
#143=ORIENTED_EDGE('',*,*,#252,.F.);
#144=ORIENTED_EDGE('',*,*,#208,.F.);
#145=ORIENTED_EDGE('',*,*,#251,.T.);
#146=ORIENTED_EDGE('',*,*,#249,.T.);
#147=ORIENTED_EDGE('',*,*,#253,.F.);
#148=ORIENTED_EDGE('',*,*,#252,.T.);
#149=ORIENTED_EDGE('',*,*,#250,.T.);
#150=ORIENTED_EDGE('',*,*,#254,.F.);
#151=ORIENTED_EDGE('',*,*,#243,.F.);
#152=ORIENTED_EDGE('',*,*,#234,.F.);
#153=ORIENTED_EDGE('',*,*,#255,.F.);
#154=ORIENTED_EDGE('',*,*,#223,.F.);
#155=ORIENTED_EDGE('',*,*,#253,.T.);
#156=ORIENTED_EDGE('',*,*,#224,.F.);
#157=ORIENTED_EDGE('',*,*,#256,.F.);
#158=ORIENTED_EDGE('',*,*,#236,.F.);
#159=ORIENTED_EDGE('',*,*,#254,.T.);
#160=ORIENTED_EDGE('',*,*,#238,.F.);
#161=ORIENTED_EDGE('',*,*,#257,.F.);
#162=ORIENTED_EDGE('',*,*,#205,.F.);
#163=ORIENTED_EDGE('',*,*,#242,.F.);
#164=ORIENTED_EDGE('',*,*,#206,.F.);
#165=ORIENTED_EDGE('',*,*,#258,.F.);
#166=ORIENTED_EDGE('',*,*,#232,.F.);
#167=ORIENTED_EDGE('',*,*,#256,.T.);
#168=ORIENTED_EDGE('',*,*,#255,.T.);
#169=ORIENTED_EDGE('',*,*,#259,.F.);
#170=ORIENTED_EDGE('',*,*,#258,.T.);
#171=ORIENTED_EDGE('',*,*,#257,.T.);
#172=ORIENTED_EDGE('',*,*,#260,.F.);
#173=ORIENTED_EDGE('',*,*,#259,.T.);
#174=ORIENTED_EDGE('',*,*,#233,.F.);
#175=ORIENTED_EDGE('',*,*,#260,.T.);
#176=ORIENTED_EDGE('',*,*,#237,.F.);
#177=ORIENTED_EDGE('',*,*,#204,.T.);
#178=ORIENTED_EDGE('',*,*,#199,.F.);
#179=ORIENTED_EDGE('',*,*,#200,.T.);
#180=ORIENTED_EDGE('',*,*,#261,.T.);
#181=ORIENTED_EDGE('',*,*,#210,.F.);
#182=ORIENTED_EDGE('',*,*,#262,.F.);
#183=ORIENTED_EDGE('',*,*,#262,.T.);
#184=ORIENTED_EDGE('',*,*,#209,.T.);
#185=ORIENTED_EDGE('',*,*,#263,.F.);
#186=ORIENTED_EDGE('',*,*,#201,.F.);
#187=ORIENTED_EDGE('',*,*,#263,.T.);
#188=ORIENTED_EDGE('',*,*,#212,.T.);
#189=ORIENTED_EDGE('',*,*,#264,.F.);
#190=ORIENTED_EDGE('',*,*,#202,.F.);
#191=ORIENTED_EDGE('',*,*,#203,.T.);
#192=ORIENTED_EDGE('',*,*,#264,.T.);
#193=ORIENTED_EDGE('',*,*,#211,.F.);
#194=ORIENTED_EDGE('',*,*,#261,.F.);
#195=EDGE_CURVE('',#265,#266,#311,.T.);
#196=EDGE_CURVE('',#265,#267,#312,.T.);
#197=EDGE_CURVE('',#267,#268,#313,.T.);
#198=EDGE_CURVE('',#266,#268,#314,.T.);
#199=EDGE_CURVE('',#269,#269,#29,.T.);
#200=EDGE_CURVE('',#270,#271,#315,.T.);
#201=EDGE_CURVE('',#270,#272,#316,.T.);
#202=EDGE_CURVE('',#272,#273,#317,.T.);
#203=EDGE_CURVE('',#271,#273,#318,.T.);
#204=EDGE_CURVE('',#274,#274,#30,.T.);
#205=EDGE_CURVE('',#275,#276,#319,.T.);
#206=EDGE_CURVE('',#276,#277,#320,.T.);
#207=EDGE_CURVE('',#278,#277,#321,.T.);
#208=EDGE_CURVE('',#278,#275,#322,.F.);
#209=EDGE_CURVE('',#279,#280,#323,.T.);
#210=EDGE_CURVE('',#279,#281,#324,.T.);
#211=EDGE_CURVE('',#281,#282,#325,.T.);
#212=EDGE_CURVE('',#280,#282,#326,.T.);
#213=EDGE_CURVE('',#283,#283,#31,.T.);
#214=EDGE_CURVE('',#284,#265,#327,.T.);
#215=EDGE_CURVE('',#284,#285,#328,.T.);
#216=EDGE_CURVE('',#285,#267,#329,.T.);
#217=EDGE_CURVE('',#284,#286,#330,.T.);
#218=EDGE_CURVE('',#286,#287,#331,.T.);
#219=EDGE_CURVE('',#285,#287,#332,.T.);
#220=EDGE_CURVE('',#286,#266,#333,.T.);
#221=EDGE_CURVE('',#287,#268,#334,.T.);
#222=EDGE_CURVE('',#288,#289,#335,.T.);
#223=EDGE_CURVE('',#289,#290,#336,.F.);
#224=EDGE_CURVE('',#290,#291,#337,.F.);
#225=EDGE_CURVE('',#291,#288,#338,.T.);
#226=EDGE_CURVE('',#292,#292,#32,.T.);
#227=EDGE_CURVE('',#293,#294,#339,.T.);
#228=EDGE_CURVE('',#293,#295,#340,.F.);
#229=EDGE_CURVE('',#295,#296,#341,.T.);
#230=EDGE_CURVE('',#296,#294,#342,.T.);
#231=EDGE_CURVE('',#297,#298,#343,.T.);
#232=EDGE_CURVE('',#298,#299,#344,.F.);
#233=EDGE_CURVE('',#299,#300,#345,.F.);
#234=EDGE_CURVE('',#300,#297,#346,.T.);
#235=EDGE_CURVE('',#301,#302,#347,.F.);
#236=EDGE_CURVE('',#302,#303,#348,.T.);
#237=EDGE_CURVE('',#303,#304,#349,.T.);
#238=EDGE_CURVE('',#304,#301,#350,.F.);
#239=EDGE_CURVE('',#305,#305,#33,.T.);
#240=EDGE_CURVE('',#306,#306,#34,.T.);
#241=EDGE_CURVE('',#307,#307,#35,.T.);
#242=EDGE_CURVE('',#277,#298,#36,.T.);
#243=EDGE_CURVE('',#297,#289,#37,.T.);
#244=EDGE_CURVE('',#288,#293,#38,.T.);
#245=EDGE_CURVE('',#294,#278,#39,.T.);
#246=EDGE_CURVE('',#308,#308,#40,.T.);
#247=EDGE_CURVE('',#309,#309,#41,.T.);
#248=EDGE_CURVE('',#310,#310,#42,.T.);
#249=EDGE_CURVE('',#295,#291,#43,.T.);
#250=EDGE_CURVE('',#296,#301,#44,.T.);
#251=EDGE_CURVE('',#302,#295,#45,.T.);
#252=EDGE_CURVE('',#275,#296,#46,.T.);
#253=EDGE_CURVE('',#302,#291,#47,.F.);
#254=EDGE_CURVE('',#275,#301,#48,.F.);
#255=EDGE_CURVE('',#290,#300,#49,.T.);
#256=EDGE_CURVE('',#303,#290,#50,.T.);
#257=EDGE_CURVE('',#276,#304,#51,.T.);
#258=EDGE_CURVE('',#299,#276,#52,.T.);
#259=EDGE_CURVE('',#303,#300,#53,.F.);
#260=EDGE_CURVE('',#299,#304,#54,.F.);
#261=EDGE_CURVE('',#271,#281,#351,.T.);
#262=EDGE_CURVE('',#270,#279,#352,.T.);
#263=EDGE_CURVE('',#272,#280,#353,.T.);
#264=EDGE_CURVE('',#273,#282,#354,.T.);
#265=VERTEX_POINT('',#782);
#266=VERTEX_POINT('',#783);
#267=VERTEX_POINT('',#785);
#268=VERTEX_POINT('',#787);
#269=VERTEX_POINT('',#790);
#270=VERTEX_POINT('',#792);
#271=VERTEX_POINT('',#793);
#272=VERTEX_POINT('',#795);
#273=VERTEX_POINT('',#797);
#274=VERTEX_POINT('',#801);
#275=VERTEX_POINT('',#803);
#276=VERTEX_POINT('',#804);
#277=VERTEX_POINT('',#806);
#278=VERTEX_POINT('',#808);
#279=VERTEX_POINT('',#811);
#280=VERTEX_POINT('',#812);
#281=VERTEX_POINT('',#814);
#282=VERTEX_POINT('',#816);
#283=VERTEX_POINT('',#820);
#284=VERTEX_POINT('',#822);
#285=VERTEX_POINT('',#824);
#286=VERTEX_POINT('',#828);
#287=VERTEX_POINT('',#830);
#288=VERTEX_POINT('',#837);
#289=VERTEX_POINT('',#838);
#290=VERTEX_POINT('',#840);
#291=VERTEX_POINT('',#842);
#292=VERTEX_POINT('',#846);
#293=VERTEX_POINT('',#848);
#294=VERTEX_POINT('',#849);
#295=VERTEX_POINT('',#851);
#296=VERTEX_POINT('',#853);
#297=VERTEX_POINT('',#857);
#298=VERTEX_POINT('',#858);
#299=VERTEX_POINT('',#860);
#300=VERTEX_POINT('',#862);
#301=VERTEX_POINT('',#866);
#302=VERTEX_POINT('',#867);
#303=VERTEX_POINT('',#869);
#304=VERTEX_POINT('',#871);
#305=VERTEX_POINT('',#874);
#306=VERTEX_POINT('',#876);
#307=VERTEX_POINT('',#878);
#308=VERTEX_POINT('',#886);
#309=VERTEX_POINT('',#889);
#310=VERTEX_POINT('',#892);
#311=LINE('',#781,#355);
#312=LINE('',#784,#356);
#313=LINE('',#786,#357);
#314=LINE('',#788,#358);
#315=LINE('',#791,#359);
#316=LINE('',#794,#360);
#317=LINE('',#796,#361);
#318=LINE('',#798,#362);
#319=LINE('',#802,#363);
#320=LINE('',#805,#364);
#321=LINE('',#807,#365);
#322=LINE('',#809,#366);
#323=LINE('',#810,#367);
#324=LINE('',#813,#368);
#325=LINE('',#815,#369);
#326=LINE('',#817,#370);
#327=LINE('',#821,#371);
#328=LINE('',#823,#372);
#329=LINE('',#825,#373);
#330=LINE('',#827,#374);
#331=LINE('',#829,#375);
#332=LINE('',#831,#376);
#333=LINE('',#833,#377);
#334=LINE('',#834,#378);
#335=LINE('',#836,#379);
#336=LINE('',#839,#380);
#337=LINE('',#841,#381);
#338=LINE('',#843,#382);
#339=LINE('',#847,#383);
#340=LINE('',#850,#384);
#341=LINE('',#852,#385);
#342=LINE('',#854,#386);
#343=LINE('',#856,#387);
#344=LINE('',#859,#388);
#345=LINE('',#861,#389);
#346=LINE('',#863,#390);
#347=LINE('',#865,#391);
#348=LINE('',#868,#392);
#349=LINE('',#870,#393);
#350=LINE('',#872,#394);
#351=LINE('',#921,#395);
#352=LINE('',#922,#396);
#353=LINE('',#924,#397);
#354=LINE('',#926,#398);
#355=VECTOR('',#621,1.);
#356=VECTOR('',#622,1.);
#357=VECTOR('',#623,1.);
#358=VECTOR('',#624,1.);
#359=VECTOR('',#627,1.);
#360=VECTOR('',#628,1.);
#361=VECTOR('',#629,1.);
#362=VECTOR('',#630,1.);
#363=VECTOR('',#635,1.);
#364=VECTOR('',#636,1.);
#365=VECTOR('',#637,1.);
#366=VECTOR('',#638,1.);
#367=VECTOR('',#639,1.);
#368=VECTOR('',#640,1.);
#369=VECTOR('',#641,1.);
#370=VECTOR('',#642,1.);
#371=VECTOR('',#647,1.);
#372=VECTOR('',#648,1.);
#373=VECTOR('',#649,1.);
#374=VECTOR('',#652,1.);
#375=VECTOR('',#653,1.);
#376=VECTOR('',#654,1.);
#377=VECTOR('',#657,1.);
#378=VECTOR('',#658,1.);
#379=VECTOR('',#661,1.);
#380=VECTOR('',#662,1.);
#381=VECTOR('',#663,1.);
#382=VECTOR('',#664,1.);
#383=VECTOR('',#669,1.);
#384=VECTOR('',#670,1.);
#385=VECTOR('',#671,1.);
#386=VECTOR('',#672,1.);
#387=VECTOR('',#675,1.);
#388=VECTOR('',#676,1.);
#389=VECTOR('',#677,1.);
#390=VECTOR('',#678,1.);
#391=VECTOR('',#681,1.);
#392=VECTOR('',#682,1.);
#393=VECTOR('',#683,1.);
#394=VECTOR('',#684,1.);
#395=VECTOR('',#769,1.);
#396=VECTOR('',#770,1.);
#397=VECTOR('',#773,1.);
#398=VECTOR('',#776,1.);
#399=EDGE_LOOP('',(#55,#56,#57,#58));
#400=EDGE_LOOP('',(#59));
#401=EDGE_LOOP('',(#60,#61,#62,#63));
#402=EDGE_LOOP('',(#64));
#403=EDGE_LOOP('',(#65,#66,#67,#68));
#404=EDGE_LOOP('',(#69,#70,#71,#72));
#405=EDGE_LOOP('',(#73));
#406=EDGE_LOOP('',(#74,#75,#76,#77));
#407=EDGE_LOOP('',(#78,#79,#80,#81));
#408=EDGE_LOOP('',(#82,#83,#84,#85));
#409=EDGE_LOOP('',(#86,#87,#88,#89));
#410=EDGE_LOOP('',(#90));
#411=EDGE_LOOP('',(#91,#92,#93,#94));
#412=EDGE_LOOP('',(#95,#96,#97,#98));
#413=EDGE_LOOP('',(#99,#100,#101,#102));
#414=EDGE_LOOP('',(#103));
#415=EDGE_LOOP('',(#104));
#416=EDGE_LOOP('',(#105));
#417=EDGE_LOOP('',(#106,#107,#108,#109,#110,#111,#112,#113));
#418=EDGE_LOOP('',(#114,#115,#116,#117));
#419=EDGE_LOOP('',(#118));
#420=EDGE_LOOP('',(#119));
#421=EDGE_LOOP('',(#120));
#422=EDGE_LOOP('',(#121));
#423=EDGE_LOOP('',(#122));
#424=EDGE_LOOP('',(#123));
#425=EDGE_LOOP('',(#124));
#426=EDGE_LOOP('',(#125));
#427=EDGE_LOOP('',(#126));
#428=EDGE_LOOP('',(#127,#128,#129,#130));
#429=EDGE_LOOP('',(#131));
#430=EDGE_LOOP('',(#132));
#431=EDGE_LOOP('',(#133,#134,#135,#136));
#432=EDGE_LOOP('',(#137,#138,#139,#140));
#433=EDGE_LOOP('',(#141,#142,#143,#144));
#434=EDGE_LOOP('',(#145,#146,#147));
#435=EDGE_LOOP('',(#148,#149,#150));
#436=EDGE_LOOP('',(#151,#152,#153,#154));
#437=EDGE_LOOP('',(#155,#156,#157,#158));
#438=EDGE_LOOP('',(#159,#160,#161,#162));
#439=EDGE_LOOP('',(#163,#164,#165,#166));
#440=EDGE_LOOP('',(#167,#168,#169));
#441=EDGE_LOOP('',(#170,#171,#172));
#442=EDGE_LOOP('',(#173,#174,#175,#176));
#443=EDGE_LOOP('',(#177));
#444=EDGE_LOOP('',(#178));
#445=EDGE_LOOP('',(#179,#180,#181,#182));
#446=EDGE_LOOP('',(#183,#184,#185,#186));
#447=EDGE_LOOP('',(#187,#188,#189,#190));
#448=EDGE_LOOP('',(#191,#192,#193,#194));
#449=FACE_BOUND('',#399,.T.);
#450=FACE_BOUND('',#400,.T.);
#451=FACE_BOUND('',#401,.T.);
#452=FACE_BOUND('',#402,.T.);
#453=FACE_BOUND('',#403,.T.);
#454=FACE_BOUND('',#404,.T.);
#455=FACE_BOUND('',#405,.T.);
#456=FACE_BOUND('',#406,.T.);
#457=FACE_BOUND('',#407,.T.);
#458=FACE_BOUND('',#408,.T.);
#459=FACE_BOUND('',#409,.T.);
#460=FACE_BOUND('',#410,.T.);
#461=FACE_BOUND('',#411,.T.);
#462=FACE_BOUND('',#412,.T.);
#463=FACE_BOUND('',#413,.T.);
#464=FACE_BOUND('',#414,.T.);
#465=FACE_BOUND('',#415,.T.);
#466=FACE_BOUND('',#416,.T.);
#467=FACE_BOUND('',#417,.T.);
#468=FACE_BOUND('',#418,.T.);
#469=FACE_BOUND('',#419,.T.);
#470=FACE_BOUND('',#420,.T.);
#471=FACE_BOUND('',#421,.T.);
#472=FACE_BOUND('',#422,.T.);
#473=FACE_BOUND('',#423,.T.);
#474=FACE_BOUND('',#424,.T.);
#475=FACE_BOUND('',#425,.T.);
#476=FACE_BOUND('',#426,.T.);
#477=FACE_BOUND('',#427,.T.);
#478=FACE_BOUND('',#428,.T.);
#479=FACE_BOUND('',#429,.T.);
#480=FACE_BOUND('',#430,.T.);
#481=FACE_BOUND('',#431,.T.);
#482=FACE_BOUND('',#432,.T.);
#483=FACE_BOUND('',#433,.T.);
#484=FACE_BOUND('',#434,.T.);
#485=FACE_BOUND('',#435,.T.);
#486=FACE_BOUND('',#436,.T.);
#487=FACE_BOUND('',#437,.T.);
#488=FACE_BOUND('',#438,.T.);
#489=FACE_BOUND('',#439,.T.);
#490=FACE_BOUND('',#440,.T.);
#491=FACE_BOUND('',#441,.T.);
#492=FACE_BOUND('',#442,.T.);
#493=FACE_BOUND('',#443,.T.);
#494=FACE_BOUND('',#444,.T.);
#495=FACE_BOUND('',#445,.T.);
#496=FACE_BOUND('',#446,.T.);
#497=FACE_BOUND('',#447,.T.);
#498=FACE_BOUND('',#448,.T.);
#499=PLANE('',#559);
#500=PLANE('',#561);
#501=PLANE('',#563);
#502=PLANE('',#565);
#503=PLANE('',#566);
#504=PLANE('',#567);
#505=PLANE('',#568);
#506=PLANE('',#570);
#507=PLANE('',#571);
#508=PLANE('',#575);
#509=PLANE('',#586);
#510=PLANE('',#613);
#511=PLANE('',#614);
#512=PLANE('',#615);
#513=PLANE('',#616);
#514=ADVANCED_FACE('',(#449,#450,#451),#499,.F.);
#515=ADVANCED_FACE('',(#452,#453,#454),#500,.T.);
#516=ADVANCED_FACE('',(#455,#456),#501,.F.);
#517=ADVANCED_FACE('',(#457),#502,.T.);
#518=ADVANCED_FACE('',(#458),#503,.T.);
#519=ADVANCED_FACE('',(#459),#504,.F.);
#520=ADVANCED_FACE('',(#460,#461),#505,.T.);
#521=ADVANCED_FACE('',(#462),#506,.F.);
#522=ADVANCED_FACE('',(#463,#464,#465,#466),#507,.F.);
#523=ADVANCED_FACE('',(#467,#468),#508,.T.);
#524=ADVANCED_FACE('',(#469,#470),#16,.F.);
#525=ADVANCED_FACE('',(#471,#472),#17,.F.);
#526=ADVANCED_FACE('',(#473,#474),#18,.F.);
#527=ADVANCED_FACE('',(#475,#476,#477,#478),#509,.F.);
#528=ADVANCED_FACE('',(#479,#480),#19,.F.);
#529=ADVANCED_FACE('',(#481),#20,.T.);
#530=ADVANCED_FACE('',(#482),#21,.T.);
#531=ADVANCED_FACE('',(#483),#22,.T.);
#532=ADVANCED_FACE('',(#484),#12,.T.);
#533=ADVANCED_FACE('',(#485),#13,.T.);
#534=ADVANCED_FACE('',(#486),#23,.T.);
#535=ADVANCED_FACE('',(#487),#24,.T.);
#536=ADVANCED_FACE('',(#488),#25,.T.);
#537=ADVANCED_FACE('',(#489),#26,.T.);
#538=ADVANCED_FACE('',(#490),#14,.T.);
#539=ADVANCED_FACE('',(#491),#15,.T.);
#540=ADVANCED_FACE('',(#492),#27,.T.);
#541=ADVANCED_FACE('',(#493,#494),#28,.F.);
#542=ADVANCED_FACE('',(#495),#510,.T.);
#543=ADVANCED_FACE('',(#496),#511,.F.);
#544=ADVANCED_FACE('',(#497),#512,.F.);
#545=ADVANCED_FACE('',(#498),#513,.T.);
#546=CLOSED_SHELL('',(#514,#515,#516,#517,#518,#519,#520,#521,#522,#523,
#524,#525,#526,#527,#528,#529,#530,#531,#532,#533,#534,#535,#536,#537,#538,
#539,#540,#541,#542,#543,#544,#545));
#547=STYLED_ITEM('',(#548),#555);
#548=PRESENTATION_STYLE_ASSIGNMENT((#549));
#549=SURFACE_STYLE_USAGE(.BOTH.,#550);
#550=SURFACE_SIDE_STYLE('',(#551));
#551=SURFACE_STYLE_FILL_AREA(#552);
#552=FILL_AREA_STYLE('',(#553));
#553=FILL_AREA_STYLE_COLOUR('',#554);
#554=COLOUR_RGB('',0.509803921568627,0.337254901960785,0.133333333333333);
#555=MANIFOLD_SOLID_BREP('Case Top',#546);
#556=SHAPE_DEFINITION_REPRESENTATION(#934,#557);
#557=SHAPE_REPRESENTATION('Case Top',(#558),#929);
#558=AXIS2_PLACEMENT_3D('',#779,#617,#618);
#559=AXIS2_PLACEMENT_3D('',#780,#619,#620);
#560=AXIS2_PLACEMENT_3D('',#789,#625,#626);
#561=AXIS2_PLACEMENT_3D('',#799,#631,#632);
#562=AXIS2_PLACEMENT_3D('',#800,#633,#634);
#563=AXIS2_PLACEMENT_3D('',#818,#643,#644);
#564=AXIS2_PLACEMENT_3D('',#819,#645,#646);
#565=AXIS2_PLACEMENT_3D('',#826,#650,#651);
#566=AXIS2_PLACEMENT_3D('',#832,#655,#656);
#567=AXIS2_PLACEMENT_3D('',#835,#659,#660);
#568=AXIS2_PLACEMENT_3D('',#844,#665,#666);
#569=AXIS2_PLACEMENT_3D('',#845,#667,#668);
#570=AXIS2_PLACEMENT_3D('',#855,#673,#674);
#571=AXIS2_PLACEMENT_3D('',#864,#679,#680);
#572=AXIS2_PLACEMENT_3D('',#873,#685,#686);
#573=AXIS2_PLACEMENT_3D('',#875,#687,#688);
#574=AXIS2_PLACEMENT_3D('',#877,#689,#690);
#575=AXIS2_PLACEMENT_3D('',#879,#691,#692);
#576=AXIS2_PLACEMENT_3D('',#880,#693,#694);
#577=AXIS2_PLACEMENT_3D('',#881,#695,#696);
#578=AXIS2_PLACEMENT_3D('',#882,#697,#698);
#579=AXIS2_PLACEMENT_3D('',#883,#699,#700);
#580=AXIS2_PLACEMENT_3D('',#884,#701,#702);
#581=AXIS2_PLACEMENT_3D('',#885,#703,#704);
#582=AXIS2_PLACEMENT_3D('',#887,#705,#706);
#583=AXIS2_PLACEMENT_3D('',#888,#707,#708);
#584=AXIS2_PLACEMENT_3D('',#890,#709,#710);
#585=AXIS2_PLACEMENT_3D('',#891,#711,#712);
#586=AXIS2_PLACEMENT_3D('',#893,#713,#714);
#587=AXIS2_PLACEMENT_3D('',#894,#715,#716);
#588=AXIS2_PLACEMENT_3D('',#895,#717,#718);
#589=AXIS2_PLACEMENT_3D('',#896,#719,#720);
#590=AXIS2_PLACEMENT_3D('',#897,#721,#722);
#591=AXIS2_PLACEMENT_3D('',#898,#723,#724);
#592=AXIS2_PLACEMENT_3D('',#899,#725,#726);
#593=AXIS2_PLACEMENT_3D('',#900,#727,#728);
#594=AXIS2_PLACEMENT_3D('',#901,#729,#730);
#595=AXIS2_PLACEMENT_3D('',#902,#731,#732);
#596=AXIS2_PLACEMENT_3D('',#903,#733,#734);
#597=AXIS2_PLACEMENT_3D('',#904,#735,#736);
#598=AXIS2_PLACEMENT_3D('',#905,#737,#738);
#599=AXIS2_PLACEMENT_3D('',#906,#739,#740);
#600=AXIS2_PLACEMENT_3D('',#907,#741,#742);
#601=AXIS2_PLACEMENT_3D('',#908,#743,#744);
#602=AXIS2_PLACEMENT_3D('',#909,#745,#746);
#603=AXIS2_PLACEMENT_3D('',#910,#747,#748);
#604=AXIS2_PLACEMENT_3D('',#911,#749,#750);
#605=AXIS2_PLACEMENT_3D('',#912,#751,#752);
#606=AXIS2_PLACEMENT_3D('',#913,#753,#754);
#607=AXIS2_PLACEMENT_3D('',#914,#755,#756);
#608=AXIS2_PLACEMENT_3D('',#915,#757,#758);
#609=AXIS2_PLACEMENT_3D('',#916,#759,#760);
#610=AXIS2_PLACEMENT_3D('',#917,#761,#762);
#611=AXIS2_PLACEMENT_3D('',#918,#763,#764);
#612=AXIS2_PLACEMENT_3D('',#919,#765,#766);
#613=AXIS2_PLACEMENT_3D('',#920,#767,#768);
#614=AXIS2_PLACEMENT_3D('',#923,#771,#772);
#615=AXIS2_PLACEMENT_3D('',#925,#774,#775);
#616=AXIS2_PLACEMENT_3D('',#927,#777,#778);
#617=DIRECTION('',(0.,0.,1.));
#618=DIRECTION('',(1.,0.,0.));
#619=DIRECTION('',(1.,-1.51504233709758E-16,0.));
#620=DIRECTION('',(1.51504233709758E-16,1.,0.));
#621=DIRECTION('',(-1.51504233709758E-16,-1.,0.));
#622=DIRECTION('',(0.,0.,-1.));
#623=DIRECTION('',(-1.51504233709758E-16,-1.,0.));
#624=DIRECTION('',(0.,0.,-1.));
#625=DIRECTION('',(1.,-1.51504233709758E-16,0.));
#626=DIRECTION('',(1.51504233709758E-16,1.,0.));
#627=DIRECTION('',(1.51504233709758E-16,1.,0.));
#628=DIRECTION('',(0.,0.,-1.));
#629=DIRECTION('',(1.51504233709758E-16,1.,0.));
#630=DIRECTION('',(0.,0.,-1.));
#631=DIRECTION('',(1.,-1.89933227296731E-16,0.));
#632=DIRECTION('',(1.89933227296731E-16,1.,0.));
#633=DIRECTION('',(1.,-1.89933227296731E-16,0.));
#634=DIRECTION('',(1.89933227296731E-16,1.,0.));
#635=DIRECTION('',(-1.89933227296731E-16,-1.,0.));
#636=DIRECTION('',(0.,0.,-1.));
#637=DIRECTION('',(-1.8993322729673E-16,-1.,0.));
#638=DIRECTION('',(0.,0.,-1.));
#639=DIRECTION('',(0.,0.,-1.));
#640=DIRECTION('',(1.89933227296731E-16,1.,0.));
#641=DIRECTION('',(0.,0.,-1.));
#642=DIRECTION('',(1.89933227296731E-16,1.,0.));
#643=DIRECTION('',(0.,1.,0.));
#644=DIRECTION('',(0.,0.,1.));
#645=DIRECTION('',(0.,1.,0.));
#646=DIRECTION('',(0.,0.,1.));
#647=DIRECTION('',(1.,0.,0.));
#648=DIRECTION('',(0.,0.,-1.));
#649=DIRECTION('',(1.,0.,0.));
#650=DIRECTION('',(1.,-1.51504233709758E-16,0.));
#651=DIRECTION('',(1.51504233709758E-16,1.,0.));
#652=DIRECTION('',(-1.51504233709758E-16,-1.,0.));
#653=DIRECTION('',(0.,0.,-1.));
#654=DIRECTION('',(-1.51504233709758E-16,-1.,0.));
#655=DIRECTION('',(0.,1.,0.));
#656=DIRECTION('',(0.,0.,1.));
#657=DIRECTION('',(1.,0.,0.));
#658=DIRECTION('',(1.,0.,0.));
#659=DIRECTION('',(1.,-1.89933227296731E-16,0.));
#660=DIRECTION('',(1.89933227296731E-16,1.,0.));
#661=DIRECTION('',(-1.8993322729673E-16,-1.,0.));
#662=DIRECTION('',(0.,0.,-1.));
#663=DIRECTION('',(-1.89933227296731E-16,-1.,0.));
#664=DIRECTION('',(0.,0.,-1.));
#665=DIRECTION('',(0.,1.,0.));
#666=DIRECTION('',(0.,0.,1.));
#667=DIRECTION('',(0.,1.,0.));
#668=DIRECTION('',(0.,0.,1.));
#669=DIRECTION('',(1.,0.,0.));
#670=DIRECTION('',(0.,0.,-1.));
#671=DIRECTION('',(1.,0.,0.));
#672=DIRECTION('',(0.,0.,-1.));
#673=DIRECTION('',(0.,1.,0.));
#674=DIRECTION('',(0.,0.,1.));
#675=DIRECTION('',(1.,0.,0.));
#676=DIRECTION('',(0.,0.,-1.));
#677=DIRECTION('',(1.,0.,0.));
#678=DIRECTION('',(0.,0.,-1.));
#679=DIRECTION('',(0.,0.,-1.));
#680=DIRECTION('',(1.,0.,0.));
#681=DIRECTION('',(1.,0.,0.));
#682=DIRECTION('',(-1.89933227296731E-16,-1.,0.));
#683=DIRECTION('',(1.,0.,0.));
#684=DIRECTION('',(-1.89933227296731E-16,-1.,0.));
#685=DIRECTION('',(0.,0.,1.));
#686=DIRECTION('',(1.,0.,0.));
#687=DIRECTION('',(0.,0.,1.));
#688=DIRECTION('',(1.,0.,0.));
#689=DIRECTION('',(0.,0.,1.));
#690=DIRECTION('',(1.,0.,0.));
#691=DIRECTION('',(0.,0.,-1.));
#692=DIRECTION('',(1.,0.,0.));
#693=DIRECTION('',(0.,0.,-1.));
#694=DIRECTION('',(-1.,0.,0.));
#695=DIRECTION('',(0.,0.,-1.));
#696=DIRECTION('',(-1.,0.,0.));
#697=DIRECTION('',(0.,0.,-1.));
#698=DIRECTION('',(-1.,0.,0.));
#699=DIRECTION('',(0.,0.,-1.));
#700=DIRECTION('',(-1.,0.,0.));
#701=DIRECTION('',(0.,0.,1.));
#702=DIRECTION('',(1.,0.,0.));
#703=DIRECTION('',(0.,0.,1.));
#704=DIRECTION('',(1.,0.,0.));
#705=DIRECTION('',(0.,0.,1.));
#706=DIRECTION('',(1.,0.,0.));
#707=DIRECTION('',(0.,0.,1.));
#708=DIRECTION('',(1.,0.,0.));
#709=DIRECTION('',(0.,0.,1.));
#710=DIRECTION('',(1.,0.,0.));
#711=DIRECTION('',(0.,0.,1.));
#712=DIRECTION('',(1.,0.,0.));
#713=DIRECTION('',(0.,0.,1.));
#714=DIRECTION('',(1.,0.,0.));
#715=DIRECTION('',(0.,1.,0.));
#716=DIRECTION('',(0.,0.,1.));
#717=DIRECTION('',(0.,0.,1.));
#718=DIRECTION('',(1.,0.,0.));
#719=DIRECTION('',(0.,0.,1.));
#720=DIRECTION('',(1.,0.,0.));
#721=DIRECTION('',(-1.,0.,0.));
#722=DIRECTION('',(0.,0.,1.));
#723=DIRECTION('',(1.,0.,-6.93889390390723E-16));
#724=DIRECTION('',(-6.93889390390723E-16,0.,-1.));
#725=DIRECTION('',(-1.,0.,0.));
#726=DIRECTION('',(0.,0.,1.));
#727=DIRECTION('',(0.,0.,-1.));
#728=DIRECTION('',(-1.,0.,0.));
#729=DIRECTION('',(0.,0.,1.));
#730=DIRECTION('',(1.,0.,0.));
#731=DIRECTION('',(0.,1.,0.));
#732=DIRECTION('',(0.,0.,1.));
#733=DIRECTION('',(0.,1.,0.));
#734=DIRECTION('',(0.,0.,1.));
#735=DIRECTION('',(0.,1.,0.));
#736=DIRECTION('',(0.,0.,1.));
#737=DIRECTION('',(0.,1.,0.));
#738=DIRECTION('',(0.,0.,1.));
#739=DIRECTION('',(0.,0.,-1.));
#740=DIRECTION('',(-1.,0.,0.));
#741=DIRECTION('',(0.,0.,1.));
#742=DIRECTION('',(1.,0.,0.));
#743=DIRECTION('',(-1.89933227296731E-16,-1.,0.));
#744=DIRECTION('',(1.,-1.89933227296731E-16,0.));
#745=DIRECTION('',(0.,-1.,0.));
#746=DIRECTION('',(0.,0.,-1.));
#747=DIRECTION('',(1.89933227296731E-16,1.,0.));
#748=DIRECTION('',(-1.,1.89933227296731E-16,0.));
#749=DIRECTION('',(0.,-1.,0.));
#750=DIRECTION('',(0.,0.,-1.));
#751=DIRECTION('',(0.,0.,1.));
#752=DIRECTION('',(1.,0.,0.));
#753=DIRECTION('',(0.,0.,1.));
#754=DIRECTION('',(1.,0.,0.));
#755=DIRECTION('',(-1.,0.,0.));
#756=DIRECTION('',(0.,0.,1.));
#757=DIRECTION('',(-1.,0.,-6.93889390390723E-16));
#758=DIRECTION('',(-6.93889390390723E-16,0.,1.));
#759=DIRECTION('',(1.,0.,0.));
#760=DIRECTION('',(0.,0.,-1.));
#761=DIRECTION('',(1.,0.,0.));
#762=DIRECTION('',(0.,0.,-1.));
#763=DIRECTION('',(1.,0.,0.));
#764=DIRECTION('',(0.,0.,-1.));
#765=DIRECTION('',(1.,-1.89933227296731E-16,0.));
#766=DIRECTION('',(1.89933227296731E-16,1.,0.));
#767=DIRECTION('',(0.,0.,-1.));
#768=DIRECTION('',(-1.,0.,0.));
#769=DIRECTION('',(1.,-1.89933227296731E-16,0.));
#770=DIRECTION('',(1.,-1.89933227296731E-16,0.));
#771=DIRECTION('',(-1.89933227296731E-16,-1.,0.));
#772=DIRECTION('',(1.,-1.89933227296731E-16,0.));
#773=DIRECTION('',(1.,-1.89933227296731E-16,0.));
#774=DIRECTION('',(0.,0.,-1.));
#775=DIRECTION('',(-1.,0.,0.));
#776=DIRECTION('',(1.,-1.89933227296731E-16,0.));
#777=DIRECTION('',(-1.89933227296731E-16,-1.,0.));
#778=DIRECTION('',(1.,-1.89933227296731E-16,0.));
#779=CARTESIAN_POINT('',(0.,0.,0.));
#780=CARTESIAN_POINT('',(0.0243663476419205,-0.000400739765895597,0.0202849999460644));
#781=CARTESIAN_POINT('',(0.0243663476419205,-0.000400739765895597,0.0152849999460644));
#782=CARTESIAN_POINT('',(0.0243663476419205,0.0224992602341054,0.0152849999460644));
#783=CARTESIAN_POINT('',(0.0243663476419205,-0.0233007397658966,0.0152849999460644));
#784=CARTESIAN_POINT('',(0.0243663476419205,0.0224992602341054,0.0202849999460644));
#785=CARTESIAN_POINT('',(0.0243663476419205,0.0224992602341054,-0.00721500005393561));
#786=CARTESIAN_POINT('',(0.0243663476419205,-0.000400739765895597,-0.00721500005393561));
#787=CARTESIAN_POINT('',(0.0243663476419205,-0.0233007397658966,-0.00721500005393561));
#788=CARTESIAN_POINT('',(0.0243663476419205,-0.0233007397658966,0.0202849999460644));
#789=CARTESIAN_POINT('',(0.0243663476419205,0.00962778876692057,-0.00017894));
#790=CARTESIAN_POINT('',(0.0243663476419205,0.0123847474915606,-0.00017894));
#791=CARTESIAN_POINT('',(0.0243663476419205,-0.000400739765895597,0.00195106));
#792=CARTESIAN_POINT('',(0.0243663476419205,-0.0100954370573163,0.00195106));
#793=CARTESIAN_POINT('',(0.0243663476419205,-4.66206934168767E-18,0.00195106));
#794=CARTESIAN_POINT('',(0.0243663476419205,-0.0100954370573163,0.0202849999460644));
#795=CARTESIAN_POINT('',(0.0243663476419205,-0.0100954370573163,-0.00154894));
#796=CARTESIAN_POINT('',(0.0243663476419205,-0.000400739765895597,-0.00154894));
#797=CARTESIAN_POINT('',(0.0243663476419205,-4.62797904506404E-18,-0.00154894));
#798=CARTESIAN_POINT('',(0.0243663476419205,-4.66206934168767E-18,0.0202849999460644));
#799=CARTESIAN_POINT('',(0.0288663476419205,-0.000400739765898095,0.0202849999460644));
#800=CARTESIAN_POINT('',(0.0288663476419205,0.00962778876692056,-0.00017894));
#801=CARTESIAN_POINT('',(0.0288663476419205,0.0123847474915606,-0.00017894));
#802=CARTESIAN_POINT('',(0.0288663476419205,-0.0278007397658981,0.0152849999460644));
#803=CARTESIAN_POINT('',(0.0288663476419205,0.0219992602341019,0.0152849999460644));
#804=CARTESIAN_POINT('',(0.0288663476419205,-0.0228007397658981,0.0152849999460644));
#805=CARTESIAN_POINT('',(0.0288663476419205,-0.0228007397658981,-0.00721500005393561));
#806=CARTESIAN_POINT('',(0.0288663476419205,-0.0228007397658981,-0.00721500005393561));
#807=CARTESIAN_POINT('',(0.0288663476419205,-0.000400739765898095,-0.00721500005393561));
#808=CARTESIAN_POINT('',(0.0288663476419205,0.0219992602341019,-0.00721500005393561));
#809=CARTESIAN_POINT('',(0.0288663476419205,0.0219992602341019,0.0202849999460644));
#810=CARTESIAN_POINT('',(0.0288663476419205,-0.0100954370573163,0.00020106));
#811=CARTESIAN_POINT('',(0.0288663476419205,-0.0100954370573163,0.00195106));
#812=CARTESIAN_POINT('',(0.0288663476419205,-0.0100954370573163,-0.00154894));
#813=CARTESIAN_POINT('',(0.0288663476419205,-0.00504771852865815,0.00195106));
#814=CARTESIAN_POINT('',(0.0288663476419205,-5.48267856789932E-18,0.00195106));
#815=CARTESIAN_POINT('',(0.0288663476419205,-5.48267856789932E-18,0.00020106));
#816=CARTESIAN_POINT('',(0.0288663476419205,-5.52943107967607E-18,-0.00154894));
#817=CARTESIAN_POINT('',(0.0288663476419205,-0.00504771852865815,-0.00154894));
#818=CARTESIAN_POINT('',(-0.000933652358081346,0.0224992602341054,0.0202849999460644));
#819=CARTESIAN_POINT('',(-0.0176732167601585,0.0224992602341054,0.00628499994606439));
#820=CARTESIAN_POINT('',(-0.0176732167601585,0.0224992602341054,0.0122849999460644));
#821=CARTESIAN_POINT('',(-0.000933652358081346,0.0224992602341054,0.0152849999460644));
#822=CARTESIAN_POINT('',(-0.0262336523580831,0.0224992602341054,0.0152849999460644));
#823=CARTESIAN_POINT('',(-0.0262336523580831,0.0224992602341054,0.0202849999460644));
#824=CARTESIAN_POINT('',(-0.0262336523580831,0.0224992602341054,-0.00721500005393561));
#825=CARTESIAN_POINT('',(-0.000933652358081346,0.0224992602341054,-0.00721500005393561));
#826=CARTESIAN_POINT('',(-0.0262336523580831,-0.000400739765895597,0.0202849999460644));
#827=CARTESIAN_POINT('',(-0.0262336523580831,-0.000400739765895597,0.0152849999460644));
#828=CARTESIAN_POINT('',(-0.0262336523580831,-0.0233007397658966,0.0152849999460644));
#829=CARTESIAN_POINT('',(-0.0262336523580831,-0.0233007397658966,0.0202849999460644));
#830=CARTESIAN_POINT('',(-0.0262336523580831,-0.0233007397658966,-0.00721500005393561));
#831=CARTESIAN_POINT('',(-0.0262336523580831,-0.000400739765895597,-0.00721500005393561));
#832=CARTESIAN_POINT('',(-0.000933652358081353,-0.0233007397658966,0.0202849999460644));
#833=CARTESIAN_POINT('',(-0.000933652358081353,-0.0233007397658966,0.0152849999460644));
#834=CARTESIAN_POINT('',(-0.000933652358081353,-0.0233007397658966,-0.00721500005393561));
#835=CARTESIAN_POINT('',(-0.0307336523580796,-0.000400739765898095,0.0202849999460644));
#836=CARTESIAN_POINT('',(-0.0307336523580796,-0.000400739765898095,-0.00721500005393561));
#837=CARTESIAN_POINT('',(-0.0307336523580795,0.0219992602341019,-0.00721500005393561));
#838=CARTESIAN_POINT('',(-0.0307336523580796,-0.0228007397658981,-0.00721500005393561));
#839=CARTESIAN_POINT('',(-0.0307336523580796,-0.0228007397658981,0.0202849999460644));
#840=CARTESIAN_POINT('',(-0.0307336523580796,-0.0228007397658981,0.0152849999460644));
#841=CARTESIAN_POINT('',(-0.0307336523580796,-0.000400739765898095,0.0152849999460644));
#842=CARTESIAN_POINT('',(-0.0307336523580795,0.0219992602341019,0.0152849999460644));
#843=CARTESIAN_POINT('',(-0.0307336523580795,0.0219992602341019,-0.00721500005393561));
#844=CARTESIAN_POINT('',(-0.000933652358079537,0.0269992602341019,0.0202849999460644));
#845=CARTESIAN_POINT('',(-0.0176732167601585,0.0269992602341019,0.00628499994606439));
#846=CARTESIAN_POINT('',(-0.0176732167601585,0.0269992602341019,0.0122849999460644));
#847=CARTESIAN_POINT('',(-0.000933652358079537,0.0269992602341019,-0.00721500005393561));
#848=CARTESIAN_POINT('',(-0.0257336523580795,0.0269992602341019,-0.00721500005393561));
#849=CARTESIAN_POINT('',(0.0238663476419205,0.0269992602341019,-0.00721500005393561));
#850=CARTESIAN_POINT('',(-0.0257336523580795,0.0269992602341019,0.0202849999460644));
#851=CARTESIAN_POINT('',(-0.0257336523580795,0.0269992602341019,0.0152849999460644));
#852=CARTESIAN_POINT('',(0.0288663476419205,0.0269992602341019,0.0152849999460644));
#853=CARTESIAN_POINT('',(0.0238663476419205,0.0269992602341019,0.0152849999460644));
#854=CARTESIAN_POINT('',(0.0238663476419205,0.0269992602341019,0.0202849999460644));
#855=CARTESIAN_POINT('',(-0.000933652358079549,-0.0278007397658981,0.0202849999460644));
#856=CARTESIAN_POINT('',(-0.000933652358079549,-0.0278007397658981,-0.00721500005393561));
#857=CARTESIAN_POINT('',(-0.0257336523580796,-0.0278007397658981,-0.00721500005393561));
#858=CARTESIAN_POINT('',(0.0238663476419205,-0.0278007397658981,-0.00721500005393561));
#859=CARTESIAN_POINT('',(0.0238663476419205,-0.0278007397658981,0.0202849999460644));
#860=CARTESIAN_POINT('',(0.0238663476419205,-0.0278007397658981,0.0152849999460644));
#861=CARTESIAN_POINT('',(-0.000933652358079549,-0.0278007397658981,0.0152849999460644));
#862=CARTESIAN_POINT('',(-0.0257336523580796,-0.0278007397658981,0.0152849999460644));
#863=CARTESIAN_POINT('',(-0.0257336523580796,-0.0278007397658981,0.0202849999460644));
#864=CARTESIAN_POINT('',(-0.000933652358079542,-0.000400739765898095,0.0202849999460644));
#865=CARTESIAN_POINT('',(-0.0307336523580796,0.0219992602341019,0.0202849999460644));
#866=CARTESIAN_POINT('',(0.0238663476419205,0.0219992602341019,0.0202849999460644));
#867=CARTESIAN_POINT('',(-0.0257336523580795,0.0219992602341019,0.0202849999460644));
#868=CARTESIAN_POINT('',(-0.0257336523580796,-0.000400739765898091,0.0202849999460644));
#869=CARTESIAN_POINT('',(-0.0257336523580796,-0.0228007397658981,0.0202849999460644));
#870=CARTESIAN_POINT('',(-0.000933652358079542,-0.0228007397658981,0.0202849999460644));
#871=CARTESIAN_POINT('',(0.0238663476419205,-0.0228007397658981,0.0202849999460644));
#872=CARTESIAN_POINT('',(0.0238663476419205,0.0269992602341019,0.0202849999460644));
#873=CARTESIAN_POINT('',(0.007,9.18485099360515E-19,0.0202849999460644));
#874=CARTESIAN_POINT('',(0.022,9.18485099360515E-19,0.0202849999460644));
#875=CARTESIAN_POINT('',(-0.0154836523580832,-0.0120507397658966,0.0202849999460644));
#876=CARTESIAN_POINT('',(-0.0117336523580832,-0.0120507397658966,0.0202849999460644));
#877=CARTESIAN_POINT('',(-0.0154836523580832,0.0112492602341054,0.0202849999460644));
#878=CARTESIAN_POINT('',(-0.0117336523580832,0.0112492602341054,0.0202849999460644));
#879=CARTESIAN_POINT('',(-0.000933652358079542,-0.000400739765898095,-0.00721500005393561));
#880=CARTESIAN_POINT('',(0.0238663476419205,-0.0228007397658981,-0.00721500005393561));
#881=CARTESIAN_POINT('',(-0.0257336523580796,-0.0228007397658981,-0.00721500005393561));
#882=CARTESIAN_POINT('',(-0.0257336523580795,0.0219992602341019,-0.00721500005393561));
#883=CARTESIAN_POINT('',(0.0238663476419205,0.0219992602341019,-0.00721500005393561));
#884=CARTESIAN_POINT('',(-0.0154836523580832,0.0112492602341054,0.0152849999460644));
#885=CARTESIAN_POINT('',(-0.0154836523580832,0.0112492602341054,0.0152849999460644));
#886=CARTESIAN_POINT('',(-0.0117336523580832,0.0112492602341054,0.0152849999460644));
#887=CARTESIAN_POINT('',(-0.0154836523580832,-0.0120507397658966,0.0152849999460644));
#888=CARTESIAN_POINT('',(-0.0154836523580832,-0.0120507397658966,0.0152849999460644));
#889=CARTESIAN_POINT('',(-0.0117336523580832,-0.0120507397658966,0.0152849999460644));
#890=CARTESIAN_POINT('',(0.007,9.18485099360515E-19,0.0152849999460644));
#891=CARTESIAN_POINT('',(0.007,9.18485099360515E-19,0.0152849999460644));
#892=CARTESIAN_POINT('',(0.022,9.18485099360515E-19,0.0152849999460644));
#893=CARTESIAN_POINT('',(-0.000933652358079542,-0.000400739765898095,0.0152849999460644));
#894=CARTESIAN_POINT('',(-0.0176732167601585,0.0019992602341019,0.00628499994606439));
#895=CARTESIAN_POINT('',(-0.0257336523580795,0.0219992602341019,0.0202849999460644));
#896=CARTESIAN_POINT('',(-0.0257336523580795,0.0219992602341019,0.0152849999460644));
#897=CARTESIAN_POINT('',(-0.000933652358079537,0.0219992602341019,0.0152849999460644));
#898=CARTESIAN_POINT('',(0.0238663476419205,0.0219992602341019,0.0152849999460644));
#899=CARTESIAN_POINT('',(-0.0257336523580795,0.0219992602341019,0.0152849999460644));
#900=CARTESIAN_POINT('',(0.0238663476419205,0.0219992602341019,0.0202849999460644));
#901=CARTESIAN_POINT('',(0.0238663476419205,0.0219992602341019,0.0152849999460644));
#902=CARTESIAN_POINT('',(-0.0257336523580795,0.0219992602341019,0.0152849999460644));
#903=CARTESIAN_POINT('',(-0.0257336523580795,0.0219992602341019,0.0152849999460644));
#904=CARTESIAN_POINT('',(0.0238663476419205,0.0219992602341019,0.0152849999460644));
#905=CARTESIAN_POINT('',(0.0238663476419205,0.0219992602341019,0.0152849999460644));
#906=CARTESIAN_POINT('',(-0.0257336523580796,-0.0228007397658981,0.0202849999460644));
#907=CARTESIAN_POINT('',(-0.0257336523580796,-0.0228007397658981,0.0152849999460644));
#908=CARTESIAN_POINT('',(-0.0257336523580796,-0.000400739765898091,0.0152849999460644));
#909=CARTESIAN_POINT('',(-0.0257336523580796,-0.0228007397658981,0.0152849999460644));
#910=CARTESIAN_POINT('',(0.0238663476419205,-0.000400739765898094,0.0152849999460644));
#911=CARTESIAN_POINT('',(0.0238663476419205,-0.0228007397658981,0.0152849999460644));
#912=CARTESIAN_POINT('',(0.0238663476419205,-0.0228007397658981,0.0202849999460644));
#913=CARTESIAN_POINT('',(0.0238663476419205,-0.0228007397658981,0.0152849999460644));
#914=CARTESIAN_POINT('',(-0.0257336523580796,-0.0228007397658981,0.0152849999460644));
#915=CARTESIAN_POINT('',(-0.0257336523580796,-0.0228007397658981,0.0152849999460644));
#916=CARTESIAN_POINT('',(0.0238663476419205,-0.0228007397658981,0.0152849999460644));
#917=CARTESIAN_POINT('',(0.0238663476419205,-0.0228007397658981,0.0152849999460644));
#918=CARTESIAN_POINT('',(-0.000933652358079542,-0.0228007397658981,0.0152849999460644));
#919=CARTESIAN_POINT('',(0.00386634764192045,0.00962778876692057,-0.00017894));
#920=CARTESIAN_POINT('',(0.00386634764192044,-0.00504771852865815,0.00195106));
#921=CARTESIAN_POINT('',(0.00386634764192044,-7.34347885481054E-19,0.00195106));
#922=CARTESIAN_POINT('',(0.00386634764192044,-0.0100954370573163,0.00195106));
#923=CARTESIAN_POINT('',(0.00386634764192044,-0.0100954370573163,0.00020106));
#924=CARTESIAN_POINT('',(0.00386634764192044,-0.0100954370573163,-0.00154894));
#925=CARTESIAN_POINT('',(0.00386634764192044,-0.00504771852865815,-0.00154894));
#926=CARTESIAN_POINT('',(0.00386634764192044,-7.34347885481054E-19,-0.00154894));
#927=CARTESIAN_POINT('',(0.00386634764192044,-7.34347885481054E-19,0.00020106));
#928=MECHANICAL_DESIGN_GEOMETRIC_PRESENTATION_REPRESENTATION('',(#547),
#929);
#929=(
GEOMETRIC_REPRESENTATION_CONTEXT(3)
GLOBAL_UNCERTAINTY_ASSIGNED_CONTEXT((#930))
GLOBAL_UNIT_ASSIGNED_CONTEXT((#933,#932,#931))
REPRESENTATION_CONTEXT('Case Top','TOP_LEVEL_ASSEMBLY_PART')
);
#930=UNCERTAINTY_MEASURE_WITH_UNIT(LENGTH_MEASURE(1.E-8),#933,
'DISTANCE_ACCURACY_VALUE','Maximum Tolerance applied to model');
#931=(
NAMED_UNIT(*)
SI_UNIT($,.STERADIAN.)
SOLID_ANGLE_UNIT()
);
#932=(
NAMED_UNIT(*)
PLANE_ANGLE_UNIT()
SI_UNIT($,.RADIAN.)
);
#933=(
LENGTH_UNIT()
NAMED_UNIT(*)
SI_UNIT($,.METRE.)
);
#934=PRODUCT_DEFINITION_SHAPE('','',#935);
#935=PRODUCT_DEFINITION('','',#937,#936);
#936=PRODUCT_DEFINITION_CONTEXT('',#943,'design');
#937=PRODUCT_DEFINITION_FORMATION_WITH_SPECIFIED_SOURCE('','',#939,
 .NOT_KNOWN.);
#938=PRODUCT_RELATED_PRODUCT_CATEGORY('','',(#939));
#939=PRODUCT('Case Top','Case Top','Case Top',(#941));
#940=PRODUCT_CATEGORY('','');
#941=PRODUCT_CONTEXT('',#943,'mechanical');
#942=APPLICATION_PROTOCOL_DEFINITION('international standard',
'ap242_managed_model_based_3d_engineering',2020,#943);
#943=APPLICATION_CONTEXT('managed model based 3d engineering');
ENDSEC;
END-ISO-10303-21;
