%TF.GenerationSoftware,KiCad,Pcbnew,10.0.0*%
%TF.CreationDate,2026-09-20T17:31:03+10:00*%
%TF.ProjectId,static-fmreceiver,73746174-6963-42d6-966d-726563656976,rev?*%
%TF.SameCoordinates,Original*%
%TF.FileFunction,Soldermask,Bot*%
%TF.FilePolarity,Negative*%
%FSLAX46Y46*%
G04 Gerber Fmt 4.6, Leading zero omitted, Abs format (unit mm)*
G04 Created by KiCad (PCBNEW 10.0.0) date 2026-09-20 17:31:03*
%MOMM*%
%LPD*%
G01*
G04 APERTURE LIST*
G04 Aperture macros list*
%AMRoundRect*
0 Rectangle with rounded corners*
0 $1 Rounding radius*
0 $2 $3 $4 $5 $6 $7 $8 $9 X,Y pos of 4 corners*
0 Add a 4 corners polygon primitive as box body*
4,1,4,$2,$3,$4,$5,$6,$7,$8,$9,$2,$3,0*
0 Add four circle primitives for the rounded corners*
1,1,$1+$1,$2,$3*
1,1,$1+$1,$4,$5*
1,1,$1+$1,$6,$7*
1,1,$1+$1,$8,$9*
0 Add four rect primitives between the rounded corners*
20,1,$1+$1,$2,$3,$4,$5,0*
20,1,$1+$1,$4,$5,$6,$7,0*
20,1,$1+$1,$6,$7,$8,$9,0*
20,1,$1+$1,$8,$9,$2,$3,0*%
G04 Aperture macros list end*
%ADD10R,1.700000X1.700000*%
%ADD11C,1.700000*%
%ADD12RoundRect,0.250000X0.550000X-0.550000X0.550000X0.550000X-0.550000X0.550000X-0.550000X-0.550000X0*%
%ADD13C,1.600000*%
%ADD14RoundRect,0.250000X-0.550000X-0.550000X0.550000X-0.550000X0.550000X0.550000X-0.550000X0.550000X0*%
%ADD15C,1.200000*%
%ADD16O,1.800000X1.200000*%
%ADD17RoundRect,0.250000X0.550000X0.550000X-0.550000X0.550000X-0.550000X-0.550000X0.550000X-0.550000X0*%
%ADD18C,2.700000*%
%ADD19C,1.524000*%
G04 APERTURE END LIST*
D10*
%TO.C,SW1*%
X181675000Y-86000000D03*
D11*
X184215000Y-86000000D03*
%TD*%
D10*
%TO.C,SPK2*%
X157325000Y-86650000D03*
D11*
X154785000Y-86650000D03*
%TD*%
D12*
%TO.C,C1*%
X154750000Y-82200000D03*
D13*
X154750000Y-79700000D03*
%TD*%
D14*
%TO.C,C4*%
X149300000Y-62682379D03*
D13*
X151800000Y-62682379D03*
%TD*%
D15*
%TO.C,CN1*%
X190125000Y-57025000D03*
X184125000Y-57025000D03*
D16*
X188125000Y-59425000D03*
X190125000Y-54625000D03*
X183125000Y-54625000D03*
%TD*%
D10*
%TO.C,RV2*%
X162800000Y-57130000D03*
D11*
X162800000Y-54590000D03*
X162800000Y-52050000D03*
%TD*%
D10*
%TO.C,SW2*%
X180925000Y-51400000D03*
D11*
X183465000Y-51400000D03*
%TD*%
D13*
%TO.C,R1*%
X158100000Y-50330000D03*
X158100000Y-57950000D03*
%TD*%
D10*
%TO.C,SPK1*%
X151800000Y-55950000D03*
D11*
X149260000Y-55950000D03*
%TD*%
D17*
%TO.C,C5 470uF*%
X163750000Y-83425000D03*
D13*
X161250000Y-83425000D03*
%TD*%
D18*
%TO.C,H1*%
X148490000Y-50100000D03*
%TD*%
%TO.C,H4*%
X190725000Y-85525000D03*
%TD*%
D13*
%TO.C,R2*%
X167225000Y-57895000D03*
X167225000Y-50275000D03*
%TD*%
D19*
%TO.C,U2*%
X190651500Y-64280000D03*
X188111500Y-64280000D03*
X185571500Y-64280000D03*
X183031500Y-64280000D03*
X180491500Y-64280000D03*
X177951500Y-64280000D03*
X175411500Y-64280000D03*
X175411500Y-79520000D03*
X177951500Y-79520000D03*
X180491500Y-79520000D03*
X183031500Y-79520000D03*
X185571500Y-79520000D03*
X188111500Y-79520000D03*
X190651500Y-79520000D03*
%TD*%
D18*
%TO.C,H3*%
X148490000Y-85525000D03*
%TD*%
D14*
%TO.C,C2*%
X156500000Y-62700000D03*
D13*
X159000000Y-62700000D03*
%TD*%
D18*
%TO.C,H2*%
X190725000Y-50100000D03*
%TD*%
D14*
%TO.C,U3*%
X148490000Y-67790000D03*
D13*
X148490000Y-70330000D03*
X148490000Y-72870000D03*
X148490000Y-75410000D03*
X156110000Y-75410000D03*
X156110000Y-72870000D03*
X156110000Y-70330000D03*
X156110000Y-67790000D03*
%TD*%
D10*
%TO.C,RV1*%
X171925000Y-57175000D03*
D11*
X171925000Y-54635000D03*
X171925000Y-52095000D03*
%TD*%
D14*
%TO.C,C3*%
X168492621Y-83425000D03*
D13*
X170992621Y-83425000D03*
%TD*%
M02*
