%TF.GenerationSoftware,KiCad,Pcbnew,10.0.0*%
%TF.CreationDate,2026-09-20T17:31:03+10:00*%
%TF.ProjectId,static-fmreceiver,73746174-6963-42d6-966d-726563656976,rev?*%
%TF.SameCoordinates,Original*%
%TF.FileFunction,Copper,L1,Top*%
%TF.FilePolarity,Positive*%
%FSLAX46Y46*%
G04 Gerber Fmt 4.6, Leading zero omitted, Abs format (unit mm)*
G04 Created by KiCad (PCBNEW 10.0.0) date 2026-09-20 17:31:03*
%MOMM*%
%LPD*%
G01*
G04 APERTURE LIST*
G04 Aperture macros list*
%AMRoundRect*
0 Rectangle with rounded corners*
0 $1 Rounding radius*
0 $2 $3 $4 $5 $6 $7 $8 $9 X,Y pos of 4 corners*
0 Add a 4 corners polygon primitive as box body*
4,1,4,$2,$3,$4,$5,$6,$7,$8,$9,$2,$3,0*
0 Add four circle primitives for the rounded corners*
1,1,$1+$1,$2,$3*
1,1,$1+$1,$4,$5*
1,1,$1+$1,$6,$7*
1,1,$1+$1,$8,$9*
0 Add four rect primitives between the rounded corners*
20,1,$1+$1,$2,$3,$4,$5,0*
20,1,$1+$1,$4,$5,$6,$7,0*
20,1,$1+$1,$6,$7,$8,$9,0*
20,1,$1+$1,$8,$9,$2,$3,0*%
G04 Aperture macros list end*
%TA.AperFunction,ComponentPad*%
%ADD10R,1.700000X1.700000*%
%TD*%
%TA.AperFunction,ComponentPad*%
%ADD11C,1.700000*%
%TD*%
%TA.AperFunction,SMDPad,CuDef*%
%ADD12R,1.200000X2.000000*%
%TD*%
%TA.AperFunction,ComponentPad*%
%ADD13RoundRect,0.250000X0.550000X-0.550000X0.550000X0.550000X-0.550000X0.550000X-0.550000X-0.550000X0*%
%TD*%
%TA.AperFunction,ComponentPad*%
%ADD14C,1.600000*%
%TD*%
%TA.AperFunction,ComponentPad*%
%ADD15RoundRect,0.250000X-0.550000X-0.550000X0.550000X-0.550000X0.550000X0.550000X-0.550000X0.550000X0*%
%TD*%
%TA.AperFunction,ComponentPad*%
%ADD16C,1.200000*%
%TD*%
%TA.AperFunction,ComponentPad*%
%ADD17O,1.800000X1.200000*%
%TD*%
%TA.AperFunction,ComponentPad*%
%ADD18RoundRect,0.250000X0.550000X0.550000X-0.550000X0.550000X-0.550000X-0.550000X0.550000X-0.550000X0*%
%TD*%
%TA.AperFunction,SMDPad,CuDef*%
%ADD19RoundRect,0.152400X0.609600X-1.063600X0.609600X1.063600X-0.609600X1.063600X-0.609600X-1.063600X0*%
%TD*%
%TA.AperFunction,ComponentPad*%
%ADD20C,1.524000*%
%TD*%
%TA.AperFunction,SMDPad,CuDef*%
%ADD21RoundRect,0.152400X-0.609600X1.063600X-0.609600X-1.063600X0.609600X-1.063600X0.609600X1.063600X0*%
%TD*%
%TA.AperFunction,Conductor*%
%ADD22C,0.200000*%
%TD*%
G04 APERTURE END LIST*
D10*
%TO.P,SW1,1,1_1*%
%TO.N,Net-(U2-P1_D7_RX)*%
X181675000Y-86000000D03*
D11*
%TO.P,SW1,2,2_2*%
%TO.N,GND*%
X184215000Y-86000000D03*
%TD*%
D10*
%TO.P,SPK2,1,Pin_1_1*%
%TO.N,/L_AMP_OUT*%
X157325000Y-86650000D03*
D11*
%TO.P,SPK2,2,Pin_2_2*%
%TO.N,GND*%
X154785000Y-86650000D03*
%TD*%
D12*
%TO.P,U1,1,DATA_1*%
%TO.N,/SDA*%
X161100000Y-77000000D03*
%TO.P,U1,2,CLK_2*%
%TO.N,/SCL*%
X163100000Y-77000000D03*
%TO.P,U1,3,GND_3*%
%TO.N,GND*%
X165100000Y-77000000D03*
%TO.P,U1,4,NC_4*%
%TO.N,unconnected-(U1-NC-Pad4)*%
X167100000Y-77000000D03*
%TO.P,U1,5,VCC_5*%
%TO.N,+3V3*%
X169100000Y-77000000D03*
%TO.P,U1,6,GND_6*%
%TO.N,GND*%
X169100000Y-66000000D03*
%TO.P,U1,7,L-OUT_7*%
%TO.N,/L_OUT*%
X167100000Y-66000000D03*
%TO.P,U1,8,R-OUT_8*%
%TO.N,/R_OUT*%
X165100000Y-66000000D03*
%TO.P,U1,9,GND_9*%
%TO.N,GND*%
X163100000Y-66000000D03*
%TO.P,U1,10,ANT_10*%
%TO.N,Net-(U1-ANT)*%
X161100000Y-66000000D03*
%TD*%
D13*
%TO.P,C1,1*%
%TO.N,+3V3*%
X154750000Y-82200000D03*
D14*
%TO.P,C1,2*%
%TO.N,GND*%
X154750000Y-79700000D03*
%TD*%
D15*
%TO.P,C4,1*%
%TO.N,Net-(U3-OUT1)*%
X149300000Y-62682379D03*
D14*
%TO.P,C4,2*%
%TO.N,/R_AMP_OUT*%
X151800000Y-62682379D03*
%TD*%
D16*
%TO.P,CN1,*%
%TO.N,*%
X190125000Y-57025000D03*
X184125000Y-57025000D03*
D17*
%TO.P,CN1,2,2_2*%
%TO.N,unconnected-(CN1-Pad2)*%
X188125000Y-59425000D03*
%TO.P,CN1,3,3_3*%
%TO.N,GND*%
X190125000Y-54625000D03*
%TO.P,CN1,4,4_4*%
%TO.N,Net-(U1-ANT)*%
X183125000Y-54625000D03*
%TD*%
D10*
%TO.P,RV2,1,1_1*%
%TO.N,/R_OUT*%
X162800000Y-57130000D03*
D11*
%TO.P,RV2,2,2_2*%
%TO.N,Net-(U3-IN2)*%
X162800000Y-54590000D03*
%TO.P,RV2,3,3_3*%
%TO.N,GND*%
X162800000Y-52050000D03*
%TD*%
D10*
%TO.P,SW2,1,1_1*%
%TO.N,GND*%
X180925000Y-51400000D03*
D11*
%TO.P,SW2,2,2_2*%
%TO.N,Net-(U2-P26_A0_D0)*%
X183465000Y-51400000D03*
%TD*%
D14*
%TO.P,R1,1*%
%TO.N,Net-(U3-IN2)*%
X158100000Y-50330000D03*
%TO.P,R1,2*%
%TO.N,GND*%
X158100000Y-57950000D03*
%TD*%
D10*
%TO.P,SPK1,1,Pin_1_1*%
%TO.N,/R_AMP_OUT*%
X151800000Y-55950000D03*
D11*
%TO.P,SPK1,2,Pin_2_2*%
%TO.N,GND*%
X149260000Y-55950000D03*
%TD*%
D18*
%TO.P,C5 470uF,1*%
%TO.N,Net-(U3-OUT2)*%
X163750000Y-83425000D03*
D14*
%TO.P,C5 470uF,2*%
%TO.N,/L_AMP_OUT*%
X161250000Y-83425000D03*
%TD*%
%TO.P,R2,1*%
%TO.N,Net-(U3-IN1)*%
X167225000Y-57895000D03*
%TO.P,R2,2*%
%TO.N,GND*%
X167225000Y-50275000D03*
%TD*%
D19*
%TO.P,U2,1,P26_A0_D0_1*%
%TO.N,Net-(U2-P26_A0_D0)*%
X190651500Y-63445000D03*
D20*
X190651500Y-64280000D03*
D19*
%TO.P,U2,2,P27_A1_D1_2*%
%TO.N,unconnected-(U2-P27_A1_D1-Pad2)_1*%
X188111500Y-63445000D03*
D20*
%TO.N,unconnected-(U2-P27_A1_D1-Pad2)*%
X188111500Y-64280000D03*
D19*
%TO.P,U2,3,P28_A2_D2_3*%
%TO.N,unconnected-(U2-P28_A2_D2-Pad3)*%
X185571500Y-63445000D03*
D20*
%TO.N,unconnected-(U2-P28_A2_D2-Pad3)_1*%
X185571500Y-64280000D03*
D19*
%TO.P,U2,4,P29_A3_D3_4*%
%TO.N,unconnected-(U2-P29_A3_D3-Pad4)*%
X183031500Y-63445000D03*
D20*
%TO.N,unconnected-(U2-P29_A3_D3-Pad4)_1*%
X183031500Y-64280000D03*
D19*
%TO.P,U2,5,P6_SDA_D4_5*%
%TO.N,/SDA*%
X180491500Y-63445000D03*
D20*
X180491500Y-64280000D03*
D19*
%TO.P,U2,6,P7_SCL_D5_6*%
%TO.N,/SCL*%
X177951500Y-63445000D03*
D20*
X177951500Y-64280000D03*
D19*
%TO.P,U2,7,P0_D6_TX_7*%
%TO.N,unconnected-(U2-P0_D6_TX-Pad7)_1*%
X175411500Y-63445000D03*
D20*
%TO.N,unconnected-(U2-P0_D6_TX-Pad7)*%
X175411500Y-64280000D03*
%TO.P,U2,8,P1_D7_RX_8*%
%TO.N,Net-(U2-P1_D7_RX)*%
X175411500Y-79520000D03*
D21*
X175411500Y-80355000D03*
D20*
%TO.P,U2,9,P2_D8_SCK_9*%
%TO.N,unconnected-(U2-P2_D8_SCK-Pad9)*%
X177951500Y-79520000D03*
D21*
%TO.N,unconnected-(U2-P2_D8_SCK-Pad9)_1*%
X177951500Y-80355000D03*
D20*
%TO.P,U2,10,P4_D9_MISO_10*%
%TO.N,unconnected-(U2-P4_D9_MISO-Pad10)_1*%
X180491500Y-79520000D03*
D21*
%TO.N,unconnected-(U2-P4_D9_MISO-Pad10)*%
X180491500Y-80355000D03*
D20*
%TO.P,U2,11,P3_D10_MOSI_11*%
%TO.N,unconnected-(U2-P3_D10_MOSI-Pad11)_1*%
X183031500Y-79520000D03*
D21*
%TO.N,unconnected-(U2-P3_D10_MOSI-Pad11)*%
X183031500Y-80355000D03*
D20*
%TO.P,U2,12,3V3_12*%
%TO.N,+3V3*%
X185571500Y-79520000D03*
D21*
X185571500Y-80355000D03*
D20*
%TO.P,U2,13,GND_13*%
%TO.N,GND*%
X188111500Y-79520000D03*
D21*
X188111500Y-80355000D03*
D20*
%TO.P,U2,14,VBUS_14*%
%TO.N,unconnected-(U2-VBUS-Pad14)_1*%
X190651500Y-79520000D03*
D21*
%TO.N,unconnected-(U2-VBUS-Pad14)*%
X190651500Y-80355000D03*
%TD*%
D15*
%TO.P,C2,1*%
%TO.N,Net-(U3-NF1)*%
X156500000Y-62700000D03*
D14*
%TO.P,C2,2*%
%TO.N,GND*%
X159000000Y-62700000D03*
%TD*%
D15*
%TO.P,U3,1,OUT1_1*%
%TO.N,Net-(U3-OUT1)*%
X148490000Y-67790000D03*
D14*
%TO.P,U3,2,VCC_2*%
%TO.N,+3V3*%
X148490000Y-70330000D03*
%TO.P,U3,3,OUT2_3*%
%TO.N,Net-(U3-OUT2)*%
X148490000Y-72870000D03*
%TO.P,U3,4,GND_4*%
%TO.N,GND*%
X148490000Y-75410000D03*
%TO.P,U3,5,NF2_5*%
%TO.N,Net-(U3-NF2)*%
X156110000Y-75410000D03*
%TO.P,U3,6,IN2_6*%
%TO.N,Net-(U3-IN2)*%
X156110000Y-72870000D03*
%TO.P,U3,7,IN1_7*%
%TO.N,Net-(U3-IN1)*%
X156110000Y-70330000D03*
%TO.P,U3,8,NF1_8*%
%TO.N,Net-(U3-NF1)*%
X156110000Y-67790000D03*
%TD*%
D10*
%TO.P,RV1,1,1_1*%
%TO.N,/L_OUT*%
X171925000Y-57175000D03*
D11*
%TO.P,RV1,2,2_2*%
%TO.N,Net-(U3-IN1)*%
X171925000Y-54635000D03*
%TO.P,RV1,3,3_3*%
%TO.N,GND*%
X171925000Y-52095000D03*
%TD*%
D15*
%TO.P,C3,1*%
%TO.N,Net-(U3-NF2)*%
X168492621Y-83425000D03*
D14*
%TO.P,C3,2*%
%TO.N,GND*%
X170992621Y-83425000D03*
%TD*%
%TO.N,Net-(U2-P1_D7_RX)*%
D22*
X175411500Y-80786500D02*
X175411500Y-79520000D01*
X181675000Y-86000000D02*
X180625000Y-86000000D01*
X175825000Y-79933500D02*
X175411500Y-79520000D01*
X180625000Y-86000000D02*
X175411500Y-80786500D01*
%TO.N,GND*%
X159000000Y-62700000D02*
X160131370Y-62700000D01*
X169100000Y-66000000D02*
X169100000Y-66800000D01*
X160131370Y-62700000D02*
X163100000Y-65668630D01*
X160500000Y-70650000D02*
X159000000Y-69150000D01*
X165100000Y-77000000D02*
X165100000Y-76800000D01*
X169100000Y-66000000D02*
X169100000Y-66765685D01*
X163100000Y-65668630D02*
X163100000Y-66000000D01*
X184291500Y-75700000D02*
X188111500Y-79520000D01*
X169100000Y-66765685D02*
X165215685Y-70650000D01*
X159000000Y-69150000D02*
X159000000Y-62700000D01*
X165100000Y-76800000D02*
X166200000Y-75700000D01*
X165100000Y-77000000D02*
X165100000Y-76600000D01*
X165100000Y-77775000D02*
X165100000Y-77000000D01*
X166200000Y-75700000D02*
X184291500Y-75700000D01*
X165215685Y-70650000D02*
X160500000Y-70650000D01*
%TO.N,/L_AMP_OUT*%
X158025000Y-86650000D02*
X161250000Y-83425000D01*
X157325000Y-86650000D02*
X158025000Y-86650000D01*
%TO.N,/SDA*%
X179218130Y-61929000D02*
X180491500Y-63202370D01*
X180491500Y-63202370D02*
X180491500Y-64280000D01*
X176889500Y-62189786D02*
X177150286Y-61929000D01*
X172558000Y-65342000D02*
X175851395Y-65342000D01*
X177150286Y-61929000D02*
X179218130Y-61929000D01*
X161100000Y-77000000D02*
X161100000Y-77400000D01*
X176889500Y-64303895D02*
X176889500Y-62189786D01*
X161100000Y-76800000D02*
X172558000Y-65342000D01*
X161100000Y-77000000D02*
X161100000Y-76800000D01*
X175851395Y-65342000D02*
X176889500Y-64303895D01*
X179620000Y-64280000D02*
X180491500Y-64280000D01*
%TO.N,/SCL*%
X175756500Y-66475000D02*
X177951500Y-64280000D01*
X163100000Y-77000000D02*
X163100000Y-76600000D01*
X177720000Y-64280000D02*
X177951500Y-64280000D01*
X173225000Y-66475000D02*
X175756500Y-66475000D01*
X163100000Y-76600000D02*
X173225000Y-66475000D01*
X163100000Y-77000000D02*
X163100000Y-77200000D01*
%TO.N,+3V3*%
X148945635Y-74310000D02*
X149590000Y-74954365D01*
X147390000Y-73665635D02*
X148034365Y-74310000D01*
X148034365Y-74310000D02*
X148945635Y-74310000D01*
X183051500Y-77000000D02*
X185571500Y-79520000D01*
X156175000Y-83625000D02*
X156175000Y-87800000D01*
X149590000Y-74954365D02*
X149590000Y-77040000D01*
X168925000Y-88400000D02*
X169892621Y-87432379D01*
X156175000Y-87800000D02*
X156775000Y-88400000D01*
X169892621Y-87432379D02*
X169892621Y-77792621D01*
X147390000Y-71430000D02*
X147390000Y-73665635D01*
X154750000Y-82200000D02*
X156175000Y-83625000D01*
X148490000Y-70330000D02*
X147390000Y-71430000D01*
X156775000Y-88400000D02*
X168925000Y-88400000D01*
X169100000Y-77000000D02*
X183051500Y-77000000D01*
X149590000Y-77040000D02*
X154750000Y-82200000D01*
X169892621Y-77792621D02*
X169100000Y-77000000D01*
%TO.N,/L_OUT*%
X167100000Y-66000000D02*
X167100000Y-62000000D01*
X167100000Y-62000000D02*
X171925000Y-57175000D01*
%TO.N,/R_OUT*%
X162800000Y-57130000D02*
X165100000Y-59430000D01*
X165100000Y-66000000D02*
X165100000Y-66400000D01*
X165100000Y-59430000D02*
X165100000Y-66000000D01*
%TO.N,Net-(U1-ANT)*%
X161100000Y-66000000D02*
X161100000Y-66400000D01*
X178350000Y-54625000D02*
X183125000Y-54625000D01*
X168000000Y-67300000D02*
X168000000Y-64975000D01*
X162000000Y-67300000D02*
X168000000Y-67300000D01*
X168000000Y-64975000D02*
X178350000Y-54625000D01*
X161100000Y-66400000D02*
X162000000Y-67300000D01*
%TO.N,Net-(U3-OUT1)*%
X148490000Y-67790000D02*
X148490000Y-63492379D01*
X148490000Y-67790000D02*
X148200000Y-67500000D01*
X148500000Y-67780000D02*
X148490000Y-67790000D01*
X148490000Y-63492379D02*
X149300000Y-62682379D01*
%TO.N,/R_AMP_OUT*%
X151800000Y-62682379D02*
X151800000Y-55950000D01*
%TO.N,Net-(U3-IN2)*%
X156110000Y-72870000D02*
X155010000Y-71770000D01*
X162360000Y-54590000D02*
X162800000Y-54590000D01*
X158100000Y-50330000D02*
X162360000Y-54590000D01*
X155010000Y-53420000D02*
X158100000Y-50330000D01*
X155010000Y-71770000D02*
X155010000Y-53420000D01*
%TO.N,Net-(U2-P26_A0_D0)*%
X190651500Y-60395003D02*
X183465000Y-53208503D01*
X190651500Y-64280000D02*
X190651500Y-60395003D01*
X183465000Y-53208503D02*
X183465000Y-51400000D01*
%TO.N,Net-(U3-OUT2)*%
X162950000Y-83425000D02*
X156035000Y-76510000D01*
X156035000Y-76510000D02*
X152130000Y-76510000D01*
X152130000Y-76510000D02*
X148490000Y-72870000D01*
X163750000Y-83425000D02*
X162950000Y-83425000D01*
%TO.N,Net-(U3-IN1)*%
X167225000Y-57895000D02*
X168665000Y-57895000D01*
X156110000Y-70330000D02*
X157900000Y-68540000D01*
X157900000Y-59730000D02*
X161650000Y-55980000D01*
X165310000Y-55980000D02*
X167225000Y-57895000D01*
X157900000Y-68540000D02*
X157900000Y-59730000D01*
X168665000Y-57895000D02*
X171925000Y-54635000D01*
X161650000Y-55980000D02*
X165310000Y-55980000D01*
%TO.N,Net-(U3-NF1)*%
X156500000Y-67400000D02*
X156110000Y-67790000D01*
X156110000Y-63090000D02*
X156500000Y-62700000D01*
X156110000Y-67790000D02*
X156110000Y-63090000D01*
%TO.N,Net-(U3-NF2)*%
X156110000Y-75410000D02*
X156110000Y-75690000D01*
X156110000Y-75690000D02*
X155800000Y-76000000D01*
X163025000Y-82325000D02*
X156110000Y-75410000D01*
X168492621Y-83425000D02*
X167392621Y-82325000D01*
X155800000Y-75720000D02*
X156110000Y-75410000D01*
X167392621Y-82325000D02*
X163025000Y-82325000D01*
%TD*%
M02*
