%TF.GenerationSoftware,KiCad,Pcbnew,10.0.0*%
%TF.CreationDate,2026-09-20T17:31:03+10:00*%
%TF.ProjectId,static-fmreceiver,73746174-6963-42d6-966d-726563656976,rev?*%
%TF.SameCoordinates,Original*%
%TF.FileFunction,Copper,L2,Bot*%
%TF.FilePolarity,Positive*%
%FSLAX46Y46*%
G04 Gerber Fmt 4.6, Leading zero omitted, Abs format (unit mm)*
G04 Created by KiCad (PCBNEW 10.0.0) date 2026-09-20 17:31:03*
%MOMM*%
%LPD*%
G01*
G04 APERTURE LIST*
G04 Aperture macros list*
%AMRoundRect*
0 Rectangle with rounded corners*
0 $1 Rounding radius*
0 $2 $3 $4 $5 $6 $7 $8 $9 X,Y pos of 4 corners*
0 Add a 4 corners polygon primitive as box body*
4,1,4,$2,$3,$4,$5,$6,$7,$8,$9,$2,$3,0*
0 Add four circle primitives for the rounded corners*
1,1,$1+$1,$2,$3*
1,1,$1+$1,$4,$5*
1,1,$1+$1,$6,$7*
1,1,$1+$1,$8,$9*
0 Add four rect primitives between the rounded corners*
20,1,$1+$1,$2,$3,$4,$5,0*
20,1,$1+$1,$4,$5,$6,$7,0*
20,1,$1+$1,$6,$7,$8,$9,0*
20,1,$1+$1,$8,$9,$2,$3,0*%
G04 Aperture macros list end*
%TA.AperFunction,ComponentPad*%
%ADD10R,1.700000X1.700000*%
%TD*%
%TA.AperFunction,ComponentPad*%
%ADD11C,1.700000*%
%TD*%
%TA.AperFunction,ComponentPad*%
%ADD12RoundRect,0.250000X0.550000X-0.550000X0.550000X0.550000X-0.550000X0.550000X-0.550000X-0.550000X0*%
%TD*%
%TA.AperFunction,ComponentPad*%
%ADD13C,1.600000*%
%TD*%
%TA.AperFunction,ComponentPad*%
%ADD14RoundRect,0.250000X-0.550000X-0.550000X0.550000X-0.550000X0.550000X0.550000X-0.550000X0.550000X0*%
%TD*%
%TA.AperFunction,ComponentPad*%
%ADD15C,1.200000*%
%TD*%
%TA.AperFunction,ComponentPad*%
%ADD16O,1.800000X1.200000*%
%TD*%
%TA.AperFunction,ComponentPad*%
%ADD17RoundRect,0.250000X0.550000X0.550000X-0.550000X0.550000X-0.550000X-0.550000X0.550000X-0.550000X0*%
%TD*%
%TA.AperFunction,ComponentPad*%
%ADD18C,1.524000*%
%TD*%
G04 APERTURE END LIST*
D10*
%TO.P,SW1,1,1_1*%
%TO.N,Net-(U2-P1_D7_RX)*%
X181675000Y-86000000D03*
D11*
%TO.P,SW1,2,2_2*%
%TO.N,GND*%
X184215000Y-86000000D03*
%TD*%
D10*
%TO.P,SPK2,1,Pin_1_1*%
%TO.N,/L_AMP_OUT*%
X157325000Y-86650000D03*
D11*
%TO.P,SPK2,2,Pin_2_2*%
%TO.N,GND*%
X154785000Y-86650000D03*
%TD*%
D12*
%TO.P,C1,1*%
%TO.N,+3V3*%
X154750000Y-82200000D03*
D13*
%TO.P,C1,2*%
%TO.N,GND*%
X154750000Y-79700000D03*
%TD*%
D14*
%TO.P,C4,1*%
%TO.N,Net-(U3-OUT1)*%
X149300000Y-62682379D03*
D13*
%TO.P,C4,2*%
%TO.N,/R_AMP_OUT*%
X151800000Y-62682379D03*
%TD*%
D15*
%TO.P,CN1,*%
%TO.N,*%
X190125000Y-57025000D03*
X184125000Y-57025000D03*
D16*
%TO.P,CN1,2,2_2*%
%TO.N,unconnected-(CN1-Pad2)*%
X188125000Y-59425000D03*
%TO.P,CN1,3,3_3*%
%TO.N,GND*%
X190125000Y-54625000D03*
%TO.P,CN1,4,4_4*%
%TO.N,Net-(U1-ANT)*%
X183125000Y-54625000D03*
%TD*%
D10*
%TO.P,RV2,1,1_1*%
%TO.N,/R_OUT*%
X162800000Y-57130000D03*
D11*
%TO.P,RV2,2,2_2*%
%TO.N,Net-(U3-IN2)*%
X162800000Y-54590000D03*
%TO.P,RV2,3,3_3*%
%TO.N,GND*%
X162800000Y-52050000D03*
%TD*%
D10*
%TO.P,SW2,1,1_1*%
%TO.N,GND*%
X180925000Y-51400000D03*
D11*
%TO.P,SW2,2,2_2*%
%TO.N,Net-(U2-P26_A0_D0)*%
X183465000Y-51400000D03*
%TD*%
D13*
%TO.P,R1,1*%
%TO.N,Net-(U3-IN2)*%
X158100000Y-50330000D03*
%TO.P,R1,2*%
%TO.N,GND*%
X158100000Y-57950000D03*
%TD*%
D10*
%TO.P,SPK1,1,Pin_1_1*%
%TO.N,/R_AMP_OUT*%
X151800000Y-55950000D03*
D11*
%TO.P,SPK1,2,Pin_2_2*%
%TO.N,GND*%
X149260000Y-55950000D03*
%TD*%
D17*
%TO.P,C5 470uF,1*%
%TO.N,Net-(U3-OUT2)*%
X163750000Y-83425000D03*
D13*
%TO.P,C5 470uF,2*%
%TO.N,/L_AMP_OUT*%
X161250000Y-83425000D03*
%TD*%
%TO.P,R2,1*%
%TO.N,Net-(U3-IN1)*%
X167225000Y-57895000D03*
%TO.P,R2,2*%
%TO.N,GND*%
X167225000Y-50275000D03*
%TD*%
D18*
%TO.P,U2,1,P26_A0_D0_1*%
%TO.N,Net-(U2-P26_A0_D0)*%
X190651500Y-64280000D03*
%TO.P,U2,2,P27_A1_D1_2*%
%TO.N,unconnected-(U2-P27_A1_D1-Pad2)*%
X188111500Y-64280000D03*
%TO.P,U2,3,P28_A2_D2_3*%
%TO.N,unconnected-(U2-P28_A2_D2-Pad3)_1*%
X185571500Y-64280000D03*
%TO.P,U2,4,P29_A3_D3_4*%
%TO.N,unconnected-(U2-P29_A3_D3-Pad4)_1*%
X183031500Y-64280000D03*
%TO.P,U2,5,P6_SDA_D4_5*%
%TO.N,/SDA*%
X180491500Y-64280000D03*
%TO.P,U2,6,P7_SCL_D5_6*%
%TO.N,/SCL*%
X177951500Y-64280000D03*
%TO.P,U2,7,P0_D6_TX_7*%
%TO.N,unconnected-(U2-P0_D6_TX-Pad7)*%
X175411500Y-64280000D03*
%TO.P,U2,8,P1_D7_RX_8*%
%TO.N,Net-(U2-P1_D7_RX)*%
X175411500Y-79520000D03*
%TO.P,U2,9,P2_D8_SCK_9*%
%TO.N,unconnected-(U2-P2_D8_SCK-Pad9)*%
X177951500Y-79520000D03*
%TO.P,U2,10,P4_D9_MISO_10*%
%TO.N,unconnected-(U2-P4_D9_MISO-Pad10)_1*%
X180491500Y-79520000D03*
%TO.P,U2,11,P3_D10_MOSI_11*%
%TO.N,unconnected-(U2-P3_D10_MOSI-Pad11)_1*%
X183031500Y-79520000D03*
%TO.P,U2,12,3V3_12*%
%TO.N,+3V3*%
X185571500Y-79520000D03*
%TO.P,U2,13,GND_13*%
%TO.N,GND*%
X188111500Y-79520000D03*
%TO.P,U2,14,VBUS_14*%
%TO.N,unconnected-(U2-VBUS-Pad14)_1*%
X190651500Y-79520000D03*
%TD*%
D14*
%TO.P,C2,1*%
%TO.N,Net-(U3-NF1)*%
X156500000Y-62700000D03*
D13*
%TO.P,C2,2*%
%TO.N,GND*%
X159000000Y-62700000D03*
%TD*%
D14*
%TO.P,U3,1,OUT1_1*%
%TO.N,Net-(U3-OUT1)*%
X148490000Y-67790000D03*
D13*
%TO.P,U3,2,VCC_2*%
%TO.N,+3V3*%
X148490000Y-70330000D03*
%TO.P,U3,3,OUT2_3*%
%TO.N,Net-(U3-OUT2)*%
X148490000Y-72870000D03*
%TO.P,U3,4,GND_4*%
%TO.N,GND*%
X148490000Y-75410000D03*
%TO.P,U3,5,NF2_5*%
%TO.N,Net-(U3-NF2)*%
X156110000Y-75410000D03*
%TO.P,U3,6,IN2_6*%
%TO.N,Net-(U3-IN2)*%
X156110000Y-72870000D03*
%TO.P,U3,7,IN1_7*%
%TO.N,Net-(U3-IN1)*%
X156110000Y-70330000D03*
%TO.P,U3,8,NF1_8*%
%TO.N,Net-(U3-NF1)*%
X156110000Y-67790000D03*
%TD*%
D10*
%TO.P,RV1,1,1_1*%
%TO.N,/L_OUT*%
X171925000Y-57175000D03*
D11*
%TO.P,RV1,2,2_2*%
%TO.N,Net-(U3-IN1)*%
X171925000Y-54635000D03*
%TO.P,RV1,3,3_3*%
%TO.N,GND*%
X171925000Y-52095000D03*
%TD*%
D14*
%TO.P,C3,1*%
%TO.N,Net-(U3-NF2)*%
X168492621Y-83425000D03*
D13*
%TO.P,C3,2*%
%TO.N,GND*%
X170992621Y-83425000D03*
%TD*%
%TA.AperFunction,Conductor*%
%TO.N,GND*%
G36*
X191404043Y-45700765D02*
G01*
X191652895Y-45717075D01*
X191668953Y-45719190D01*
X191876105Y-45760395D01*
X191909535Y-45767045D01*
X191971446Y-45799430D01*
X191971806Y-45800063D01*
X192149715Y-45847734D01*
X192172460Y-45856295D01*
X192381799Y-45959529D01*
X192392460Y-45964787D01*
X192406506Y-45972897D01*
X192610460Y-46109174D01*
X192623329Y-46119048D01*
X192807749Y-46280781D01*
X192819218Y-46292250D01*
X192980951Y-46476670D01*
X192990825Y-46489539D01*
X193127102Y-46693493D01*
X193135212Y-46707539D01*
X193243702Y-46927534D01*
X193249909Y-46942520D01*
X193328756Y-47174797D01*
X193332954Y-47190464D01*
X193380807Y-47431035D01*
X193382925Y-47447116D01*
X193399235Y-47695956D01*
X193399500Y-47704066D01*
X193399500Y-86495933D01*
X193399235Y-86504043D01*
X193382925Y-86752883D01*
X193380807Y-86768964D01*
X193332954Y-87009535D01*
X193328756Y-87025202D01*
X193249909Y-87257479D01*
X193243702Y-87272465D01*
X193135212Y-87492460D01*
X193127102Y-87506506D01*
X192990825Y-87710460D01*
X192980951Y-87723329D01*
X192819218Y-87907749D01*
X192807749Y-87919218D01*
X192623329Y-88080951D01*
X192610460Y-88090825D01*
X192406506Y-88227102D01*
X192392460Y-88235212D01*
X192172465Y-88343702D01*
X192157479Y-88349909D01*
X191925202Y-88428756D01*
X191909535Y-88432954D01*
X191668964Y-88480807D01*
X191652883Y-88482925D01*
X191404043Y-88499235D01*
X191395933Y-88499500D01*
X147804067Y-88499500D01*
X147795957Y-88499235D01*
X147547116Y-88482925D01*
X147531035Y-88480807D01*
X147290464Y-88432954D01*
X147274797Y-88428756D01*
X147042520Y-88349909D01*
X147027534Y-88343702D01*
X146807539Y-88235212D01*
X146793493Y-88227102D01*
X146589539Y-88090825D01*
X146576670Y-88080951D01*
X146392250Y-87919218D01*
X146380781Y-87907749D01*
X146290342Y-87804624D01*
X146219045Y-87723325D01*
X146209174Y-87710460D01*
X146072897Y-87506506D01*
X146064787Y-87492460D01*
X146024968Y-87411716D01*
X145956294Y-87272458D01*
X145950090Y-87257479D01*
X145933140Y-87207547D01*
X145919790Y-87168217D01*
X145871243Y-87025202D01*
X145867045Y-87009535D01*
X145856596Y-86957007D01*
X145819190Y-86768953D01*
X145817075Y-86752895D01*
X145800765Y-86504043D01*
X145800500Y-86495933D01*
X145800500Y-85399038D01*
X146889500Y-85399038D01*
X146889500Y-85650962D01*
X146905523Y-85752127D01*
X146928910Y-85899785D01*
X147006760Y-86139383D01*
X147085413Y-86293747D01*
X147115886Y-86353554D01*
X147121132Y-86363848D01*
X147269201Y-86567649D01*
X147269205Y-86567654D01*
X147447345Y-86745794D01*
X147447350Y-86745798D01*
X147605862Y-86860963D01*
X147651155Y-86893870D01*
X147776003Y-86957483D01*
X147875616Y-87008239D01*
X147875618Y-87008239D01*
X147875621Y-87008241D01*
X148115215Y-87086090D01*
X148364038Y-87125500D01*
X148364039Y-87125500D01*
X148615961Y-87125500D01*
X148615962Y-87125500D01*
X148864785Y-87086090D01*
X149104379Y-87008241D01*
X149328845Y-86893870D01*
X149532656Y-86745793D01*
X149710793Y-86567656D01*
X149728160Y-86543753D01*
X153435000Y-86543753D01*
X153435000Y-86756246D01*
X153468242Y-86966127D01*
X153468242Y-86966130D01*
X153533904Y-87168217D01*
X153630375Y-87357550D01*
X153669728Y-87411716D01*
X154302037Y-86779408D01*
X154319075Y-86842993D01*
X154384901Y-86957007D01*
X154477993Y-87050099D01*
X154592007Y-87115925D01*
X154655590Y-87132962D01*
X154023282Y-87765269D01*
X154023282Y-87765270D01*
X154077449Y-87804624D01*
X154266782Y-87901095D01*
X154468870Y-87966757D01*
X154678754Y-88000000D01*
X154891246Y-88000000D01*
X155101127Y-87966757D01*
X155101130Y-87966757D01*
X155303217Y-87901095D01*
X155492554Y-87804622D01*
X155546716Y-87765270D01*
X155546717Y-87765270D01*
X154914408Y-87132962D01*
X154977993Y-87115925D01*
X155092007Y-87050099D01*
X155185099Y-86957007D01*
X155250925Y-86842993D01*
X155267962Y-86779408D01*
X155938181Y-87449628D01*
X155971666Y-87510951D01*
X155974500Y-87537300D01*
X155974500Y-87547865D01*
X155974501Y-87547876D01*
X155980908Y-87607483D01*
X156031202Y-87742328D01*
X156031206Y-87742335D01*
X156117452Y-87857544D01*
X156117455Y-87857547D01*
X156232664Y-87943793D01*
X156232671Y-87943797D01*
X156367517Y-87994091D01*
X156367516Y-87994091D01*
X156374444Y-87994835D01*
X156427127Y-88000500D01*
X158222872Y-88000499D01*
X158282483Y-87994091D01*
X158417331Y-87943796D01*
X158532546Y-87857546D01*
X158618796Y-87742331D01*
X158669091Y-87607483D01*
X158675500Y-87547873D01*
X158675499Y-85752128D01*
X158669091Y-85692517D01*
X158618796Y-85557669D01*
X158618795Y-85557668D01*
X158618793Y-85557664D01*
X158532547Y-85442455D01*
X158532544Y-85442452D01*
X158417335Y-85356206D01*
X158417328Y-85356202D01*
X158282482Y-85305908D01*
X158282483Y-85305908D01*
X158222883Y-85299501D01*
X158222881Y-85299500D01*
X158222873Y-85299500D01*
X158222864Y-85299500D01*
X156427129Y-85299500D01*
X156427123Y-85299501D01*
X156367516Y-85305908D01*
X156232671Y-85356202D01*
X156232664Y-85356206D01*
X156117455Y-85442452D01*
X156117452Y-85442455D01*
X156031206Y-85557664D01*
X156031202Y-85557671D01*
X155980908Y-85692517D01*
X155974501Y-85752116D01*
X155974501Y-85752123D01*
X155974500Y-85752135D01*
X155974500Y-85762690D01*
X155954815Y-85829729D01*
X155938181Y-85850371D01*
X155267962Y-86520590D01*
X155250925Y-86457007D01*
X155185099Y-86342993D01*
X155092007Y-86249901D01*
X154977993Y-86184075D01*
X154914409Y-86167037D01*
X155546716Y-85534728D01*
X155492550Y-85495375D01*
X155303217Y-85398904D01*
X155101129Y-85333242D01*
X154891246Y-85300000D01*
X154678754Y-85300000D01*
X154468872Y-85333242D01*
X154468869Y-85333242D01*
X154266782Y-85398904D01*
X154077439Y-85495380D01*
X154023282Y-85534727D01*
X154023282Y-85534728D01*
X154655591Y-86167037D01*
X154592007Y-86184075D01*
X154477993Y-86249901D01*
X154384901Y-86342993D01*
X154319075Y-86457007D01*
X154302037Y-86520591D01*
X153669728Y-85888282D01*
X153669727Y-85888282D01*
X153630380Y-85942439D01*
X153533904Y-86131782D01*
X153468242Y-86333869D01*
X153468242Y-86333872D01*
X153435000Y-86543753D01*
X149728160Y-86543753D01*
X149784654Y-86465996D01*
X149832530Y-86400099D01*
X149858870Y-86363845D01*
X149973241Y-86139379D01*
X150051090Y-85899785D01*
X150090500Y-85650962D01*
X150090500Y-85399038D01*
X150051090Y-85150215D01*
X150035468Y-85102135D01*
X180324500Y-85102135D01*
X180324500Y-86897870D01*
X180324501Y-86897876D01*
X180330908Y-86957483D01*
X180381202Y-87092328D01*
X180381206Y-87092335D01*
X180467452Y-87207544D01*
X180467455Y-87207547D01*
X180582664Y-87293793D01*
X180582671Y-87293797D01*
X180717517Y-87344091D01*
X180717516Y-87344091D01*
X180724444Y-87344835D01*
X180777127Y-87350500D01*
X182572872Y-87350499D01*
X182632483Y-87344091D01*
X182767331Y-87293796D01*
X182882546Y-87207546D01*
X182968796Y-87092331D01*
X183019091Y-86957483D01*
X183025500Y-86897873D01*
X183025499Y-86873979D01*
X183028330Y-86860963D01*
X183038940Y-86841525D01*
X183045179Y-86820275D01*
X183061803Y-86799643D01*
X183061808Y-86799636D01*
X183061811Y-86799634D01*
X183061818Y-86799626D01*
X183732037Y-86129408D01*
X183749075Y-86192993D01*
X183814901Y-86307007D01*
X183907993Y-86400099D01*
X184022007Y-86465925D01*
X184085590Y-86482962D01*
X183453282Y-87115269D01*
X183453282Y-87115270D01*
X183507449Y-87154624D01*
X183696782Y-87251095D01*
X183898870Y-87316757D01*
X184108754Y-87350000D01*
X184321246Y-87350000D01*
X184531127Y-87316757D01*
X184531130Y-87316757D01*
X184733217Y-87251095D01*
X184922554Y-87154622D01*
X184976716Y-87115270D01*
X184976717Y-87115270D01*
X184344408Y-86482962D01*
X184407993Y-86465925D01*
X184522007Y-86400099D01*
X184615099Y-86307007D01*
X184680925Y-86192993D01*
X184697962Y-86129409D01*
X185330270Y-86761717D01*
X185330270Y-86761716D01*
X185369622Y-86707554D01*
X185466095Y-86518217D01*
X185531757Y-86316130D01*
X185531757Y-86316127D01*
X185565000Y-86106246D01*
X185565000Y-85893753D01*
X185531757Y-85683872D01*
X185531757Y-85683869D01*
X185466094Y-85481780D01*
X185450137Y-85450462D01*
X185450136Y-85450461D01*
X185423934Y-85399038D01*
X189124500Y-85399038D01*
X189124500Y-85650962D01*
X189140523Y-85752127D01*
X189163910Y-85899785D01*
X189241760Y-86139383D01*
X189320413Y-86293747D01*
X189350886Y-86353554D01*
X189356132Y-86363848D01*
X189504201Y-86567649D01*
X189504205Y-86567654D01*
X189682345Y-86745794D01*
X189682350Y-86745798D01*
X189840862Y-86860963D01*
X189886155Y-86893870D01*
X190011003Y-86957483D01*
X190110616Y-87008239D01*
X190110618Y-87008239D01*
X190110621Y-87008241D01*
X190350215Y-87086090D01*
X190599038Y-87125500D01*
X190599039Y-87125500D01*
X190850961Y-87125500D01*
X190850962Y-87125500D01*
X191099785Y-87086090D01*
X191339379Y-87008241D01*
X191563845Y-86893870D01*
X191767656Y-86745793D01*
X191945793Y-86567656D01*
X192093870Y-86363845D01*
X192208241Y-86139379D01*
X192286090Y-85899785D01*
X192325500Y-85650962D01*
X192325500Y-85399038D01*
X192286090Y-85150215D01*
X192208241Y-84910621D01*
X192208239Y-84910618D01*
X192208239Y-84910616D01*
X192113917Y-84725500D01*
X192093870Y-84686155D01*
X192053231Y-84630220D01*
X191945798Y-84482350D01*
X191945794Y-84482345D01*
X191767654Y-84304205D01*
X191767649Y-84304201D01*
X191563848Y-84156132D01*
X191563847Y-84156131D01*
X191563845Y-84156130D01*
X191493747Y-84120413D01*
X191339383Y-84041760D01*
X191099785Y-83963910D01*
X190850962Y-83924500D01*
X190599038Y-83924500D01*
X190474626Y-83944205D01*
X190350214Y-83963910D01*
X190110616Y-84041760D01*
X189886151Y-84156132D01*
X189682350Y-84304201D01*
X189682345Y-84304205D01*
X189504205Y-84482345D01*
X189504201Y-84482350D01*
X189356132Y-84686151D01*
X189241760Y-84910616D01*
X189179534Y-85102128D01*
X189163910Y-85150215D01*
X189124500Y-85399038D01*
X185423934Y-85399038D01*
X185369624Y-85292449D01*
X185330270Y-85238282D01*
X185330269Y-85238282D01*
X184697962Y-85870590D01*
X184680925Y-85807007D01*
X184615099Y-85692993D01*
X184522007Y-85599901D01*
X184407993Y-85534075D01*
X184344409Y-85517037D01*
X184976716Y-84884728D01*
X184922550Y-84845375D01*
X184733217Y-84748904D01*
X184531129Y-84683242D01*
X184321246Y-84650000D01*
X184108754Y-84650000D01*
X183898872Y-84683242D01*
X183898869Y-84683242D01*
X183696782Y-84748904D01*
X183507439Y-84845380D01*
X183453282Y-84884727D01*
X183453282Y-84884728D01*
X184085591Y-85517037D01*
X184022007Y-85534075D01*
X183907993Y-85599901D01*
X183814901Y-85692993D01*
X183749075Y-85807007D01*
X183732037Y-85870591D01*
X183061818Y-85200372D01*
X183028333Y-85139049D01*
X183028330Y-85139036D01*
X183025499Y-85126015D01*
X183025499Y-85102128D01*
X183019091Y-85042517D01*
X182990926Y-84967002D01*
X182968798Y-84907673D01*
X182968793Y-84907664D01*
X182882547Y-84792455D01*
X182882544Y-84792452D01*
X182767335Y-84706206D01*
X182767328Y-84706202D01*
X182632482Y-84655908D01*
X182632483Y-84655908D01*
X182572883Y-84649501D01*
X182572881Y-84649500D01*
X182572873Y-84649500D01*
X182572864Y-84649500D01*
X180777129Y-84649500D01*
X180777123Y-84649501D01*
X180717516Y-84655908D01*
X180582671Y-84706202D01*
X180582664Y-84706206D01*
X180467455Y-84792452D01*
X180467452Y-84792455D01*
X180381206Y-84907664D01*
X180381202Y-84907671D01*
X180330908Y-85042517D01*
X180324501Y-85102116D01*
X180324500Y-85102135D01*
X150035468Y-85102135D01*
X149973241Y-84910621D01*
X149973239Y-84910618D01*
X149973239Y-84910616D01*
X149878917Y-84725500D01*
X149858870Y-84686155D01*
X149818231Y-84630220D01*
X149710798Y-84482350D01*
X149710794Y-84482345D01*
X149532654Y-84304205D01*
X149532649Y-84304201D01*
X149328848Y-84156132D01*
X149328847Y-84156131D01*
X149328845Y-84156130D01*
X149258747Y-84120413D01*
X149104383Y-84041760D01*
X148864785Y-83963910D01*
X148615962Y-83924500D01*
X148364038Y-83924500D01*
X148239626Y-83944205D01*
X148115214Y-83963910D01*
X147875616Y-84041760D01*
X147651151Y-84156132D01*
X147447350Y-84304201D01*
X147447345Y-84304205D01*
X147269205Y-84482345D01*
X147269201Y-84482350D01*
X147121132Y-84686151D01*
X147006760Y-84910616D01*
X146944534Y-85102128D01*
X146928910Y-85150215D01*
X146889500Y-85399038D01*
X145800500Y-85399038D01*
X145800500Y-81599983D01*
X153449500Y-81599983D01*
X153449500Y-82800001D01*
X153449501Y-82800018D01*
X153460000Y-82902796D01*
X153460001Y-82902799D01*
X153515185Y-83069331D01*
X153515187Y-83069336D01*
X153537135Y-83104920D01*
X153607288Y-83218656D01*
X153731344Y-83342712D01*
X153880666Y-83434814D01*
X154047203Y-83489999D01*
X154149991Y-83500500D01*
X155350008Y-83500499D01*
X155452797Y-83489999D01*
X155619334Y-83434814D01*
X155768656Y-83342712D01*
X155788720Y-83322648D01*
X159949500Y-83322648D01*
X159949500Y-83527351D01*
X159981522Y-83729534D01*
X160044781Y-83924223D01*
X160137715Y-84106613D01*
X160258028Y-84272213D01*
X160402786Y-84416971D01*
X160523226Y-84504474D01*
X160568390Y-84537287D01*
X160684607Y-84596503D01*
X160750776Y-84630218D01*
X160750778Y-84630218D01*
X160750781Y-84630220D01*
X160810119Y-84649500D01*
X160945465Y-84693477D01*
X161025807Y-84706202D01*
X161147648Y-84725500D01*
X161147649Y-84725500D01*
X161352351Y-84725500D01*
X161352352Y-84725500D01*
X161554534Y-84693477D01*
X161749219Y-84630220D01*
X161931610Y-84537287D01*
X162060482Y-84443657D01*
X162097213Y-84416971D01*
X162097215Y-84416968D01*
X162097219Y-84416966D01*
X162241966Y-84272219D01*
X162282550Y-84216358D01*
X162337878Y-84173694D01*
X162407491Y-84167713D01*
X162469287Y-84200318D01*
X162500573Y-84250238D01*
X162515183Y-84294327D01*
X162515187Y-84294336D01*
X162550069Y-84350888D01*
X162607288Y-84443656D01*
X162731344Y-84567712D01*
X162880666Y-84659814D01*
X163047203Y-84714999D01*
X163149991Y-84725500D01*
X164350008Y-84725499D01*
X164452797Y-84714999D01*
X164619334Y-84659814D01*
X164768656Y-84567712D01*
X164892712Y-84443656D01*
X164984814Y-84294334D01*
X165039999Y-84127797D01*
X165050500Y-84025009D01*
X165050499Y-82824992D01*
X165050498Y-82824983D01*
X167192121Y-82824983D01*
X167192121Y-84025001D01*
X167192122Y-84025018D01*
X167202621Y-84127796D01*
X167202622Y-84127799D01*
X167257806Y-84294331D01*
X167257808Y-84294336D01*
X167292690Y-84350888D01*
X167349909Y-84443656D01*
X167473965Y-84567712D01*
X167623287Y-84659814D01*
X167789824Y-84714999D01*
X167892612Y-84725500D01*
X169092629Y-84725499D01*
X169195418Y-84714999D01*
X169361955Y-84659814D01*
X169511277Y-84567712D01*
X169635333Y-84443656D01*
X169727435Y-84294334D01*
X169750723Y-84224054D01*
X169754731Y-84216050D01*
X169772681Y-84196772D01*
X169787676Y-84175116D01*
X169796116Y-84171606D01*
X169802346Y-84164917D01*
X169827870Y-84158404D01*
X169852192Y-84148292D01*
X169868455Y-84148048D01*
X169870046Y-84147643D01*
X169871161Y-84148008D01*
X169875340Y-84147946D01*
X169913146Y-84150921D01*
X170592621Y-83471446D01*
X170592621Y-83477661D01*
X170619880Y-83579394D01*
X170672541Y-83670606D01*
X170747015Y-83745080D01*
X170838227Y-83797741D01*
X170939960Y-83825000D01*
X170946174Y-83825000D01*
X170266697Y-84504474D01*
X170311271Y-84536859D01*
X170493589Y-84629755D01*
X170688203Y-84692990D01*
X170890304Y-84725000D01*
X171094938Y-84725000D01*
X171297038Y-84692990D01*
X171491652Y-84629755D01*
X171673970Y-84536859D01*
X171718542Y-84504474D01*
X171039068Y-83825000D01*
X171045282Y-83825000D01*
X171147015Y-83797741D01*
X171238227Y-83745080D01*
X171312701Y-83670606D01*
X171365362Y-83579394D01*
X171392621Y-83477661D01*
X171392621Y-83471447D01*
X172072095Y-84150921D01*
X172104480Y-84106349D01*
X172197376Y-83924031D01*
X172260611Y-83729417D01*
X172292621Y-83527317D01*
X172292621Y-83322682D01*
X172260611Y-83120582D01*
X172197376Y-82925968D01*
X172104480Y-82743650D01*
X172072095Y-82699077D01*
X172072095Y-82699076D01*
X171392621Y-83378551D01*
X171392621Y-83372339D01*
X171365362Y-83270606D01*
X171312701Y-83179394D01*
X171238227Y-83104920D01*
X171147015Y-83052259D01*
X171045282Y-83025000D01*
X171039067Y-83025000D01*
X171718543Y-82345524D01*
X171718542Y-82345523D01*
X171673980Y-82313147D01*
X171673971Y-82313141D01*
X171491652Y-82220244D01*
X171297038Y-82157009D01*
X171094938Y-82125000D01*
X170890304Y-82125000D01*
X170688203Y-82157009D01*
X170493589Y-82220244D01*
X170311265Y-82313143D01*
X170266698Y-82345523D01*
X170266698Y-82345524D01*
X170946175Y-83025000D01*
X170939960Y-83025000D01*
X170838227Y-83052259D01*
X170747015Y-83104920D01*
X170672541Y-83179394D01*
X170619880Y-83270606D01*
X170592621Y-83372339D01*
X170592621Y-83378553D01*
X169913145Y-82699077D01*
X169875340Y-82702053D01*
X169806962Y-82687689D01*
X169757205Y-82638638D01*
X169754731Y-82633949D01*
X169750722Y-82625942D01*
X169727435Y-82555666D01*
X169635333Y-82406344D01*
X169511277Y-82282288D01*
X169361955Y-82190186D01*
X169195418Y-82135001D01*
X169195416Y-82135000D01*
X169092631Y-82124500D01*
X167892619Y-82124500D01*
X167892602Y-82124501D01*
X167789824Y-82135000D01*
X167789821Y-82135001D01*
X167623289Y-82190185D01*
X167623284Y-82190187D01*
X167473963Y-82282289D01*
X167349910Y-82406342D01*
X167257808Y-82555663D01*
X167257807Y-82555666D01*
X167202622Y-82722203D01*
X167202622Y-82722204D01*
X167202621Y-82722204D01*
X167192121Y-82824983D01*
X165050498Y-82824983D01*
X165039999Y-82722203D01*
X164984814Y-82555666D01*
X164892712Y-82406344D01*
X164768656Y-82282288D01*
X164619334Y-82190186D01*
X164452797Y-82135001D01*
X164452795Y-82135000D01*
X164350010Y-82124500D01*
X163149998Y-82124500D01*
X163149981Y-82124501D01*
X163047203Y-82135000D01*
X163047200Y-82135001D01*
X162880668Y-82190185D01*
X162880663Y-82190187D01*
X162731342Y-82282289D01*
X162607289Y-82406342D01*
X162515187Y-82555663D01*
X162515186Y-82555666D01*
X162507858Y-82577782D01*
X162500575Y-82599760D01*
X162460802Y-82657205D01*
X162396286Y-82684027D01*
X162327510Y-82671712D01*
X162282551Y-82633640D01*
X162241971Y-82577787D01*
X162241967Y-82577782D01*
X162097213Y-82433028D01*
X161931613Y-82312715D01*
X161931612Y-82312714D01*
X161931610Y-82312713D01*
X161871898Y-82282288D01*
X161749223Y-82219781D01*
X161554534Y-82156522D01*
X161379995Y-82128878D01*
X161352352Y-82124500D01*
X161147648Y-82124500D01*
X161123329Y-82128351D01*
X160945465Y-82156522D01*
X160750776Y-82219781D01*
X160568386Y-82312715D01*
X160402786Y-82433028D01*
X160258028Y-82577786D01*
X160137715Y-82743386D01*
X160044781Y-82925776D01*
X159981522Y-83120465D01*
X159949500Y-83322648D01*
X155788720Y-83322648D01*
X155892712Y-83218656D01*
X155984814Y-83069334D01*
X156039999Y-82902797D01*
X156050500Y-82800009D01*
X156050499Y-81599992D01*
X156039999Y-81497203D01*
X155984814Y-81330666D01*
X155892712Y-81181344D01*
X155768656Y-81057288D01*
X155619334Y-80965186D01*
X155557558Y-80944715D01*
X155500115Y-80904943D01*
X155473292Y-80840427D01*
X155472946Y-80817280D01*
X155475921Y-80779473D01*
X154796447Y-80100000D01*
X154802661Y-80100000D01*
X154904394Y-80072741D01*
X154995606Y-80020080D01*
X155070080Y-79945606D01*
X155122741Y-79854394D01*
X155150000Y-79752661D01*
X155150000Y-79746447D01*
X155829474Y-80425921D01*
X155861859Y-80381349D01*
X155954755Y-80199031D01*
X156017990Y-80004417D01*
X156050000Y-79802317D01*
X156050000Y-79597682D01*
X156024259Y-79435165D01*
X156024259Y-79435164D01*
X156021959Y-79420639D01*
X174149000Y-79420639D01*
X174149000Y-79619360D01*
X174180087Y-79815637D01*
X174241493Y-80004629D01*
X174241494Y-80004632D01*
X174331574Y-80181422D01*
X174331713Y-80181694D01*
X174448519Y-80342464D01*
X174589036Y-80482981D01*
X174749806Y-80599787D01*
X174836649Y-80644035D01*
X174926867Y-80690005D01*
X174926870Y-80690006D01*
X175021366Y-80720709D01*
X175115864Y-80751413D01*
X175312139Y-80782500D01*
X175312140Y-80782500D01*
X175510860Y-80782500D01*
X175510861Y-80782500D01*
X175707136Y-80751413D01*
X175896132Y-80690005D01*
X176073194Y-80599787D01*
X176233964Y-80482981D01*
X176374481Y-80342464D01*
X176491287Y-80181694D01*
X176571015Y-80025218D01*
X176618990Y-79974423D01*
X176686811Y-79957628D01*
X176752946Y-79980165D01*
X176791984Y-80025218D01*
X176871713Y-80181694D01*
X176988519Y-80342464D01*
X177129036Y-80482981D01*
X177289806Y-80599787D01*
X177376649Y-80644035D01*
X177466867Y-80690005D01*
X177466870Y-80690006D01*
X177561366Y-80720709D01*
X177655864Y-80751413D01*
X177852139Y-80782500D01*
X177852140Y-80782500D01*
X178050860Y-80782500D01*
X178050861Y-80782500D01*
X178247136Y-80751413D01*
X178436132Y-80690005D01*
X178613194Y-80599787D01*
X178773964Y-80482981D01*
X178914481Y-80342464D01*
X179031287Y-80181694D01*
X179111015Y-80025218D01*
X179158990Y-79974423D01*
X179226811Y-79957628D01*
X179292946Y-79980165D01*
X179331984Y-80025218D01*
X179411713Y-80181694D01*
X179528519Y-80342464D01*
X179669036Y-80482981D01*
X179829806Y-80599787D01*
X179916649Y-80644035D01*
X180006867Y-80690005D01*
X180006870Y-80690006D01*
X180101366Y-80720709D01*
X180195864Y-80751413D01*
X180392139Y-80782500D01*
X180392140Y-80782500D01*
X180590860Y-80782500D01*
X180590861Y-80782500D01*
X180787136Y-80751413D01*
X180976132Y-80690005D01*
X181153194Y-80599787D01*
X181313964Y-80482981D01*
X181454481Y-80342464D01*
X181571287Y-80181694D01*
X181651015Y-80025218D01*
X181698990Y-79974423D01*
X181766811Y-79957628D01*
X181832946Y-79980165D01*
X181871984Y-80025218D01*
X181951713Y-80181694D01*
X182068519Y-80342464D01*
X182209036Y-80482981D01*
X182369806Y-80599787D01*
X182456649Y-80644035D01*
X182546867Y-80690005D01*
X182546870Y-80690006D01*
X182641366Y-80720709D01*
X182735864Y-80751413D01*
X182932139Y-80782500D01*
X182932140Y-80782500D01*
X183130860Y-80782500D01*
X183130861Y-80782500D01*
X183327136Y-80751413D01*
X183516132Y-80690005D01*
X183693194Y-80599787D01*
X183853964Y-80482981D01*
X183994481Y-80342464D01*
X184111287Y-80181694D01*
X184191015Y-80025218D01*
X184238990Y-79974423D01*
X184306811Y-79957628D01*
X184372946Y-79980165D01*
X184411984Y-80025218D01*
X184491713Y-80181694D01*
X184608519Y-80342464D01*
X184749036Y-80482981D01*
X184909806Y-80599787D01*
X184996649Y-80644035D01*
X185086867Y-80690005D01*
X185086870Y-80690006D01*
X185181366Y-80720709D01*
X185275864Y-80751413D01*
X185472139Y-80782500D01*
X185472140Y-80782500D01*
X185670860Y-80782500D01*
X185670861Y-80782500D01*
X185867136Y-80751413D01*
X186056132Y-80690005D01*
X186233194Y-80599787D01*
X186393964Y-80482981D01*
X186534481Y-80342464D01*
X186651287Y-80181694D01*
X186731296Y-80024667D01*
X186779269Y-79973872D01*
X186847090Y-79957077D01*
X186913225Y-79979614D01*
X186952265Y-80024668D01*
X187032141Y-80181432D01*
X187059230Y-80218715D01*
X187059231Y-80218716D01*
X187673852Y-79604094D01*
X187697292Y-79691571D01*
X187755811Y-79792930D01*
X187838570Y-79875689D01*
X187939929Y-79934208D01*
X188027405Y-79957647D01*
X187412783Y-80572268D01*
X187412783Y-80572269D01*
X187450067Y-80599358D01*
X187627062Y-80689542D01*
X187815977Y-80750924D01*
X188012179Y-80782000D01*
X188210821Y-80782000D01*
X188407020Y-80750924D01*
X188407023Y-80750924D01*
X188595937Y-80689542D01*
X188772925Y-80599362D01*
X188810216Y-80572268D01*
X188195595Y-79957647D01*
X188283071Y-79934208D01*
X188384430Y-79875689D01*
X188467189Y-79792930D01*
X188525708Y-79691571D01*
X188549147Y-79604094D01*
X189163768Y-80218715D01*
X189190864Y-80181422D01*
X189270734Y-80024669D01*
X189318708Y-79973872D01*
X189386529Y-79957077D01*
X189452664Y-79979614D01*
X189491703Y-80024667D01*
X189571713Y-80181694D01*
X189688519Y-80342464D01*
X189829036Y-80482981D01*
X189989806Y-80599787D01*
X190076649Y-80644035D01*
X190166867Y-80690005D01*
X190166870Y-80690006D01*
X190261366Y-80720709D01*
X190355864Y-80751413D01*
X190552139Y-80782500D01*
X190552140Y-80782500D01*
X190750860Y-80782500D01*
X190750861Y-80782500D01*
X190947136Y-80751413D01*
X191136132Y-80690005D01*
X191313194Y-80599787D01*
X191473964Y-80482981D01*
X191614481Y-80342464D01*
X191731287Y-80181694D01*
X191821505Y-80004632D01*
X191882913Y-79815636D01*
X191914000Y-79619361D01*
X191914000Y-79420639D01*
X191882913Y-79224364D01*
X191821505Y-79035368D01*
X191821505Y-79035367D01*
X191775535Y-78945149D01*
X191731287Y-78858306D01*
X191614481Y-78697536D01*
X191473964Y-78557019D01*
X191313194Y-78440213D01*
X191297093Y-78432009D01*
X191136132Y-78349994D01*
X191136129Y-78349993D01*
X190947137Y-78288587D01*
X190848998Y-78273043D01*
X190750861Y-78257500D01*
X190552139Y-78257500D01*
X190486714Y-78267862D01*
X190355862Y-78288587D01*
X190166870Y-78349993D01*
X190166867Y-78349994D01*
X189989805Y-78440213D01*
X189829033Y-78557021D01*
X189688521Y-78697533D01*
X189571713Y-78858305D01*
X189491704Y-79015331D01*
X189443729Y-79066127D01*
X189375908Y-79082922D01*
X189309773Y-79060384D01*
X189270734Y-79015331D01*
X189190858Y-78858567D01*
X189163768Y-78821283D01*
X188549147Y-79435904D01*
X188525708Y-79348429D01*
X188467189Y-79247070D01*
X188384430Y-79164311D01*
X188283071Y-79105792D01*
X188195594Y-79082352D01*
X188810216Y-78467731D01*
X188810215Y-78467730D01*
X188772932Y-78440641D01*
X188595937Y-78350457D01*
X188407022Y-78289075D01*
X188210821Y-78258000D01*
X188012179Y-78258000D01*
X187815979Y-78289075D01*
X187815976Y-78289075D01*
X187627062Y-78350457D01*
X187450064Y-78440643D01*
X187412783Y-78467729D01*
X187412782Y-78467730D01*
X188027406Y-79082352D01*
X187939929Y-79105792D01*
X187838570Y-79164311D01*
X187755811Y-79247070D01*
X187697292Y-79348429D01*
X187673852Y-79435905D01*
X187059230Y-78821282D01*
X187059229Y-78821283D01*
X187032141Y-78858566D01*
X186952264Y-79015332D01*
X186904290Y-79066127D01*
X186836469Y-79082922D01*
X186770334Y-79060384D01*
X186731296Y-79015332D01*
X186651287Y-78858306D01*
X186534481Y-78697536D01*
X186393964Y-78557019D01*
X186233194Y-78440213D01*
X186217093Y-78432009D01*
X186056132Y-78349994D01*
X186056129Y-78349993D01*
X185867137Y-78288587D01*
X185768998Y-78273043D01*
X185670861Y-78257500D01*
X185472139Y-78257500D01*
X185406714Y-78267862D01*
X185275862Y-78288587D01*
X185086870Y-78349993D01*
X185086867Y-78349994D01*
X184909805Y-78440213D01*
X184749033Y-78557021D01*
X184608521Y-78697533D01*
X184491713Y-78858305D01*
X184411985Y-79014780D01*
X184364010Y-79065576D01*
X184296189Y-79082371D01*
X184230054Y-79059833D01*
X184191015Y-79014780D01*
X184170275Y-78974076D01*
X184111287Y-78858306D01*
X183994481Y-78697536D01*
X183853964Y-78557019D01*
X183693194Y-78440213D01*
X183677093Y-78432009D01*
X183516132Y-78349994D01*
X183516129Y-78349993D01*
X183327137Y-78288587D01*
X183228998Y-78273043D01*
X183130861Y-78257500D01*
X182932139Y-78257500D01*
X182866714Y-78267862D01*
X182735862Y-78288587D01*
X182546870Y-78349993D01*
X182546867Y-78349994D01*
X182369805Y-78440213D01*
X182209033Y-78557021D01*
X182068521Y-78697533D01*
X181951713Y-78858305D01*
X181871985Y-79014780D01*
X181824010Y-79065576D01*
X181756189Y-79082371D01*
X181690054Y-79059833D01*
X181651015Y-79014780D01*
X181630275Y-78974076D01*
X181571287Y-78858306D01*
X181454481Y-78697536D01*
X181313964Y-78557019D01*
X181153194Y-78440213D01*
X181137093Y-78432009D01*
X180976132Y-78349994D01*
X180976129Y-78349993D01*
X180787137Y-78288587D01*
X180688998Y-78273043D01*
X180590861Y-78257500D01*
X180392139Y-78257500D01*
X180326714Y-78267862D01*
X180195862Y-78288587D01*
X180006870Y-78349993D01*
X180006867Y-78349994D01*
X179829805Y-78440213D01*
X179669033Y-78557021D01*
X179528521Y-78697533D01*
X179411713Y-78858305D01*
X179331985Y-79014780D01*
X179284010Y-79065576D01*
X179216189Y-79082371D01*
X179150054Y-79059833D01*
X179111015Y-79014780D01*
X179090275Y-78974076D01*
X179031287Y-78858306D01*
X178914481Y-78697536D01*
X178773964Y-78557019D01*
X178613194Y-78440213D01*
X178597093Y-78432009D01*
X178436132Y-78349994D01*
X178436129Y-78349993D01*
X178247137Y-78288587D01*
X178148998Y-78273043D01*
X178050861Y-78257500D01*
X177852139Y-78257500D01*
X177786714Y-78267862D01*
X177655862Y-78288587D01*
X177466870Y-78349993D01*
X177466867Y-78349994D01*
X177289805Y-78440213D01*
X177129033Y-78557021D01*
X176988521Y-78697533D01*
X176871713Y-78858305D01*
X176791985Y-79014780D01*
X176744010Y-79065576D01*
X176676189Y-79082371D01*
X176610054Y-79059833D01*
X176571015Y-79014780D01*
X176550275Y-78974076D01*
X176491287Y-78858306D01*
X176374481Y-78697536D01*
X176233964Y-78557019D01*
X176073194Y-78440213D01*
X176057093Y-78432009D01*
X175896132Y-78349994D01*
X175896129Y-78349993D01*
X175707137Y-78288587D01*
X175608998Y-78273043D01*
X175510861Y-78257500D01*
X175312139Y-78257500D01*
X175246714Y-78267862D01*
X175115862Y-78288587D01*
X174926870Y-78349993D01*
X174926867Y-78349994D01*
X174749805Y-78440213D01*
X174589033Y-78557021D01*
X174448521Y-78697533D01*
X174331713Y-78858305D01*
X174241494Y-79035367D01*
X174241493Y-79035370D01*
X174180087Y-79224362D01*
X174149000Y-79420639D01*
X156021959Y-79420639D01*
X156017990Y-79395582D01*
X155954755Y-79200968D01*
X155861859Y-79018650D01*
X155829474Y-78974077D01*
X155829474Y-78974076D01*
X155150000Y-79653551D01*
X155150000Y-79647339D01*
X155122741Y-79545606D01*
X155070080Y-79454394D01*
X154995606Y-79379920D01*
X154904394Y-79327259D01*
X154802661Y-79300000D01*
X154796446Y-79300000D01*
X155475922Y-78620524D01*
X155475921Y-78620523D01*
X155431359Y-78588147D01*
X155431350Y-78588141D01*
X155249031Y-78495244D01*
X155054417Y-78432009D01*
X154852317Y-78400000D01*
X154647683Y-78400000D01*
X154445582Y-78432009D01*
X154250968Y-78495244D01*
X154068644Y-78588143D01*
X154024077Y-78620523D01*
X154024077Y-78620524D01*
X154703554Y-79300000D01*
X154697339Y-79300000D01*
X154595606Y-79327259D01*
X154504394Y-79379920D01*
X154429920Y-79454394D01*
X154377259Y-79545606D01*
X154350000Y-79647339D01*
X154350000Y-79653553D01*
X153670524Y-78974077D01*
X153670523Y-78974077D01*
X153638143Y-79018644D01*
X153545244Y-79200968D01*
X153482009Y-79395582D01*
X153450000Y-79597682D01*
X153450000Y-79802317D01*
X153482009Y-80004417D01*
X153545244Y-80199031D01*
X153638141Y-80381350D01*
X153638147Y-80381359D01*
X153670523Y-80425921D01*
X153670524Y-80425922D01*
X154350000Y-79746446D01*
X154350000Y-79752661D01*
X154377259Y-79854394D01*
X154429920Y-79945606D01*
X154504394Y-80020080D01*
X154595606Y-80072741D01*
X154697339Y-80100000D01*
X154703553Y-80100000D01*
X154024076Y-80779474D01*
X154027052Y-80817282D01*
X154012687Y-80885659D01*
X153963636Y-80935415D01*
X153942440Y-80944715D01*
X153880672Y-80965184D01*
X153880663Y-80965187D01*
X153731342Y-81057289D01*
X153607289Y-81181342D01*
X153515187Y-81330663D01*
X153515186Y-81330666D01*
X153460001Y-81497203D01*
X153460001Y-81497204D01*
X153460000Y-81497204D01*
X153449500Y-81599983D01*
X145800500Y-81599983D01*
X145800500Y-67189983D01*
X147189500Y-67189983D01*
X147189500Y-68390001D01*
X147189501Y-68390018D01*
X147200000Y-68492796D01*
X147200001Y-68492799D01*
X147247856Y-68637213D01*
X147255186Y-68659334D01*
X147347288Y-68808656D01*
X147471344Y-68932712D01*
X147620666Y-69024814D01*
X147702570Y-69051954D01*
X147760015Y-69091727D01*
X147786838Y-69156243D01*
X147774523Y-69225018D01*
X147736451Y-69269978D01*
X147642787Y-69338028D01*
X147642782Y-69338032D01*
X147498028Y-69482786D01*
X147377715Y-69648386D01*
X147284781Y-69830776D01*
X147221522Y-70025465D01*
X147189500Y-70227648D01*
X147189500Y-70432351D01*
X147221522Y-70634534D01*
X147284781Y-70829223D01*
X147377715Y-71011613D01*
X147498028Y-71177213D01*
X147642786Y-71321971D01*
X147797749Y-71434556D01*
X147808390Y-71442287D01*
X147899840Y-71488883D01*
X147901080Y-71489515D01*
X147951876Y-71537490D01*
X147968671Y-71605311D01*
X147946134Y-71671446D01*
X147901080Y-71710485D01*
X147808386Y-71757715D01*
X147642786Y-71878028D01*
X147498028Y-72022786D01*
X147377715Y-72188386D01*
X147284781Y-72370776D01*
X147221522Y-72565465D01*
X147189500Y-72767648D01*
X147189500Y-72972351D01*
X147221522Y-73174534D01*
X147284781Y-73369223D01*
X147377715Y-73551613D01*
X147498028Y-73717213D01*
X147642786Y-73861971D01*
X147808385Y-73982284D01*
X147808387Y-73982285D01*
X147808390Y-73982287D01*
X147901080Y-74029515D01*
X147901630Y-74029795D01*
X147952426Y-74077770D01*
X147969221Y-74145591D01*
X147946684Y-74211725D01*
X147901630Y-74250765D01*
X147808644Y-74298143D01*
X147764077Y-74330523D01*
X147764077Y-74330524D01*
X148443554Y-75010000D01*
X148437339Y-75010000D01*
X148335606Y-75037259D01*
X148244394Y-75089920D01*
X148169920Y-75164394D01*
X148117259Y-75255606D01*
X148090000Y-75357339D01*
X148090000Y-75363553D01*
X147410524Y-74684077D01*
X147410523Y-74684077D01*
X147378143Y-74728644D01*
X147285244Y-74910968D01*
X147222009Y-75105582D01*
X147190000Y-75307682D01*
X147190000Y-75512317D01*
X147222009Y-75714417D01*
X147285244Y-75909031D01*
X147378141Y-76091350D01*
X147378147Y-76091359D01*
X147410523Y-76135921D01*
X147410524Y-76135922D01*
X148090000Y-75456446D01*
X148090000Y-75462661D01*
X148117259Y-75564394D01*
X148169920Y-75655606D01*
X148244394Y-75730080D01*
X148335606Y-75782741D01*
X148437339Y-75810000D01*
X148443553Y-75810000D01*
X147764076Y-76489474D01*
X147808650Y-76521859D01*
X147990968Y-76614755D01*
X148185582Y-76677990D01*
X148387683Y-76710000D01*
X148592317Y-76710000D01*
X148794417Y-76677990D01*
X148989031Y-76614755D01*
X149171349Y-76521859D01*
X149215921Y-76489474D01*
X148536447Y-75810000D01*
X148542661Y-75810000D01*
X148644394Y-75782741D01*
X148735606Y-75730080D01*
X148810080Y-75655606D01*
X148862741Y-75564394D01*
X148890000Y-75462661D01*
X148890000Y-75456447D01*
X149569474Y-76135921D01*
X149601859Y-76091349D01*
X149694755Y-75909031D01*
X149757990Y-75714417D01*
X149790000Y-75512317D01*
X149790000Y-75307682D01*
X149757990Y-75105582D01*
X149694755Y-74910968D01*
X149601859Y-74728650D01*
X149569474Y-74684077D01*
X149569474Y-74684076D01*
X148890000Y-75363551D01*
X148890000Y-75357339D01*
X148862741Y-75255606D01*
X148810080Y-75164394D01*
X148735606Y-75089920D01*
X148644394Y-75037259D01*
X148542661Y-75010000D01*
X148536446Y-75010000D01*
X149215922Y-74330524D01*
X149215921Y-74330523D01*
X149171359Y-74298147D01*
X149171350Y-74298141D01*
X149078369Y-74250765D01*
X149027573Y-74202790D01*
X149010778Y-74134969D01*
X149033315Y-74068835D01*
X149078370Y-74029795D01*
X149078920Y-74029515D01*
X149171610Y-73982287D01*
X149221144Y-73946298D01*
X149337213Y-73861971D01*
X149337215Y-73861968D01*
X149337219Y-73861966D01*
X149481966Y-73717219D01*
X149481968Y-73717215D01*
X149481971Y-73717213D01*
X149534732Y-73644590D01*
X149602287Y-73551610D01*
X149695220Y-73369219D01*
X149758477Y-73174534D01*
X149790500Y-72972352D01*
X149790500Y-72767648D01*
X149758477Y-72565466D01*
X149695220Y-72370781D01*
X149695218Y-72370778D01*
X149695218Y-72370776D01*
X149661503Y-72304607D01*
X149602287Y-72188390D01*
X149594556Y-72177749D01*
X149481971Y-72022786D01*
X149337213Y-71878028D01*
X149171614Y-71757715D01*
X149165006Y-71754348D01*
X149078917Y-71710483D01*
X149028123Y-71662511D01*
X149011328Y-71594690D01*
X149033865Y-71528555D01*
X149078917Y-71489516D01*
X149171610Y-71442287D01*
X149192770Y-71426913D01*
X149337213Y-71321971D01*
X149337215Y-71321968D01*
X149337219Y-71321966D01*
X149481966Y-71177219D01*
X149481968Y-71177215D01*
X149481971Y-71177213D01*
X149534732Y-71104590D01*
X149602287Y-71011610D01*
X149695220Y-70829219D01*
X149758477Y-70634534D01*
X149790500Y-70432352D01*
X149790500Y-70227648D01*
X149758477Y-70025466D01*
X149695220Y-69830781D01*
X149695218Y-69830778D01*
X149695218Y-69830776D01*
X149661503Y-69764607D01*
X149602287Y-69648390D01*
X149594556Y-69637749D01*
X149481971Y-69482786D01*
X149337219Y-69338034D01*
X149337211Y-69338028D01*
X149243547Y-69269978D01*
X149200882Y-69214649D01*
X149194903Y-69145036D01*
X149227508Y-69083240D01*
X149277426Y-69051955D01*
X149359334Y-69024814D01*
X149508656Y-68932712D01*
X149632712Y-68808656D01*
X149724814Y-68659334D01*
X149779999Y-68492797D01*
X149790500Y-68390009D01*
X149790499Y-67687648D01*
X154809500Y-67687648D01*
X154809500Y-67892351D01*
X154841522Y-68094534D01*
X154904781Y-68289223D01*
X154997715Y-68471613D01*
X155118028Y-68637213D01*
X155262786Y-68781971D01*
X155417749Y-68894556D01*
X155428390Y-68902287D01*
X155519840Y-68948883D01*
X155521080Y-68949515D01*
X155571876Y-68997490D01*
X155588671Y-69065311D01*
X155566134Y-69131446D01*
X155521080Y-69170485D01*
X155428386Y-69217715D01*
X155262786Y-69338028D01*
X155118028Y-69482786D01*
X154997715Y-69648386D01*
X154904781Y-69830776D01*
X154841522Y-70025465D01*
X154809500Y-70227648D01*
X154809500Y-70432351D01*
X154841522Y-70634534D01*
X154904781Y-70829223D01*
X154997715Y-71011613D01*
X155118028Y-71177213D01*
X155262786Y-71321971D01*
X155417749Y-71434556D01*
X155428390Y-71442287D01*
X155519840Y-71488883D01*
X155521080Y-71489515D01*
X155571876Y-71537490D01*
X155588671Y-71605311D01*
X155566134Y-71671446D01*
X155521080Y-71710485D01*
X155428386Y-71757715D01*
X155262786Y-71878028D01*
X155118028Y-72022786D01*
X154997715Y-72188386D01*
X154904781Y-72370776D01*
X154841522Y-72565465D01*
X154809500Y-72767648D01*
X154809500Y-72972351D01*
X154841522Y-73174534D01*
X154904781Y-73369223D01*
X154997715Y-73551613D01*
X155118028Y-73717213D01*
X155262786Y-73861971D01*
X155417749Y-73974556D01*
X155428390Y-73982287D01*
X155519840Y-74028883D01*
X155521080Y-74029515D01*
X155571876Y-74077490D01*
X155588671Y-74145311D01*
X155566134Y-74211446D01*
X155521080Y-74250485D01*
X155428386Y-74297715D01*
X155262786Y-74418028D01*
X155118028Y-74562786D01*
X154997715Y-74728386D01*
X154904781Y-74910776D01*
X154841522Y-75105465D01*
X154809500Y-75307648D01*
X154809500Y-75512351D01*
X154841522Y-75714534D01*
X154904781Y-75909223D01*
X154968691Y-76034653D01*
X154997585Y-76091359D01*
X154997715Y-76091613D01*
X155118028Y-76257213D01*
X155262786Y-76401971D01*
X155383226Y-76489474D01*
X155428390Y-76522287D01*
X155544607Y-76581503D01*
X155610776Y-76615218D01*
X155610778Y-76615218D01*
X155610781Y-76615220D01*
X155715137Y-76649127D01*
X155805465Y-76678477D01*
X155906557Y-76694488D01*
X156007648Y-76710500D01*
X156007649Y-76710500D01*
X156212351Y-76710500D01*
X156212352Y-76710500D01*
X156414534Y-76678477D01*
X156609219Y-76615220D01*
X156791610Y-76522287D01*
X156884590Y-76454732D01*
X156957213Y-76401971D01*
X156957215Y-76401968D01*
X156957219Y-76401966D01*
X157101966Y-76257219D01*
X157101968Y-76257215D01*
X157101971Y-76257213D01*
X157154732Y-76184590D01*
X157222287Y-76091610D01*
X157315220Y-75909219D01*
X157378477Y-75714534D01*
X157410500Y-75512352D01*
X157410500Y-75307648D01*
X157402257Y-75255606D01*
X157378477Y-75105465D01*
X157347458Y-75010000D01*
X157315220Y-74910781D01*
X157315218Y-74910778D01*
X157315218Y-74910776D01*
X157222419Y-74728650D01*
X157222287Y-74728390D01*
X157190092Y-74684077D01*
X157101971Y-74562786D01*
X156957213Y-74418028D01*
X156791614Y-74297715D01*
X156785006Y-74294348D01*
X156698917Y-74250483D01*
X156648123Y-74202511D01*
X156631328Y-74134690D01*
X156653865Y-74068555D01*
X156698917Y-74029516D01*
X156791610Y-73982287D01*
X156812770Y-73966913D01*
X156957213Y-73861971D01*
X156957215Y-73861968D01*
X156957219Y-73861966D01*
X157101966Y-73717219D01*
X157101968Y-73717215D01*
X157101971Y-73717213D01*
X157154732Y-73644590D01*
X157222287Y-73551610D01*
X157315220Y-73369219D01*
X157378477Y-73174534D01*
X157410500Y-72972352D01*
X157410500Y-72767648D01*
X157378477Y-72565466D01*
X157315220Y-72370781D01*
X157315218Y-72370778D01*
X157315218Y-72370776D01*
X157281503Y-72304607D01*
X157222287Y-72188390D01*
X157214556Y-72177749D01*
X157101971Y-72022786D01*
X156957213Y-71878028D01*
X156791614Y-71757715D01*
X156785006Y-71754348D01*
X156698917Y-71710483D01*
X156648123Y-71662511D01*
X156631328Y-71594690D01*
X156653865Y-71528555D01*
X156698917Y-71489516D01*
X156791610Y-71442287D01*
X156812770Y-71426913D01*
X156957213Y-71321971D01*
X156957215Y-71321968D01*
X156957219Y-71321966D01*
X157101966Y-71177219D01*
X157101968Y-71177215D01*
X157101971Y-71177213D01*
X157154732Y-71104590D01*
X157222287Y-71011610D01*
X157315220Y-70829219D01*
X157378477Y-70634534D01*
X157410500Y-70432352D01*
X157410500Y-70227648D01*
X157378477Y-70025466D01*
X157315220Y-69830781D01*
X157315218Y-69830778D01*
X157315218Y-69830776D01*
X157281503Y-69764607D01*
X157222287Y-69648390D01*
X157214556Y-69637749D01*
X157101971Y-69482786D01*
X156957213Y-69338028D01*
X156791614Y-69217715D01*
X156785006Y-69214348D01*
X156698917Y-69170483D01*
X156648123Y-69122511D01*
X156631328Y-69054690D01*
X156653865Y-68988555D01*
X156698917Y-68949516D01*
X156791610Y-68902287D01*
X156920482Y-68808657D01*
X156957213Y-68781971D01*
X156957215Y-68781968D01*
X156957219Y-68781966D01*
X157101966Y-68637219D01*
X157101968Y-68637215D01*
X157101971Y-68637213D01*
X157206892Y-68492799D01*
X157222287Y-68471610D01*
X157315220Y-68289219D01*
X157378477Y-68094534D01*
X157410500Y-67892352D01*
X157410500Y-67687648D01*
X157378477Y-67485466D01*
X157315220Y-67290781D01*
X157315218Y-67290778D01*
X157315218Y-67290776D01*
X157263865Y-67189991D01*
X157222287Y-67108390D01*
X157206892Y-67087200D01*
X157101971Y-66942786D01*
X156957213Y-66798028D01*
X156791613Y-66677715D01*
X156791612Y-66677714D01*
X156791610Y-66677713D01*
X156731898Y-66647288D01*
X156609223Y-66584781D01*
X156414534Y-66521522D01*
X156239995Y-66493878D01*
X156212352Y-66489500D01*
X156007648Y-66489500D01*
X155983329Y-66493351D01*
X155805465Y-66521522D01*
X155610776Y-66584781D01*
X155428386Y-66677715D01*
X155262786Y-66798028D01*
X155118028Y-66942786D01*
X154997715Y-67108386D01*
X154904781Y-67290776D01*
X154841522Y-67485465D01*
X154809500Y-67687648D01*
X149790499Y-67687648D01*
X149790499Y-67189992D01*
X149779999Y-67087203D01*
X149724814Y-66920666D01*
X149632712Y-66771344D01*
X149508656Y-66647288D01*
X149359334Y-66555186D01*
X149192797Y-66500001D01*
X149192795Y-66500000D01*
X149090010Y-66489500D01*
X147889998Y-66489500D01*
X147889981Y-66489501D01*
X147787203Y-66500000D01*
X147787200Y-66500001D01*
X147620668Y-66555185D01*
X147620663Y-66555187D01*
X147471342Y-66647289D01*
X147347289Y-66771342D01*
X147255187Y-66920663D01*
X147255186Y-66920666D01*
X147200001Y-67087203D01*
X147200001Y-67087204D01*
X147200000Y-67087204D01*
X147189500Y-67189983D01*
X145800500Y-67189983D01*
X145800500Y-64180639D01*
X174149000Y-64180639D01*
X174149000Y-64379360D01*
X174180087Y-64575637D01*
X174241493Y-64764629D01*
X174241494Y-64764632D01*
X174331713Y-64941694D01*
X174448519Y-65102464D01*
X174589036Y-65242981D01*
X174749806Y-65359787D01*
X174836649Y-65404035D01*
X174926867Y-65450005D01*
X174926870Y-65450006D01*
X175021366Y-65480709D01*
X175115864Y-65511413D01*
X175312139Y-65542500D01*
X175312140Y-65542500D01*
X175510860Y-65542500D01*
X175510861Y-65542500D01*
X175707136Y-65511413D01*
X175896132Y-65450005D01*
X176073194Y-65359787D01*
X176233964Y-65242981D01*
X176374481Y-65102464D01*
X176491287Y-64941694D01*
X176571015Y-64785218D01*
X176618990Y-64734423D01*
X176686811Y-64717628D01*
X176752946Y-64740165D01*
X176791984Y-64785218D01*
X176871713Y-64941694D01*
X176988519Y-65102464D01*
X177129036Y-65242981D01*
X177289806Y-65359787D01*
X177376649Y-65404035D01*
X177466867Y-65450005D01*
X177466870Y-65450006D01*
X177561366Y-65480709D01*
X177655864Y-65511413D01*
X177852139Y-65542500D01*
X177852140Y-65542500D01*
X178050860Y-65542500D01*
X178050861Y-65542500D01*
X178247136Y-65511413D01*
X178436132Y-65450005D01*
X178613194Y-65359787D01*
X178773964Y-65242981D01*
X178914481Y-65102464D01*
X179031287Y-64941694D01*
X179111015Y-64785218D01*
X179158990Y-64734423D01*
X179226811Y-64717628D01*
X179292946Y-64740165D01*
X179331984Y-64785218D01*
X179411713Y-64941694D01*
X179528519Y-65102464D01*
X179669036Y-65242981D01*
X179829806Y-65359787D01*
X179916649Y-65404035D01*
X180006867Y-65450005D01*
X180006870Y-65450006D01*
X180101366Y-65480709D01*
X180195864Y-65511413D01*
X180392139Y-65542500D01*
X180392140Y-65542500D01*
X180590860Y-65542500D01*
X180590861Y-65542500D01*
X180787136Y-65511413D01*
X180976132Y-65450005D01*
X181153194Y-65359787D01*
X181313964Y-65242981D01*
X181454481Y-65102464D01*
X181571287Y-64941694D01*
X181651015Y-64785218D01*
X181698990Y-64734423D01*
X181766811Y-64717628D01*
X181832946Y-64740165D01*
X181871984Y-64785218D01*
X181951713Y-64941694D01*
X182068519Y-65102464D01*
X182209036Y-65242981D01*
X182369806Y-65359787D01*
X182456649Y-65404035D01*
X182546867Y-65450005D01*
X182546870Y-65450006D01*
X182641366Y-65480709D01*
X182735864Y-65511413D01*
X182932139Y-65542500D01*
X182932140Y-65542500D01*
X183130860Y-65542500D01*
X183130861Y-65542500D01*
X183327136Y-65511413D01*
X183516132Y-65450005D01*
X183693194Y-65359787D01*
X183853964Y-65242981D01*
X183994481Y-65102464D01*
X184111287Y-64941694D01*
X184191015Y-64785218D01*
X184238990Y-64734423D01*
X184306811Y-64717628D01*
X184372946Y-64740165D01*
X184411984Y-64785218D01*
X184491713Y-64941694D01*
X184608519Y-65102464D01*
X184749036Y-65242981D01*
X184909806Y-65359787D01*
X184996649Y-65404035D01*
X185086867Y-65450005D01*
X185086870Y-65450006D01*
X185181366Y-65480709D01*
X185275864Y-65511413D01*
X185472139Y-65542500D01*
X185472140Y-65542500D01*
X185670860Y-65542500D01*
X185670861Y-65542500D01*
X185867136Y-65511413D01*
X186056132Y-65450005D01*
X186233194Y-65359787D01*
X186393964Y-65242981D01*
X186534481Y-65102464D01*
X186651287Y-64941694D01*
X186731015Y-64785218D01*
X186778990Y-64734423D01*
X186846811Y-64717628D01*
X186912946Y-64740165D01*
X186951984Y-64785218D01*
X187031713Y-64941694D01*
X187148519Y-65102464D01*
X187289036Y-65242981D01*
X187449806Y-65359787D01*
X187536649Y-65404035D01*
X187626867Y-65450005D01*
X187626870Y-65450006D01*
X187721366Y-65480709D01*
X187815864Y-65511413D01*
X188012139Y-65542500D01*
X188012140Y-65542500D01*
X188210860Y-65542500D01*
X188210861Y-65542500D01*
X188407136Y-65511413D01*
X188596132Y-65450005D01*
X188773194Y-65359787D01*
X188933964Y-65242981D01*
X189074481Y-65102464D01*
X189191287Y-64941694D01*
X189271015Y-64785218D01*
X189318990Y-64734423D01*
X189386811Y-64717628D01*
X189452946Y-64740165D01*
X189491984Y-64785218D01*
X189571713Y-64941694D01*
X189688519Y-65102464D01*
X189829036Y-65242981D01*
X189989806Y-65359787D01*
X190076649Y-65404035D01*
X190166867Y-65450005D01*
X190166870Y-65450006D01*
X190261366Y-65480709D01*
X190355864Y-65511413D01*
X190552139Y-65542500D01*
X190552140Y-65542500D01*
X190750860Y-65542500D01*
X190750861Y-65542500D01*
X190947136Y-65511413D01*
X191136132Y-65450005D01*
X191313194Y-65359787D01*
X191473964Y-65242981D01*
X191614481Y-65102464D01*
X191731287Y-64941694D01*
X191821505Y-64764632D01*
X191882913Y-64575636D01*
X191914000Y-64379361D01*
X191914000Y-64180639D01*
X191882913Y-63984364D01*
X191821505Y-63795368D01*
X191821505Y-63795367D01*
X191731286Y-63618305D01*
X191695708Y-63569336D01*
X191614481Y-63457536D01*
X191473964Y-63317019D01*
X191313194Y-63200213D01*
X191310874Y-63199031D01*
X191136132Y-63109994D01*
X191136129Y-63109993D01*
X190947137Y-63048587D01*
X190767150Y-63020080D01*
X190750861Y-63017500D01*
X190552139Y-63017500D01*
X190535850Y-63020080D01*
X190355862Y-63048587D01*
X190166870Y-63109993D01*
X190166867Y-63109994D01*
X189989805Y-63200213D01*
X189829033Y-63317021D01*
X189688521Y-63457533D01*
X189571713Y-63618305D01*
X189491985Y-63774780D01*
X189444010Y-63825576D01*
X189376189Y-63842371D01*
X189310054Y-63819833D01*
X189271015Y-63774780D01*
X189191286Y-63618305D01*
X189155708Y-63569336D01*
X189074481Y-63457536D01*
X188933964Y-63317019D01*
X188773194Y-63200213D01*
X188770874Y-63199031D01*
X188596132Y-63109994D01*
X188596129Y-63109993D01*
X188407137Y-63048587D01*
X188227150Y-63020080D01*
X188210861Y-63017500D01*
X188012139Y-63017500D01*
X187995850Y-63020080D01*
X187815862Y-63048587D01*
X187626870Y-63109993D01*
X187626867Y-63109994D01*
X187449805Y-63200213D01*
X187289033Y-63317021D01*
X187148521Y-63457533D01*
X187031713Y-63618305D01*
X186951985Y-63774780D01*
X186904010Y-63825576D01*
X186836189Y-63842371D01*
X186770054Y-63819833D01*
X186731015Y-63774780D01*
X186651286Y-63618305D01*
X186615708Y-63569336D01*
X186534481Y-63457536D01*
X186393964Y-63317019D01*
X186233194Y-63200213D01*
X186230874Y-63199031D01*
X186056132Y-63109994D01*
X186056129Y-63109993D01*
X185867137Y-63048587D01*
X185687150Y-63020080D01*
X185670861Y-63017500D01*
X185472139Y-63017500D01*
X185455850Y-63020080D01*
X185275862Y-63048587D01*
X185086870Y-63109993D01*
X185086867Y-63109994D01*
X184909805Y-63200213D01*
X184749033Y-63317021D01*
X184608521Y-63457533D01*
X184491713Y-63618305D01*
X184411985Y-63774780D01*
X184364010Y-63825576D01*
X184296189Y-63842371D01*
X184230054Y-63819833D01*
X184191015Y-63774780D01*
X184111286Y-63618305D01*
X184075708Y-63569336D01*
X183994481Y-63457536D01*
X183853964Y-63317019D01*
X183693194Y-63200213D01*
X183690874Y-63199031D01*
X183516132Y-63109994D01*
X183516129Y-63109993D01*
X183327137Y-63048587D01*
X183147150Y-63020080D01*
X183130861Y-63017500D01*
X182932139Y-63017500D01*
X182915850Y-63020080D01*
X182735862Y-63048587D01*
X182546870Y-63109993D01*
X182546867Y-63109994D01*
X182369805Y-63200213D01*
X182209033Y-63317021D01*
X182068521Y-63457533D01*
X181951713Y-63618305D01*
X181871985Y-63774780D01*
X181824010Y-63825576D01*
X181756189Y-63842371D01*
X181690054Y-63819833D01*
X181651015Y-63774780D01*
X181571286Y-63618305D01*
X181535708Y-63569336D01*
X181454481Y-63457536D01*
X181313964Y-63317019D01*
X181153194Y-63200213D01*
X181150874Y-63199031D01*
X180976132Y-63109994D01*
X180976129Y-63109993D01*
X180787137Y-63048587D01*
X180607150Y-63020080D01*
X180590861Y-63017500D01*
X180392139Y-63017500D01*
X180375850Y-63020080D01*
X180195862Y-63048587D01*
X180006870Y-63109993D01*
X180006867Y-63109994D01*
X179829805Y-63200213D01*
X179669033Y-63317021D01*
X179528521Y-63457533D01*
X179411713Y-63618305D01*
X179331985Y-63774780D01*
X179284010Y-63825576D01*
X179216189Y-63842371D01*
X179150054Y-63819833D01*
X179111015Y-63774780D01*
X179031286Y-63618305D01*
X178995708Y-63569336D01*
X178914481Y-63457536D01*
X178773964Y-63317019D01*
X178613194Y-63200213D01*
X178610874Y-63199031D01*
X178436132Y-63109994D01*
X178436129Y-63109993D01*
X178247137Y-63048587D01*
X178067150Y-63020080D01*
X178050861Y-63017500D01*
X177852139Y-63017500D01*
X177835850Y-63020080D01*
X177655862Y-63048587D01*
X177466870Y-63109993D01*
X177466867Y-63109994D01*
X177289805Y-63200213D01*
X177129033Y-63317021D01*
X176988521Y-63457533D01*
X176871713Y-63618305D01*
X176791985Y-63774780D01*
X176744010Y-63825576D01*
X176676189Y-63842371D01*
X176610054Y-63819833D01*
X176571015Y-63774780D01*
X176491286Y-63618305D01*
X176455708Y-63569336D01*
X176374481Y-63457536D01*
X176233964Y-63317019D01*
X176073194Y-63200213D01*
X176070874Y-63199031D01*
X175896132Y-63109994D01*
X175896129Y-63109993D01*
X175707137Y-63048587D01*
X175527150Y-63020080D01*
X175510861Y-63017500D01*
X175312139Y-63017500D01*
X175295850Y-63020080D01*
X175115862Y-63048587D01*
X174926870Y-63109993D01*
X174926867Y-63109994D01*
X174749805Y-63200213D01*
X174589033Y-63317021D01*
X174448521Y-63457533D01*
X174331713Y-63618305D01*
X174241494Y-63795367D01*
X174241493Y-63795370D01*
X174180087Y-63984362D01*
X174149000Y-64180639D01*
X145800500Y-64180639D01*
X145800500Y-62082362D01*
X147999500Y-62082362D01*
X147999500Y-63282380D01*
X147999501Y-63282397D01*
X148010000Y-63385175D01*
X148010001Y-63385178D01*
X148065185Y-63551710D01*
X148065187Y-63551715D01*
X148076056Y-63569336D01*
X148157288Y-63701035D01*
X148281344Y-63825091D01*
X148430666Y-63917193D01*
X148597203Y-63972378D01*
X148699991Y-63982879D01*
X149900008Y-63982878D01*
X150002797Y-63972378D01*
X150169334Y-63917193D01*
X150318656Y-63825091D01*
X150442712Y-63701035D01*
X150534814Y-63551713D01*
X150549426Y-63507616D01*
X150589195Y-63450175D01*
X150653711Y-63423351D01*
X150722487Y-63435665D01*
X150767448Y-63473737D01*
X150808032Y-63529596D01*
X150952786Y-63674350D01*
X151091019Y-63774780D01*
X151118390Y-63794666D01*
X151234607Y-63853882D01*
X151300776Y-63887597D01*
X151300778Y-63887597D01*
X151300781Y-63887599D01*
X151353582Y-63904755D01*
X151495465Y-63950856D01*
X151596557Y-63966867D01*
X151697648Y-63982879D01*
X151697649Y-63982879D01*
X151902351Y-63982879D01*
X151902352Y-63982879D01*
X152104534Y-63950856D01*
X152299219Y-63887599D01*
X152481610Y-63794666D01*
X152610482Y-63701036D01*
X152647213Y-63674350D01*
X152647215Y-63674347D01*
X152647219Y-63674345D01*
X152791966Y-63529598D01*
X152791968Y-63529594D01*
X152791971Y-63529592D01*
X152852263Y-63446606D01*
X152912287Y-63363989D01*
X153005220Y-63181598D01*
X153068477Y-62986913D01*
X153100500Y-62784731D01*
X153100500Y-62580027D01*
X153068477Y-62377845D01*
X153005220Y-62183160D01*
X153005218Y-62183157D01*
X153005217Y-62183152D01*
X152989920Y-62153130D01*
X152989919Y-62153129D01*
X152962839Y-62099983D01*
X155199500Y-62099983D01*
X155199500Y-63300001D01*
X155199501Y-63300018D01*
X155210000Y-63402796D01*
X155210001Y-63402799D01*
X155232857Y-63471772D01*
X155265186Y-63569334D01*
X155357288Y-63718656D01*
X155481344Y-63842712D01*
X155630666Y-63934814D01*
X155797203Y-63989999D01*
X155899991Y-64000500D01*
X157100008Y-64000499D01*
X157202797Y-63989999D01*
X157369334Y-63934814D01*
X157518656Y-63842712D01*
X157642712Y-63718656D01*
X157734814Y-63569334D01*
X157758102Y-63499054D01*
X157762110Y-63491050D01*
X157780060Y-63471772D01*
X157795055Y-63450116D01*
X157803495Y-63446606D01*
X157809725Y-63439917D01*
X157835249Y-63433404D01*
X157859571Y-63423292D01*
X157875834Y-63423048D01*
X157877425Y-63422643D01*
X157878540Y-63423008D01*
X157882719Y-63422946D01*
X157920525Y-63425921D01*
X158600000Y-62746446D01*
X158600000Y-62752661D01*
X158627259Y-62854394D01*
X158679920Y-62945606D01*
X158754394Y-63020080D01*
X158845606Y-63072741D01*
X158947339Y-63100000D01*
X158953553Y-63100000D01*
X158274076Y-63779474D01*
X158318650Y-63811859D01*
X158500968Y-63904755D01*
X158695582Y-63967990D01*
X158897683Y-64000000D01*
X159102317Y-64000000D01*
X159304417Y-63967990D01*
X159499031Y-63904755D01*
X159681349Y-63811859D01*
X159725921Y-63779474D01*
X159046447Y-63100000D01*
X159052661Y-63100000D01*
X159154394Y-63072741D01*
X159245606Y-63020080D01*
X159320080Y-62945606D01*
X159372741Y-62854394D01*
X159400000Y-62752661D01*
X159400000Y-62746447D01*
X160079474Y-63425921D01*
X160111859Y-63381349D01*
X160204755Y-63199031D01*
X160267990Y-63004417D01*
X160300000Y-62802317D01*
X160300000Y-62597682D01*
X160267990Y-62395582D01*
X160204755Y-62200968D01*
X160111859Y-62018650D01*
X160079474Y-61974077D01*
X160079474Y-61974076D01*
X159400000Y-62653551D01*
X159400000Y-62647339D01*
X159372741Y-62545606D01*
X159320080Y-62454394D01*
X159245606Y-62379920D01*
X159154394Y-62327259D01*
X159052661Y-62300000D01*
X159046446Y-62300000D01*
X159725922Y-61620524D01*
X159725921Y-61620523D01*
X159681359Y-61588147D01*
X159681350Y-61588141D01*
X159499031Y-61495244D01*
X159304417Y-61432009D01*
X159102317Y-61400000D01*
X158897683Y-61400000D01*
X158695582Y-61432009D01*
X158500968Y-61495244D01*
X158318644Y-61588143D01*
X158274077Y-61620523D01*
X158274077Y-61620524D01*
X158953554Y-62300000D01*
X158947339Y-62300000D01*
X158845606Y-62327259D01*
X158754394Y-62379920D01*
X158679920Y-62454394D01*
X158627259Y-62545606D01*
X158600000Y-62647339D01*
X158600000Y-62653553D01*
X157920524Y-61974077D01*
X157882719Y-61977053D01*
X157814341Y-61962689D01*
X157764584Y-61913638D01*
X157762110Y-61908949D01*
X157758101Y-61900942D01*
X157734814Y-61830666D01*
X157642712Y-61681344D01*
X157518656Y-61557288D01*
X157388747Y-61477160D01*
X157369336Y-61465187D01*
X157369331Y-61465185D01*
X157316154Y-61447564D01*
X157202797Y-61410001D01*
X157202795Y-61410000D01*
X157100010Y-61399500D01*
X155899998Y-61399500D01*
X155899981Y-61399501D01*
X155797203Y-61410000D01*
X155797200Y-61410001D01*
X155630668Y-61465185D01*
X155630663Y-61465187D01*
X155481342Y-61557289D01*
X155357289Y-61681342D01*
X155265187Y-61830663D01*
X155265185Y-61830668D01*
X155263696Y-61835163D01*
X155210001Y-61997203D01*
X155210001Y-61997204D01*
X155210000Y-61997204D01*
X155199500Y-62099983D01*
X152962839Y-62099983D01*
X152953861Y-62082362D01*
X152912287Y-62000769D01*
X152896894Y-61979582D01*
X152791971Y-61835165D01*
X152647213Y-61690407D01*
X152481613Y-61570094D01*
X152481612Y-61570093D01*
X152481610Y-61570092D01*
X152421898Y-61539667D01*
X152299223Y-61477160D01*
X152104534Y-61413901D01*
X151929995Y-61386257D01*
X151902352Y-61381879D01*
X151697648Y-61381879D01*
X151673329Y-61385730D01*
X151495465Y-61413901D01*
X151300776Y-61477160D01*
X151118386Y-61570094D01*
X150952786Y-61690407D01*
X150808032Y-61835161D01*
X150808031Y-61835163D01*
X150767447Y-61891021D01*
X150712117Y-61933686D01*
X150642503Y-61939664D01*
X150580709Y-61907057D01*
X150549425Y-61857139D01*
X150534814Y-61813045D01*
X150442712Y-61663723D01*
X150318656Y-61539667D01*
X150197904Y-61465187D01*
X150169336Y-61447566D01*
X150169331Y-61447564D01*
X150122389Y-61432009D01*
X150002797Y-61392380D01*
X150002795Y-61392379D01*
X149900010Y-61381879D01*
X148699998Y-61381879D01*
X148699981Y-61381880D01*
X148597203Y-61392379D01*
X148597200Y-61392380D01*
X148430668Y-61447564D01*
X148430663Y-61447566D01*
X148281342Y-61539668D01*
X148157289Y-61663721D01*
X148065187Y-61813042D01*
X148065185Y-61813047D01*
X148059348Y-61830663D01*
X148010001Y-61979582D01*
X148010001Y-61979583D01*
X148010000Y-61979583D01*
X147999500Y-62082362D01*
X145800500Y-62082362D01*
X145800500Y-59338389D01*
X186724500Y-59338389D01*
X186724500Y-59511611D01*
X186751598Y-59682701D01*
X186805127Y-59847445D01*
X186883768Y-60001788D01*
X186985586Y-60141928D01*
X187108072Y-60264414D01*
X187248212Y-60366232D01*
X187402555Y-60444873D01*
X187567299Y-60498402D01*
X187738389Y-60525500D01*
X187738390Y-60525500D01*
X188511610Y-60525500D01*
X188511611Y-60525500D01*
X188682701Y-60498402D01*
X188847445Y-60444873D01*
X189001788Y-60366232D01*
X189141928Y-60264414D01*
X189264414Y-60141928D01*
X189366232Y-60001788D01*
X189444873Y-59847445D01*
X189498402Y-59682701D01*
X189525500Y-59511611D01*
X189525500Y-59338389D01*
X189498402Y-59167299D01*
X189444873Y-59002555D01*
X189366232Y-58848212D01*
X189264414Y-58708072D01*
X189141928Y-58585586D01*
X189001788Y-58483768D01*
X188847445Y-58405127D01*
X188682701Y-58351598D01*
X188682699Y-58351597D01*
X188682698Y-58351597D01*
X188551271Y-58330781D01*
X188511611Y-58324500D01*
X187738389Y-58324500D01*
X187698728Y-58330781D01*
X187567302Y-58351597D01*
X187402552Y-58405128D01*
X187248211Y-58483768D01*
X187190774Y-58525499D01*
X187108072Y-58585586D01*
X187108070Y-58585588D01*
X187108069Y-58585588D01*
X186985588Y-58708069D01*
X186985588Y-58708070D01*
X186985586Y-58708072D01*
X186960781Y-58742213D01*
X186883768Y-58848211D01*
X186805128Y-59002552D01*
X186751597Y-59167302D01*
X186743569Y-59217989D01*
X186724500Y-59338389D01*
X145800500Y-59338389D01*
X145800500Y-57847682D01*
X156800000Y-57847682D01*
X156800000Y-58052317D01*
X156832009Y-58254417D01*
X156895244Y-58449031D01*
X156988141Y-58631350D01*
X156988147Y-58631359D01*
X157020523Y-58675921D01*
X157020524Y-58675922D01*
X157700000Y-57996446D01*
X157700000Y-58002661D01*
X157727259Y-58104394D01*
X157779920Y-58195606D01*
X157854394Y-58270080D01*
X157945606Y-58322741D01*
X158047339Y-58350000D01*
X158053553Y-58350000D01*
X157374076Y-59029474D01*
X157418650Y-59061859D01*
X157600968Y-59154755D01*
X157795582Y-59217990D01*
X157997683Y-59250000D01*
X158202317Y-59250000D01*
X158404418Y-59217989D01*
X158404424Y-59217988D01*
X158411814Y-59215587D01*
X158411816Y-59215586D01*
X158599031Y-59154755D01*
X158781349Y-59061859D01*
X158825921Y-59029474D01*
X158146447Y-58350000D01*
X158152661Y-58350000D01*
X158254394Y-58322741D01*
X158345606Y-58270080D01*
X158420080Y-58195606D01*
X158472741Y-58104394D01*
X158500000Y-58002661D01*
X158500000Y-57996448D01*
X159179474Y-58675922D01*
X159179474Y-58675921D01*
X159211859Y-58631349D01*
X159304755Y-58449031D01*
X159367990Y-58254417D01*
X159400000Y-58052317D01*
X159400000Y-57847682D01*
X159367990Y-57645582D01*
X159304755Y-57450968D01*
X159211859Y-57268650D01*
X159179474Y-57224077D01*
X159179474Y-57224076D01*
X158500000Y-57903551D01*
X158500000Y-57897339D01*
X158472741Y-57795606D01*
X158420080Y-57704394D01*
X158345606Y-57629920D01*
X158254394Y-57577259D01*
X158152661Y-57550000D01*
X158146446Y-57550000D01*
X158825922Y-56870524D01*
X158825921Y-56870523D01*
X158781359Y-56838147D01*
X158781350Y-56838141D01*
X158599031Y-56745244D01*
X158404417Y-56682009D01*
X158202317Y-56650000D01*
X157997683Y-56650000D01*
X157795582Y-56682009D01*
X157600968Y-56745244D01*
X157418644Y-56838143D01*
X157374077Y-56870523D01*
X157374077Y-56870524D01*
X158053554Y-57550000D01*
X158047339Y-57550000D01*
X157945606Y-57577259D01*
X157854394Y-57629920D01*
X157779920Y-57704394D01*
X157727259Y-57795606D01*
X157700000Y-57897339D01*
X157700000Y-57903553D01*
X157020524Y-57224077D01*
X157020523Y-57224077D01*
X156988143Y-57268644D01*
X156895244Y-57450968D01*
X156832009Y-57645582D01*
X156800000Y-57847682D01*
X145800500Y-57847682D01*
X145800500Y-55843753D01*
X147910000Y-55843753D01*
X147910000Y-56056246D01*
X147943242Y-56266127D01*
X147943242Y-56266130D01*
X148008904Y-56468217D01*
X148105375Y-56657550D01*
X148144728Y-56711716D01*
X148777037Y-56079408D01*
X148794075Y-56142993D01*
X148859901Y-56257007D01*
X148952993Y-56350099D01*
X149067007Y-56415925D01*
X149130590Y-56432962D01*
X148498282Y-57065269D01*
X148498282Y-57065270D01*
X148552449Y-57104624D01*
X148741782Y-57201095D01*
X148943870Y-57266757D01*
X149153754Y-57300000D01*
X149366246Y-57300000D01*
X149576127Y-57266757D01*
X149576130Y-57266757D01*
X149778217Y-57201095D01*
X149967554Y-57104622D01*
X150021716Y-57065270D01*
X150021717Y-57065270D01*
X149389408Y-56432962D01*
X149452993Y-56415925D01*
X149567007Y-56350099D01*
X149660099Y-56257007D01*
X149725925Y-56142993D01*
X149742962Y-56079408D01*
X150413181Y-56749628D01*
X150446666Y-56810951D01*
X150449500Y-56837300D01*
X150449500Y-56847865D01*
X150449501Y-56847876D01*
X150455908Y-56907483D01*
X150506202Y-57042328D01*
X150506206Y-57042335D01*
X150592452Y-57157544D01*
X150592455Y-57157547D01*
X150707664Y-57243793D01*
X150707671Y-57243797D01*
X150842517Y-57294091D01*
X150842516Y-57294091D01*
X150849444Y-57294835D01*
X150902127Y-57300500D01*
X152697872Y-57300499D01*
X152757483Y-57294091D01*
X152892331Y-57243796D01*
X153007546Y-57157546D01*
X153093796Y-57042331D01*
X153144091Y-56907483D01*
X153150500Y-56847873D01*
X153150499Y-55052128D01*
X153144091Y-54992517D01*
X153128695Y-54951239D01*
X153093797Y-54857671D01*
X153093793Y-54857664D01*
X153007547Y-54742455D01*
X153007544Y-54742452D01*
X152892335Y-54656206D01*
X152892328Y-54656202D01*
X152757482Y-54605908D01*
X152757483Y-54605908D01*
X152722336Y-54602130D01*
X152697883Y-54599501D01*
X152697881Y-54599500D01*
X152697873Y-54599500D01*
X152697864Y-54599500D01*
X150902129Y-54599500D01*
X150902123Y-54599501D01*
X150842516Y-54605908D01*
X150707671Y-54656202D01*
X150707664Y-54656206D01*
X150592455Y-54742452D01*
X150592452Y-54742455D01*
X150506206Y-54857664D01*
X150506202Y-54857671D01*
X150455908Y-54992517D01*
X150450024Y-55047255D01*
X150449501Y-55052123D01*
X150449500Y-55052135D01*
X150449500Y-55062690D01*
X150429815Y-55129729D01*
X150413181Y-55150371D01*
X149742962Y-55820590D01*
X149725925Y-55757007D01*
X149660099Y-55642993D01*
X149567007Y-55549901D01*
X149452993Y-55484075D01*
X149389409Y-55467037D01*
X150021716Y-54834728D01*
X149967550Y-54795375D01*
X149778217Y-54698904D01*
X149576129Y-54633242D01*
X149366246Y-54600000D01*
X149153754Y-54600000D01*
X148943872Y-54633242D01*
X148943869Y-54633242D01*
X148741782Y-54698904D01*
X148552439Y-54795380D01*
X148498282Y-54834727D01*
X148498282Y-54834728D01*
X149130591Y-55467037D01*
X149067007Y-55484075D01*
X148952993Y-55549901D01*
X148859901Y-55642993D01*
X148794075Y-55757007D01*
X148777037Y-55820591D01*
X148144728Y-55188282D01*
X148144727Y-55188282D01*
X148105380Y-55242439D01*
X148008904Y-55431782D01*
X147943242Y-55633869D01*
X147943242Y-55633872D01*
X147910000Y-55843753D01*
X145800500Y-55843753D01*
X145800500Y-54483713D01*
X161449500Y-54483713D01*
X161449500Y-54696287D01*
X161451927Y-54711610D01*
X161482486Y-54904555D01*
X161482754Y-54906243D01*
X161530157Y-55052135D01*
X161548444Y-55108414D01*
X161644951Y-55297820D01*
X161769890Y-55469786D01*
X161883430Y-55583326D01*
X161916915Y-55644649D01*
X161911931Y-55714341D01*
X161870059Y-55770274D01*
X161839083Y-55787189D01*
X161707669Y-55836203D01*
X161707664Y-55836206D01*
X161592455Y-55922452D01*
X161592452Y-55922455D01*
X161506206Y-56037664D01*
X161506202Y-56037671D01*
X161455908Y-56172517D01*
X161449501Y-56232116D01*
X161449501Y-56232123D01*
X161449500Y-56232135D01*
X161449500Y-58027870D01*
X161449501Y-58027876D01*
X161455908Y-58087483D01*
X161506202Y-58222328D01*
X161506206Y-58222335D01*
X161592452Y-58337544D01*
X161592455Y-58337547D01*
X161707664Y-58423793D01*
X161707671Y-58423797D01*
X161842517Y-58474091D01*
X161842516Y-58474091D01*
X161849444Y-58474835D01*
X161902127Y-58480500D01*
X163697872Y-58480499D01*
X163757483Y-58474091D01*
X163892331Y-58423796D01*
X164007546Y-58337546D01*
X164093796Y-58222331D01*
X164144091Y-58087483D01*
X164150500Y-58027873D01*
X164150500Y-57792648D01*
X165924500Y-57792648D01*
X165924500Y-57997351D01*
X165956522Y-58199534D01*
X166019781Y-58394223D01*
X166112715Y-58576613D01*
X166233028Y-58742213D01*
X166377786Y-58886971D01*
X166532749Y-58999556D01*
X166543390Y-59007287D01*
X166659607Y-59066503D01*
X166725776Y-59100218D01*
X166725778Y-59100218D01*
X166725781Y-59100220D01*
X166830137Y-59134127D01*
X166920465Y-59163477D01*
X167021557Y-59179488D01*
X167122648Y-59195500D01*
X167122649Y-59195500D01*
X167327351Y-59195500D01*
X167327352Y-59195500D01*
X167529534Y-59163477D01*
X167724219Y-59100220D01*
X167906610Y-59007287D01*
X167999590Y-58939732D01*
X168072213Y-58886971D01*
X168072215Y-58886968D01*
X168072219Y-58886966D01*
X168216966Y-58742219D01*
X168216968Y-58742215D01*
X168216971Y-58742213D01*
X168297517Y-58631349D01*
X168337287Y-58576610D01*
X168430220Y-58394219D01*
X168493477Y-58199534D01*
X168525500Y-57997352D01*
X168525500Y-57792648D01*
X168493477Y-57590466D01*
X168430220Y-57395781D01*
X168430218Y-57395778D01*
X168430218Y-57395776D01*
X168378406Y-57294091D01*
X168337287Y-57213390D01*
X168296715Y-57157547D01*
X168216971Y-57047786D01*
X168072213Y-56903028D01*
X167906613Y-56782715D01*
X167906612Y-56782714D01*
X167906610Y-56782713D01*
X167833073Y-56745244D01*
X167724223Y-56689781D01*
X167529534Y-56626522D01*
X167354995Y-56598878D01*
X167327352Y-56594500D01*
X167122648Y-56594500D01*
X167098329Y-56598351D01*
X166920465Y-56626522D01*
X166725776Y-56689781D01*
X166543386Y-56782715D01*
X166377786Y-56903028D01*
X166233028Y-57047786D01*
X166112715Y-57213386D01*
X166019781Y-57395776D01*
X165956522Y-57590465D01*
X165924500Y-57792648D01*
X164150500Y-57792648D01*
X164150499Y-57111611D01*
X164150499Y-56232129D01*
X164150498Y-56232123D01*
X164150497Y-56232116D01*
X164144091Y-56172517D01*
X164133079Y-56142993D01*
X164093797Y-56037671D01*
X164093793Y-56037664D01*
X164007547Y-55922455D01*
X164007544Y-55922452D01*
X163892335Y-55836206D01*
X163892328Y-55836202D01*
X163760917Y-55787189D01*
X163704983Y-55745318D01*
X163680566Y-55679853D01*
X163695418Y-55611580D01*
X163716563Y-55583332D01*
X163830104Y-55469792D01*
X163834014Y-55464411D01*
X163955048Y-55297820D01*
X163955047Y-55297820D01*
X163955051Y-55297816D01*
X164051557Y-55108412D01*
X164117246Y-54906243D01*
X164150500Y-54696287D01*
X164150500Y-54528713D01*
X170574500Y-54528713D01*
X170574500Y-54741286D01*
X170600626Y-54906243D01*
X170607754Y-54951243D01*
X170658822Y-55108414D01*
X170673444Y-55153414D01*
X170769951Y-55342820D01*
X170894890Y-55514786D01*
X171008430Y-55628326D01*
X171041915Y-55689649D01*
X171036931Y-55759341D01*
X170995059Y-55815274D01*
X170964083Y-55832189D01*
X170832669Y-55881203D01*
X170832664Y-55881206D01*
X170717455Y-55967452D01*
X170717452Y-55967455D01*
X170631206Y-56082664D01*
X170631202Y-56082671D01*
X170580908Y-56217517D01*
X170575682Y-56266130D01*
X170574501Y-56277123D01*
X170574500Y-56277135D01*
X170574500Y-58072870D01*
X170574501Y-58072876D01*
X170580908Y-58132483D01*
X170631202Y-58267328D01*
X170631206Y-58267335D01*
X170717452Y-58382544D01*
X170717455Y-58382547D01*
X170832664Y-58468793D01*
X170832671Y-58468797D01*
X170967517Y-58519091D01*
X170967516Y-58519091D01*
X170974444Y-58519835D01*
X171027127Y-58525500D01*
X172822872Y-58525499D01*
X172882483Y-58519091D01*
X173017331Y-58468796D01*
X173132546Y-58382546D01*
X173218796Y-58267331D01*
X173269091Y-58132483D01*
X173275500Y-58072873D01*
X173275499Y-56938389D01*
X183024500Y-56938389D01*
X183024500Y-57111610D01*
X183049372Y-57268650D01*
X183051598Y-57282701D01*
X183105127Y-57447445D01*
X183183768Y-57601788D01*
X183285586Y-57741928D01*
X183408072Y-57864414D01*
X183548212Y-57966232D01*
X183702555Y-58044873D01*
X183867299Y-58098402D01*
X184038389Y-58125500D01*
X184038390Y-58125500D01*
X184211610Y-58125500D01*
X184211611Y-58125500D01*
X184382701Y-58098402D01*
X184547445Y-58044873D01*
X184701788Y-57966232D01*
X184841928Y-57864414D01*
X184964414Y-57741928D01*
X185066232Y-57601788D01*
X185144873Y-57447445D01*
X185198402Y-57282701D01*
X185225500Y-57111611D01*
X185225500Y-56938389D01*
X185198402Y-56767299D01*
X185144873Y-56602555D01*
X185066232Y-56448212D01*
X184964414Y-56308072D01*
X184841928Y-56185586D01*
X184701788Y-56083768D01*
X184547445Y-56005127D01*
X184382701Y-55951598D01*
X184382699Y-55951597D01*
X184382698Y-55951597D01*
X184230508Y-55927493D01*
X184211611Y-55924500D01*
X184038389Y-55924500D01*
X184019492Y-55927493D01*
X183867302Y-55951597D01*
X183702552Y-56005128D01*
X183548211Y-56083768D01*
X183468256Y-56141859D01*
X183408072Y-56185586D01*
X183408070Y-56185588D01*
X183408069Y-56185588D01*
X183285588Y-56308069D01*
X183285588Y-56308070D01*
X183285586Y-56308072D01*
X183241859Y-56368256D01*
X183183768Y-56448211D01*
X183105128Y-56602552D01*
X183051597Y-56767302D01*
X183024500Y-56938389D01*
X173275499Y-56938389D01*
X173275499Y-56277128D01*
X173269091Y-56217517D01*
X173257182Y-56185588D01*
X173218797Y-56082671D01*
X173218793Y-56082664D01*
X173132547Y-55967455D01*
X173132544Y-55967452D01*
X173017335Y-55881206D01*
X173017328Y-55881202D01*
X172885917Y-55832189D01*
X172829983Y-55790318D01*
X172805566Y-55724853D01*
X172820418Y-55656580D01*
X172841563Y-55628332D01*
X172955104Y-55514792D01*
X173080051Y-55342816D01*
X173176557Y-55153412D01*
X173242246Y-54951243D01*
X173275500Y-54741287D01*
X173275500Y-54538389D01*
X181724500Y-54538389D01*
X181724500Y-54711610D01*
X181748803Y-54865059D01*
X181751598Y-54882701D01*
X181805127Y-55047445D01*
X181883768Y-55201788D01*
X181985586Y-55341928D01*
X182108072Y-55464414D01*
X182248212Y-55566232D01*
X182402555Y-55644873D01*
X182567299Y-55698402D01*
X182738389Y-55725500D01*
X182738390Y-55725500D01*
X183511610Y-55725500D01*
X183511611Y-55725500D01*
X183682701Y-55698402D01*
X183847445Y-55644873D01*
X184001788Y-55566232D01*
X184141928Y-55464414D01*
X184264414Y-55341928D01*
X184366232Y-55201788D01*
X184444873Y-55047445D01*
X184498402Y-54882701D01*
X184525500Y-54711611D01*
X184525500Y-54538389D01*
X184525500Y-54538388D01*
X184508565Y-54431462D01*
X184508565Y-54431460D01*
X184501196Y-54384941D01*
X184499621Y-54374999D01*
X188750884Y-54374999D01*
X188750885Y-54375000D01*
X189658014Y-54375000D01*
X189640796Y-54384941D01*
X189584941Y-54440796D01*
X189545445Y-54509205D01*
X189525001Y-54585504D01*
X189525001Y-54664496D01*
X189545445Y-54740795D01*
X189584941Y-54809204D01*
X189640796Y-54865059D01*
X189658014Y-54875000D01*
X188750885Y-54875000D01*
X188752085Y-54882584D01*
X188805591Y-55047255D01*
X188884195Y-55201524D01*
X188985967Y-55341602D01*
X189108397Y-55464032D01*
X189248475Y-55565804D01*
X189402742Y-55644408D01*
X189567415Y-55697914D01*
X189738429Y-55725000D01*
X189781792Y-55725000D01*
X189848831Y-55744685D01*
X189894586Y-55797489D01*
X189904530Y-55866647D01*
X189875505Y-55930203D01*
X189820110Y-55966930D01*
X189818500Y-55967454D01*
X189702552Y-56005128D01*
X189548211Y-56083768D01*
X189468256Y-56141859D01*
X189408072Y-56185586D01*
X189408070Y-56185588D01*
X189408069Y-56185588D01*
X189285588Y-56308069D01*
X189285588Y-56308070D01*
X189285586Y-56308072D01*
X189241859Y-56368256D01*
X189183768Y-56448211D01*
X189105128Y-56602552D01*
X189051597Y-56767302D01*
X189024500Y-56938389D01*
X189024500Y-57111610D01*
X189049372Y-57268650D01*
X189051598Y-57282701D01*
X189105127Y-57447445D01*
X189183768Y-57601788D01*
X189285586Y-57741928D01*
X189408072Y-57864414D01*
X189548212Y-57966232D01*
X189702555Y-58044873D01*
X189867299Y-58098402D01*
X190038389Y-58125500D01*
X190038390Y-58125500D01*
X190211610Y-58125500D01*
X190211611Y-58125500D01*
X190382701Y-58098402D01*
X190547445Y-58044873D01*
X190701788Y-57966232D01*
X190841928Y-57864414D01*
X190964414Y-57741928D01*
X191066232Y-57601788D01*
X191144873Y-57447445D01*
X191198402Y-57282701D01*
X191225500Y-57111611D01*
X191225500Y-56938389D01*
X191198402Y-56767299D01*
X191144873Y-56602555D01*
X191066232Y-56448212D01*
X190964414Y-56308072D01*
X190841928Y-56185586D01*
X190701788Y-56083768D01*
X190547445Y-56005127D01*
X190429889Y-55966930D01*
X190372214Y-55927493D01*
X190345016Y-55863135D01*
X190356931Y-55794288D01*
X190404175Y-55742813D01*
X190468208Y-55725000D01*
X190511571Y-55725000D01*
X190682584Y-55697914D01*
X190847257Y-55644408D01*
X191001524Y-55565804D01*
X191141602Y-55464032D01*
X191264032Y-55341602D01*
X191365804Y-55201524D01*
X191444408Y-55047255D01*
X191497914Y-54882584D01*
X191499115Y-54875000D01*
X190591986Y-54875000D01*
X190609204Y-54865059D01*
X190665059Y-54809204D01*
X190704555Y-54740795D01*
X190724999Y-54664496D01*
X190724999Y-54585504D01*
X190704555Y-54509205D01*
X190665059Y-54440796D01*
X190609204Y-54384941D01*
X190591986Y-54375000D01*
X191499115Y-54375000D01*
X191499115Y-54374999D01*
X191497914Y-54367415D01*
X191444408Y-54202744D01*
X191365804Y-54048475D01*
X191264032Y-53908397D01*
X191141602Y-53785967D01*
X191001524Y-53684195D01*
X190847257Y-53605591D01*
X190682584Y-53552085D01*
X190511571Y-53525000D01*
X190375000Y-53525000D01*
X190375000Y-54325001D01*
X189875000Y-54325001D01*
X189875000Y-53525000D01*
X189738429Y-53525000D01*
X189567415Y-53552085D01*
X189402742Y-53605591D01*
X189248475Y-53684195D01*
X189108397Y-53785967D01*
X188985967Y-53908397D01*
X188884195Y-54048475D01*
X188805591Y-54202744D01*
X188752085Y-54367415D01*
X188750884Y-54374999D01*
X184499621Y-54374999D01*
X184498402Y-54367299D01*
X184444873Y-54202555D01*
X184366232Y-54048212D01*
X184264414Y-53908072D01*
X184141928Y-53785586D01*
X184001788Y-53683768D01*
X183847445Y-53605127D01*
X183682701Y-53551598D01*
X183682699Y-53551597D01*
X183682698Y-53551597D01*
X183551271Y-53530781D01*
X183511611Y-53524500D01*
X182738389Y-53524500D01*
X182698728Y-53530781D01*
X182567302Y-53551597D01*
X182402552Y-53605128D01*
X182248211Y-53683768D01*
X182168256Y-53741859D01*
X182108072Y-53785586D01*
X182108070Y-53785588D01*
X182108069Y-53785588D01*
X181985588Y-53908069D01*
X181985588Y-53908070D01*
X181985586Y-53908072D01*
X181941859Y-53968256D01*
X181883768Y-54048211D01*
X181805128Y-54202552D01*
X181751597Y-54367302D01*
X181724500Y-54538389D01*
X173275500Y-54538389D01*
X173275500Y-54528713D01*
X173242246Y-54318757D01*
X173176557Y-54116588D01*
X173080051Y-53927184D01*
X173080049Y-53927181D01*
X173080048Y-53927179D01*
X172955109Y-53755213D01*
X172804786Y-53604890D01*
X172632817Y-53479949D01*
X172623504Y-53475204D01*
X172572707Y-53427230D01*
X172555912Y-53359409D01*
X172578449Y-53293274D01*
X172623507Y-53254232D01*
X172632555Y-53249622D01*
X172686716Y-53210270D01*
X172686717Y-53210270D01*
X172054408Y-52577962D01*
X172117993Y-52560925D01*
X172232007Y-52495099D01*
X172325099Y-52402007D01*
X172390925Y-52287993D01*
X172407962Y-52224409D01*
X173040270Y-52856717D01*
X173040270Y-52856716D01*
X173079622Y-52802554D01*
X173176095Y-52613217D01*
X173241757Y-52411130D01*
X173241757Y-52411127D01*
X173275000Y-52201246D01*
X173275000Y-51988753D01*
X173241757Y-51778872D01*
X173241757Y-51778869D01*
X173195647Y-51636956D01*
X173176095Y-51576782D01*
X173079624Y-51387449D01*
X173040270Y-51333282D01*
X173040269Y-51333282D01*
X172407962Y-51965590D01*
X172390925Y-51902007D01*
X172325099Y-51787993D01*
X172232007Y-51694901D01*
X172117993Y-51629075D01*
X172054409Y-51612037D01*
X172686716Y-50979728D01*
X172632550Y-50940375D01*
X172443217Y-50843904D01*
X172241129Y-50778242D01*
X172031246Y-50745000D01*
X171818754Y-50745000D01*
X171608872Y-50778242D01*
X171608869Y-50778242D01*
X171406782Y-50843904D01*
X171217439Y-50940380D01*
X171163282Y-50979727D01*
X171163282Y-50979728D01*
X171795591Y-51612037D01*
X171732007Y-51629075D01*
X171617993Y-51694901D01*
X171524901Y-51787993D01*
X171459075Y-51902007D01*
X171442037Y-51965591D01*
X170809728Y-51333282D01*
X170809727Y-51333282D01*
X170770380Y-51387439D01*
X170673904Y-51576782D01*
X170608242Y-51778869D01*
X170608242Y-51778872D01*
X170575000Y-51988753D01*
X170575000Y-52201246D01*
X170608242Y-52411127D01*
X170608242Y-52411130D01*
X170673904Y-52613217D01*
X170770375Y-52802550D01*
X170809728Y-52856716D01*
X171442037Y-52224408D01*
X171459075Y-52287993D01*
X171524901Y-52402007D01*
X171617993Y-52495099D01*
X171732007Y-52560925D01*
X171795590Y-52577962D01*
X171163282Y-53210269D01*
X171163282Y-53210270D01*
X171217452Y-53249626D01*
X171217451Y-53249626D01*
X171226495Y-53254234D01*
X171277292Y-53302208D01*
X171294087Y-53370029D01*
X171271550Y-53436164D01*
X171226499Y-53475202D01*
X171217182Y-53479949D01*
X171045213Y-53604890D01*
X170894890Y-53755213D01*
X170769951Y-53927179D01*
X170673444Y-54116585D01*
X170673443Y-54116587D01*
X170673443Y-54116588D01*
X170645449Y-54202744D01*
X170607753Y-54318760D01*
X170574500Y-54528713D01*
X164150500Y-54528713D01*
X164150500Y-54483713D01*
X164117246Y-54273757D01*
X164051557Y-54071588D01*
X163955051Y-53882184D01*
X163955049Y-53882181D01*
X163955048Y-53882179D01*
X163830109Y-53710213D01*
X163679786Y-53559890D01*
X163507817Y-53434949D01*
X163498504Y-53430204D01*
X163447707Y-53382230D01*
X163430912Y-53314409D01*
X163453449Y-53248274D01*
X163498507Y-53209232D01*
X163507555Y-53204622D01*
X163561716Y-53165270D01*
X163561717Y-53165270D01*
X162929408Y-52532962D01*
X162992993Y-52515925D01*
X163107007Y-52450099D01*
X163200099Y-52357007D01*
X163265925Y-52242993D01*
X163282962Y-52179408D01*
X163915270Y-52811717D01*
X163915270Y-52811716D01*
X163954622Y-52757554D01*
X164051095Y-52568217D01*
X164116757Y-52366130D01*
X164116757Y-52366127D01*
X164150000Y-52156246D01*
X164150000Y-51943753D01*
X164116757Y-51733872D01*
X164116757Y-51733869D01*
X164051095Y-51531782D01*
X163965356Y-51363510D01*
X163954625Y-51342450D01*
X163915270Y-51288282D01*
X163915269Y-51288282D01*
X163282962Y-51920590D01*
X163265925Y-51857007D01*
X163200099Y-51742993D01*
X163107007Y-51649901D01*
X162992993Y-51584075D01*
X162929409Y-51567037D01*
X163561716Y-50934728D01*
X163507550Y-50895375D01*
X163318217Y-50798904D01*
X163116129Y-50733242D01*
X162906246Y-50700000D01*
X162693754Y-50700000D01*
X162483872Y-50733242D01*
X162483869Y-50733242D01*
X162281782Y-50798904D01*
X162092439Y-50895380D01*
X162038282Y-50934727D01*
X162038282Y-50934728D01*
X162670591Y-51567037D01*
X162607007Y-51584075D01*
X162492993Y-51649901D01*
X162399901Y-51742993D01*
X162334075Y-51857007D01*
X162317037Y-51920591D01*
X161684728Y-51288282D01*
X161684727Y-51288282D01*
X161645380Y-51342439D01*
X161548904Y-51531782D01*
X161483242Y-51733869D01*
X161483242Y-51733872D01*
X161450000Y-51943753D01*
X161450000Y-52156246D01*
X161483242Y-52366127D01*
X161483242Y-52366130D01*
X161548904Y-52568217D01*
X161645375Y-52757550D01*
X161684728Y-52811716D01*
X162317037Y-52179408D01*
X162334075Y-52242993D01*
X162399901Y-52357007D01*
X162492993Y-52450099D01*
X162607007Y-52515925D01*
X162670590Y-52532962D01*
X162038282Y-53165269D01*
X162038282Y-53165270D01*
X162092452Y-53204626D01*
X162092451Y-53204626D01*
X162101495Y-53209234D01*
X162152292Y-53257208D01*
X162169087Y-53325029D01*
X162146550Y-53391164D01*
X162101499Y-53430202D01*
X162092182Y-53434949D01*
X161920213Y-53559890D01*
X161769890Y-53710213D01*
X161644951Y-53882179D01*
X161548444Y-54071585D01*
X161482753Y-54273760D01*
X161465144Y-54384941D01*
X161449500Y-54483713D01*
X145800500Y-54483713D01*
X145800500Y-49974038D01*
X146889500Y-49974038D01*
X146889500Y-50225962D01*
X146921721Y-50429394D01*
X146928910Y-50474785D01*
X147006760Y-50714383D01*
X147065273Y-50829219D01*
X147119032Y-50934728D01*
X147121132Y-50938848D01*
X147269201Y-51142649D01*
X147269205Y-51142654D01*
X147447345Y-51320794D01*
X147447350Y-51320798D01*
X147625117Y-51449952D01*
X147651155Y-51468870D01*
X147794184Y-51541747D01*
X147875616Y-51583239D01*
X147875618Y-51583239D01*
X147875621Y-51583241D01*
X148115215Y-51661090D01*
X148364038Y-51700500D01*
X148364039Y-51700500D01*
X148615961Y-51700500D01*
X148615962Y-51700500D01*
X148864785Y-51661090D01*
X149104379Y-51583241D01*
X149328845Y-51468870D01*
X149532656Y-51320793D01*
X149710793Y-51142656D01*
X149858870Y-50938845D01*
X149973241Y-50714379D01*
X150051090Y-50474785D01*
X150090233Y-50227648D01*
X156799500Y-50227648D01*
X156799500Y-50432352D01*
X156803878Y-50459995D01*
X156831522Y-50634534D01*
X156894781Y-50829223D01*
X156950637Y-50938845D01*
X156982267Y-51000922D01*
X156987715Y-51011613D01*
X157108028Y-51177213D01*
X157252786Y-51321971D01*
X157342911Y-51387449D01*
X157418390Y-51442287D01*
X157534607Y-51501503D01*
X157600776Y-51535218D01*
X157600778Y-51535218D01*
X157600781Y-51535220D01*
X157705137Y-51569127D01*
X157795465Y-51598477D01*
X157896557Y-51614488D01*
X157997648Y-51630500D01*
X157997649Y-51630500D01*
X158202351Y-51630500D01*
X158202352Y-51630500D01*
X158404534Y-51598477D01*
X158599219Y-51535220D01*
X158781610Y-51442287D01*
X158890038Y-51363510D01*
X158947213Y-51321971D01*
X158947215Y-51321968D01*
X158947219Y-51321966D01*
X159091966Y-51177219D01*
X159091968Y-51177215D01*
X159091971Y-51177213D01*
X159212284Y-51011614D01*
X159212285Y-51011613D01*
X159212287Y-51011610D01*
X159297738Y-50843904D01*
X159305216Y-50829228D01*
X159305218Y-50829223D01*
X159305220Y-50829219D01*
X159368477Y-50634534D01*
X159400500Y-50432352D01*
X159400500Y-50227648D01*
X159399659Y-50222339D01*
X159394096Y-50187213D01*
X159391794Y-50172682D01*
X165925000Y-50172682D01*
X165925000Y-50377317D01*
X165957009Y-50579417D01*
X166020244Y-50774031D01*
X166113141Y-50956350D01*
X166113147Y-50956359D01*
X166145523Y-51000921D01*
X166145524Y-51000922D01*
X166825000Y-50321446D01*
X166825000Y-50327661D01*
X166852259Y-50429394D01*
X166904920Y-50520606D01*
X166979394Y-50595080D01*
X167070606Y-50647741D01*
X167172339Y-50675000D01*
X167178553Y-50675000D01*
X166499076Y-51354474D01*
X166543650Y-51386859D01*
X166725968Y-51479755D01*
X166920582Y-51542990D01*
X167122683Y-51575000D01*
X167327317Y-51575000D01*
X167529417Y-51542990D01*
X167724031Y-51479755D01*
X167906349Y-51386859D01*
X167950921Y-51354474D01*
X167271447Y-50675000D01*
X167277661Y-50675000D01*
X167379394Y-50647741D01*
X167470606Y-50595080D01*
X167545080Y-50520606D01*
X167597741Y-50429394D01*
X167625000Y-50327661D01*
X167625000Y-50321448D01*
X168304474Y-51000922D01*
X168304474Y-51000921D01*
X168336859Y-50956349D01*
X168429755Y-50774031D01*
X168492990Y-50579417D01*
X168505227Y-50502155D01*
X179575000Y-50502155D01*
X179575000Y-51150000D01*
X180491988Y-51150000D01*
X180459075Y-51207007D01*
X180425000Y-51334174D01*
X180425000Y-51465826D01*
X180459075Y-51592993D01*
X180491988Y-51650000D01*
X179575000Y-51650000D01*
X179575000Y-52297844D01*
X179581401Y-52357372D01*
X179581403Y-52357379D01*
X179631645Y-52492086D01*
X179631649Y-52492093D01*
X179717809Y-52607187D01*
X179717812Y-52607190D01*
X179832906Y-52693350D01*
X179832913Y-52693354D01*
X179967620Y-52743596D01*
X179967627Y-52743598D01*
X180027155Y-52749999D01*
X180027172Y-52750000D01*
X180675000Y-52750000D01*
X180675000Y-51833012D01*
X180732007Y-51865925D01*
X180859174Y-51900000D01*
X180990826Y-51900000D01*
X181117993Y-51865925D01*
X181175000Y-51833012D01*
X181175000Y-52750000D01*
X181822828Y-52750000D01*
X181822844Y-52749999D01*
X181882372Y-52743598D01*
X181882379Y-52743596D01*
X182017086Y-52693354D01*
X182017093Y-52693350D01*
X182132187Y-52607190D01*
X182132190Y-52607187D01*
X182218350Y-52492093D01*
X182218354Y-52492086D01*
X182267422Y-52360529D01*
X182309293Y-52304595D01*
X182374757Y-52280178D01*
X182443030Y-52295030D01*
X182471285Y-52316181D01*
X182585213Y-52430109D01*
X182757179Y-52555048D01*
X182757181Y-52555049D01*
X182757184Y-52555051D01*
X182946588Y-52651557D01*
X183148757Y-52717246D01*
X183358713Y-52750500D01*
X183358714Y-52750500D01*
X183571286Y-52750500D01*
X183571287Y-52750500D01*
X183781243Y-52717246D01*
X183983412Y-52651557D01*
X184172816Y-52555051D01*
X184226669Y-52515925D01*
X184344786Y-52430109D01*
X184344788Y-52430106D01*
X184344792Y-52430104D01*
X184495104Y-52279792D01*
X184495106Y-52279788D01*
X184495109Y-52279786D01*
X184620048Y-52107820D01*
X184620047Y-52107820D01*
X184620051Y-52107816D01*
X184716557Y-51918412D01*
X184782246Y-51716243D01*
X184815500Y-51506287D01*
X184815500Y-51293713D01*
X184782246Y-51083757D01*
X184716557Y-50881588D01*
X184620051Y-50692184D01*
X184620049Y-50692181D01*
X184620048Y-50692179D01*
X184495109Y-50520213D01*
X184344786Y-50369890D01*
X184172820Y-50244951D01*
X183983414Y-50148444D01*
X183983413Y-50148443D01*
X183983412Y-50148443D01*
X183781243Y-50082754D01*
X183571287Y-50049500D01*
X183358713Y-50049500D01*
X183310042Y-50057208D01*
X183148760Y-50082753D01*
X182946585Y-50148444D01*
X182757179Y-50244951D01*
X182585215Y-50369889D01*
X182471285Y-50483819D01*
X182409962Y-50517303D01*
X182340270Y-50512319D01*
X182284337Y-50470447D01*
X182267422Y-50439470D01*
X182218354Y-50307913D01*
X182218350Y-50307906D01*
X182132190Y-50192812D01*
X182132187Y-50192809D01*
X182017093Y-50106649D01*
X182017086Y-50106645D01*
X181882379Y-50056403D01*
X181882372Y-50056401D01*
X181822844Y-50050000D01*
X181175000Y-50050000D01*
X181175000Y-50966988D01*
X181117993Y-50934075D01*
X180990826Y-50900000D01*
X180859174Y-50900000D01*
X180732007Y-50934075D01*
X180675000Y-50966988D01*
X180675000Y-50050000D01*
X180027155Y-50050000D01*
X179967627Y-50056401D01*
X179967620Y-50056403D01*
X179832913Y-50106645D01*
X179832906Y-50106649D01*
X179717812Y-50192809D01*
X179717809Y-50192812D01*
X179631649Y-50307906D01*
X179631645Y-50307913D01*
X179581403Y-50442620D01*
X179581401Y-50442627D01*
X179575000Y-50502155D01*
X168505227Y-50502155D01*
X168508823Y-50479453D01*
X168525000Y-50377317D01*
X168525000Y-50172682D01*
X168493537Y-49974038D01*
X189124500Y-49974038D01*
X189124500Y-50225962D01*
X189156721Y-50429394D01*
X189163910Y-50474785D01*
X189241760Y-50714383D01*
X189300273Y-50829219D01*
X189354032Y-50934728D01*
X189356132Y-50938848D01*
X189504201Y-51142649D01*
X189504205Y-51142654D01*
X189682345Y-51320794D01*
X189682350Y-51320798D01*
X189860117Y-51449952D01*
X189886155Y-51468870D01*
X190029184Y-51541747D01*
X190110616Y-51583239D01*
X190110618Y-51583239D01*
X190110621Y-51583241D01*
X190350215Y-51661090D01*
X190599038Y-51700500D01*
X190599039Y-51700500D01*
X190850961Y-51700500D01*
X190850962Y-51700500D01*
X191099785Y-51661090D01*
X191339379Y-51583241D01*
X191563845Y-51468870D01*
X191767656Y-51320793D01*
X191945793Y-51142656D01*
X192093870Y-50938845D01*
X192208241Y-50714379D01*
X192286090Y-50474785D01*
X192325500Y-50225962D01*
X192325500Y-49974038D01*
X192286090Y-49725215D01*
X192208241Y-49485621D01*
X192208239Y-49485618D01*
X192208239Y-49485616D01*
X192166747Y-49404184D01*
X192093870Y-49261155D01*
X192062308Y-49217713D01*
X191945798Y-49057350D01*
X191945794Y-49057345D01*
X191767654Y-48879205D01*
X191767649Y-48879201D01*
X191563848Y-48731132D01*
X191563847Y-48731131D01*
X191563845Y-48731130D01*
X191493747Y-48695413D01*
X191339383Y-48616760D01*
X191099785Y-48538910D01*
X190850962Y-48499500D01*
X190599038Y-48499500D01*
X190474626Y-48519205D01*
X190350214Y-48538910D01*
X190110616Y-48616760D01*
X189886151Y-48731132D01*
X189682350Y-48879201D01*
X189682345Y-48879205D01*
X189504205Y-49057345D01*
X189504201Y-49057350D01*
X189356132Y-49261151D01*
X189241760Y-49485616D01*
X189206660Y-49593644D01*
X189163910Y-49725215D01*
X189124500Y-49974038D01*
X168493537Y-49974038D01*
X168492990Y-49970582D01*
X168429755Y-49775968D01*
X168336859Y-49593650D01*
X168304474Y-49549077D01*
X168304474Y-49549076D01*
X167625000Y-50228551D01*
X167625000Y-50222339D01*
X167597741Y-50120606D01*
X167545080Y-50029394D01*
X167470606Y-49954920D01*
X167379394Y-49902259D01*
X167277661Y-49875000D01*
X167271446Y-49875000D01*
X167950922Y-49195524D01*
X167950921Y-49195523D01*
X167906359Y-49163147D01*
X167906350Y-49163141D01*
X167724031Y-49070244D01*
X167529417Y-49007009D01*
X167327317Y-48975000D01*
X167122683Y-48975000D01*
X166920582Y-49007009D01*
X166725968Y-49070244D01*
X166543644Y-49163143D01*
X166499077Y-49195523D01*
X166499077Y-49195524D01*
X167178554Y-49875000D01*
X167172339Y-49875000D01*
X167070606Y-49902259D01*
X166979394Y-49954920D01*
X166904920Y-50029394D01*
X166852259Y-50120606D01*
X166825000Y-50222339D01*
X166825000Y-50228553D01*
X166145524Y-49549077D01*
X166145523Y-49549077D01*
X166113143Y-49593644D01*
X166020244Y-49775968D01*
X165957009Y-49970582D01*
X165925000Y-50172682D01*
X159391794Y-50172682D01*
X159368477Y-50025465D01*
X159334679Y-49921446D01*
X159305220Y-49830781D01*
X159305218Y-49830778D01*
X159305218Y-49830776D01*
X159251431Y-49725214D01*
X159212287Y-49648390D01*
X159204556Y-49637749D01*
X159091971Y-49482786D01*
X158947218Y-49338033D01*
X158947211Y-49338027D01*
X158781613Y-49217715D01*
X158781612Y-49217714D01*
X158781610Y-49217713D01*
X158724653Y-49188691D01*
X158599223Y-49124781D01*
X158404534Y-49061522D01*
X158229995Y-49033878D01*
X158202352Y-49029500D01*
X157997648Y-49029500D01*
X157973329Y-49033351D01*
X157795465Y-49061522D01*
X157600776Y-49124781D01*
X157418386Y-49217715D01*
X157252786Y-49338028D01*
X157108028Y-49482786D01*
X156987715Y-49648386D01*
X156894781Y-49830776D01*
X156831522Y-50025465D01*
X156800341Y-50222339D01*
X156799500Y-50227648D01*
X150090233Y-50227648D01*
X150090500Y-50225962D01*
X150090500Y-49974038D01*
X150051090Y-49725215D01*
X149973241Y-49485621D01*
X149973239Y-49485618D01*
X149973239Y-49485616D01*
X149931747Y-49404184D01*
X149858870Y-49261155D01*
X149827308Y-49217713D01*
X149710798Y-49057350D01*
X149710794Y-49057345D01*
X149532654Y-48879205D01*
X149532649Y-48879201D01*
X149328848Y-48731132D01*
X149328847Y-48731131D01*
X149328845Y-48731130D01*
X149258747Y-48695413D01*
X149104383Y-48616760D01*
X148864785Y-48538910D01*
X148615962Y-48499500D01*
X148364038Y-48499500D01*
X148239626Y-48519205D01*
X148115214Y-48538910D01*
X147875616Y-48616760D01*
X147651151Y-48731132D01*
X147447350Y-48879201D01*
X147447345Y-48879205D01*
X147269205Y-49057345D01*
X147269201Y-49057350D01*
X147121132Y-49261151D01*
X147006760Y-49485616D01*
X146971660Y-49593644D01*
X146928910Y-49725215D01*
X146889500Y-49974038D01*
X145800500Y-49974038D01*
X145800500Y-47704066D01*
X145800765Y-47695956D01*
X145804819Y-47634108D01*
X145817075Y-47447102D01*
X145819190Y-47431048D01*
X145867045Y-47190462D01*
X145871243Y-47174797D01*
X145894337Y-47106762D01*
X145950093Y-46942512D01*
X145956291Y-46927547D01*
X146064790Y-46707533D01*
X146072897Y-46693493D01*
X146209174Y-46489539D01*
X146219039Y-46476681D01*
X146380786Y-46292244D01*
X146392244Y-46280786D01*
X146576681Y-46119039D01*
X146589534Y-46109177D01*
X146793493Y-45972897D01*
X146807533Y-45964790D01*
X147027547Y-45856291D01*
X147042512Y-45850093D01*
X147206762Y-45794337D01*
X147274797Y-45771243D01*
X147290464Y-45767045D01*
X147531048Y-45719190D01*
X147547102Y-45717075D01*
X147795957Y-45700765D01*
X147804067Y-45700500D01*
X147865892Y-45700500D01*
X191334108Y-45700500D01*
X191395933Y-45700500D01*
X191404043Y-45700765D01*
G37*
%TD.AperFunction*%
%TD*%
M02*
