M48
; DRILL file KiCad 10.0.0 date 2026-09-20T17:30:59
; FORMAT={-:-/ absolute / metric / decimal}
; #@! TF.CreationDate,2026-09-20T17:30:59+10:00
; #@! TF.GenerationSoftware,Kicad,Pcbnew,10.0.0
; #@! TF.FileFunction,Plated,1,2,PTH
FMAT,2
METRIC
; #@! TA.AperFunction,Plated,PTH,ComponentDrill
T1C0.600
; #@! TA.AperFunction,Plated,PTH,ComponentDrill
T2C0.800
; #@! TA.AperFunction,Plated,PTH,ComponentDrill
T3C0.889
; #@! TA.AperFunction,Plated,PTH,ComponentDrill
T4C1.000
; #@! TA.AperFunction,Plated,PTH,ComponentDrill
T5C1.200
%
G90
G05
T2
X148.49Y-67.79
X148.49Y-70.33
X148.49Y-72.87
X148.49Y-75.41
X149.3Y-62.682
X151.8Y-62.682
X154.75Y-79.7
X154.75Y-82.2
X156.11Y-67.79
X156.11Y-70.33
X156.11Y-72.87
X156.11Y-75.41
X156.5Y-62.7
X158.1Y-50.33
X158.1Y-57.95
X159.0Y-62.7
X161.25Y-83.425
X163.75Y-83.425
X167.225Y-50.275
X167.225Y-57.895
X168.493Y-83.425
X170.993Y-83.425
T3
X175.411Y-64.28
X175.411Y-79.52
X177.951Y-64.28
X177.951Y-79.52
X180.492Y-64.28
X180.492Y-79.52
X183.031Y-64.28
X183.031Y-79.52
X185.571Y-64.28
X185.571Y-79.52
X188.111Y-64.28
X188.111Y-79.52
X190.651Y-64.28
X190.651Y-79.52
T4
X149.26Y-55.95
X151.8Y-55.95
X154.785Y-86.65
X157.325Y-86.65
X162.8Y-52.05
X162.8Y-54.59
X162.8Y-57.13
X171.925Y-52.095
X171.925Y-54.635
X171.925Y-57.175
X180.925Y-51.4
X181.675Y-86.0
X183.465Y-51.4
X184.215Y-86.0
T5
X184.125Y-57.025
X190.125Y-57.025
T1
G00X183.425Y-54.625
M15
G01X182.825Y-54.625
M16
G05
G00X188.425Y-59.425
M15
G01X187.825Y-59.425
M16
G05
G00X190.425Y-54.625
M15
G01X189.825Y-54.625
M16
G05
M30
