ISO-10303-21;
HEADER;
/* Generated by software containing ST-Developer
 * from STEP Tools, Inc. (www.steptools.com) 
 */
/* OPTION: using custom renumber hook */

FILE_DESCRIPTION(
/* description */ ('STEP AP242 Edition 2',
'CAx-IF Rec.Pracs.---Representation and Presentation of Product Manufa
cturing Information (PMI)---4.0---2014-10-13',
'CAx-IF Rec.Pracs.---3D Tessellated Geometry---0.4---2014-09-14','2;1',
'CAx-IF Rec.Pracs.---User Defined Attributes---1.5---2016-08-15'),
/* implementation_level */ '2;1');

FILE_NAME(
/* name */ 'Case - Mounted Base Case',
/* time_stamp */ '2026-09-19T04:29:33Z',
/* author */ (''),
/* organization */ (''),
/* preprocessor_version */ 'ST-DEVELOPER v20',
/* originating_system */ 'ONSHAPE BY PTC INC, 1.221',
/* authorisation */ '  ');

FILE_SCHEMA (('AP242_MANAGED_MODEL_BASED_3D_ENGINEERING_MIM_LF { 1 0 10303 442 3 1 4 }'));
ENDSEC;

DATA;
#10=SHAPE_REPRESENTATION_RELATIONSHIP('','',#359,#11);
#11=ADVANCED_BREP_SHAPE_REPRESENTATION('',(#357),#613);
#12=LINE('',#563,#28);
#13=LINE('',#566,#29);
#14=LINE('',#568,#30);
#15=LINE('',#570,#31);
#16=LINE('',#572,#32);
#17=LINE('',#575,#33);
#18=LINE('',#577,#34);
#19=LINE('',#579,#35);
#20=LINE('',#581,#36);
#21=LINE('',#584,#37);
#22=LINE('',#586,#38);
#23=LINE('',#588,#39);
#24=LINE('',#590,#40);
#25=LINE('',#593,#41);
#26=LINE('',#595,#42);
#27=LINE('',#597,#43);
#28=VECTOR('',#467,1.);
#29=VECTOR('',#468,1.);
#30=VECTOR('',#469,1.);
#31=VECTOR('',#470,1.);
#32=VECTOR('',#473,1.);
#33=VECTOR('',#474,1.);
#34=VECTOR('',#475,1.);
#35=VECTOR('',#476,1.);
#36=VECTOR('',#479,1.);
#37=VECTOR('',#480,1.);
#38=VECTOR('',#481,1.);
#39=VECTOR('',#482,1.);
#40=VECTOR('',#485,1.);
#41=VECTOR('',#486,1.);
#42=VECTOR('',#487,1.);
#43=VECTOR('',#488,1.);
#44=PLANE('',#367);
#45=PLANE('',#374);
#46=PLANE('',#381);
#47=PLANE('',#388);
#48=PLANE('',#389);
#49=PLANE('',#390);
#50=PLANE('',#391);
#51=PLANE('',#392);
#52=PLANE('',#393);
#53=PLANE('',#398);
#54=ORIENTED_EDGE('',*,*,#134,.F.);
#55=ORIENTED_EDGE('',*,*,#135,.T.);
#56=ORIENTED_EDGE('',*,*,#136,.F.);
#57=ORIENTED_EDGE('',*,*,#137,.T.);
#58=ORIENTED_EDGE('',*,*,#134,.T.);
#59=ORIENTED_EDGE('',*,*,#137,.F.);
#60=ORIENTED_EDGE('',*,*,#138,.F.);
#61=ORIENTED_EDGE('',*,*,#139,.T.);
#62=ORIENTED_EDGE('',*,*,#140,.F.);
#63=ORIENTED_EDGE('',*,*,#141,.T.);
#64=ORIENTED_EDGE('',*,*,#138,.T.);
#65=ORIENTED_EDGE('',*,*,#141,.F.);
#66=ORIENTED_EDGE('',*,*,#142,.F.);
#67=ORIENTED_EDGE('',*,*,#143,.T.);
#68=ORIENTED_EDGE('',*,*,#144,.F.);
#69=ORIENTED_EDGE('',*,*,#145,.T.);
#70=ORIENTED_EDGE('',*,*,#142,.T.);
#71=ORIENTED_EDGE('',*,*,#145,.F.);
#72=ORIENTED_EDGE('',*,*,#146,.F.);
#73=ORIENTED_EDGE('',*,*,#147,.T.);
#74=ORIENTED_EDGE('',*,*,#148,.F.);
#75=ORIENTED_EDGE('',*,*,#149,.T.);
#76=ORIENTED_EDGE('',*,*,#146,.T.);
#77=ORIENTED_EDGE('',*,*,#149,.F.);
#78=ORIENTED_EDGE('',*,*,#150,.T.);
#79=ORIENTED_EDGE('',*,*,#151,.T.);
#80=ORIENTED_EDGE('',*,*,#152,.F.);
#81=ORIENTED_EDGE('',*,*,#153,.T.);
#82=ORIENTED_EDGE('',*,*,#154,.F.);
#83=ORIENTED_EDGE('',*,*,#155,.T.);
#84=ORIENTED_EDGE('',*,*,#156,.T.);
#85=ORIENTED_EDGE('',*,*,#157,.T.);
#86=ORIENTED_EDGE('',*,*,#158,.T.);
#87=ORIENTED_EDGE('',*,*,#159,.T.);
#88=ORIENTED_EDGE('',*,*,#160,.F.);
#89=ORIENTED_EDGE('',*,*,#161,.T.);
#90=ORIENTED_EDGE('',*,*,#162,.T.);
#91=ORIENTED_EDGE('',*,*,#163,.T.);
#92=ORIENTED_EDGE('',*,*,#164,.F.);
#93=ORIENTED_EDGE('',*,*,#165,.T.);
#94=ORIENTED_EDGE('',*,*,#160,.T.);
#95=ORIENTED_EDGE('',*,*,#166,.T.);
#96=ORIENTED_EDGE('',*,*,#162,.F.);
#97=ORIENTED_EDGE('',*,*,#167,.T.);
#98=ORIENTED_EDGE('',*,*,#150,.F.);
#99=ORIENTED_EDGE('',*,*,#168,.T.);
#100=ORIENTED_EDGE('',*,*,#154,.T.);
#101=ORIENTED_EDGE('',*,*,#169,.T.);
#102=ORIENTED_EDGE('',*,*,#143,.F.);
#103=ORIENTED_EDGE('',*,*,#135,.F.);
#104=ORIENTED_EDGE('',*,*,#139,.F.);
#105=ORIENTED_EDGE('',*,*,#147,.F.);
#106=ORIENTED_EDGE('',*,*,#136,.T.);
#107=ORIENTED_EDGE('',*,*,#140,.T.);
#108=ORIENTED_EDGE('',*,*,#144,.T.);
#109=ORIENTED_EDGE('',*,*,#148,.T.);
#110=ORIENTED_EDGE('',*,*,#164,.T.);
#111=ORIENTED_EDGE('',*,*,#170,.T.);
#112=ORIENTED_EDGE('',*,*,#158,.F.);
#113=ORIENTED_EDGE('',*,*,#171,.T.);
#114=ORIENTED_EDGE('',*,*,#156,.F.);
#115=ORIENTED_EDGE('',*,*,#172,.T.);
#116=ORIENTED_EDGE('',*,*,#152,.T.);
#117=ORIENTED_EDGE('',*,*,#173,.T.);
#118=ORIENTED_EDGE('',*,*,#166,.F.);
#119=ORIENTED_EDGE('',*,*,#159,.F.);
#120=ORIENTED_EDGE('',*,*,#170,.F.);
#121=ORIENTED_EDGE('',*,*,#163,.F.);
#122=ORIENTED_EDGE('',*,*,#167,.F.);
#123=ORIENTED_EDGE('',*,*,#165,.F.);
#124=ORIENTED_EDGE('',*,*,#173,.F.);
#125=ORIENTED_EDGE('',*,*,#151,.F.);
#126=ORIENTED_EDGE('',*,*,#168,.F.);
#127=ORIENTED_EDGE('',*,*,#153,.F.);
#128=ORIENTED_EDGE('',*,*,#172,.F.);
#129=ORIENTED_EDGE('',*,*,#155,.F.);
#130=ORIENTED_EDGE('',*,*,#169,.F.);
#131=ORIENTED_EDGE('',*,*,#157,.F.);
#132=ORIENTED_EDGE('',*,*,#171,.F.);
#133=ORIENTED_EDGE('',*,*,#161,.F.);
#134=EDGE_CURVE('',#174,#174,#206,.T.);
#135=EDGE_CURVE('',#175,#175,#207,.T.);
#136=EDGE_CURVE('',#176,#176,#208,.T.);
#137=EDGE_CURVE('',#177,#177,#209,.T.);
#138=EDGE_CURVE('',#178,#178,#210,.T.);
#139=EDGE_CURVE('',#179,#179,#211,.T.);
#140=EDGE_CURVE('',#180,#180,#212,.T.);
#141=EDGE_CURVE('',#181,#181,#213,.T.);
#142=EDGE_CURVE('',#182,#182,#214,.T.);
#143=EDGE_CURVE('',#183,#183,#215,.T.);
#144=EDGE_CURVE('',#184,#184,#216,.T.);
#145=EDGE_CURVE('',#185,#185,#217,.T.);
#146=EDGE_CURVE('',#186,#186,#218,.T.);
#147=EDGE_CURVE('',#187,#187,#219,.T.);
#148=EDGE_CURVE('',#188,#188,#220,.T.);
#149=EDGE_CURVE('',#189,#189,#221,.T.);
#150=EDGE_CURVE('',#190,#191,#12,.T.);
#151=EDGE_CURVE('',#191,#192,#13,.T.);
#152=EDGE_CURVE('',#193,#192,#14,.T.);
#153=EDGE_CURVE('',#193,#190,#15,.F.);
#154=EDGE_CURVE('',#194,#195,#16,.T.);
#155=EDGE_CURVE('',#194,#196,#17,.T.);
#156=EDGE_CURVE('',#196,#197,#18,.T.);
#157=EDGE_CURVE('',#197,#195,#19,.F.);
#158=EDGE_CURVE('',#198,#199,#20,.T.);
#159=EDGE_CURVE('',#199,#200,#21,.F.);
#160=EDGE_CURVE('',#201,#200,#22,.T.);
#161=EDGE_CURVE('',#201,#198,#23,.T.);
#162=EDGE_CURVE('',#202,#203,#24,.T.);
#163=EDGE_CURVE('',#203,#204,#25,.T.);
#164=EDGE_CURVE('',#205,#204,#26,.T.);
#165=EDGE_CURVE('',#205,#202,#27,.F.);
#166=EDGE_CURVE('',#200,#203,#222,.T.);
#167=EDGE_CURVE('',#202,#191,#223,.T.);
#168=EDGE_CURVE('',#190,#194,#224,.T.);
#169=EDGE_CURVE('',#195,#201,#225,.T.);
#170=EDGE_CURVE('',#204,#199,#226,.F.);
#171=EDGE_CURVE('',#198,#197,#227,.F.);
#172=EDGE_CURVE('',#196,#193,#228,.F.);
#173=EDGE_CURVE('',#192,#205,#229,.F.);
#174=VERTEX_POINT('',#520);
#175=VERTEX_POINT('',#522);
#176=VERTEX_POINT('',#525);
#177=VERTEX_POINT('',#527);
#178=VERTEX_POINT('',#531);
#179=VERTEX_POINT('',#533);
#180=VERTEX_POINT('',#536);
#181=VERTEX_POINT('',#538);
#182=VERTEX_POINT('',#542);
#183=VERTEX_POINT('',#544);
#184=VERTEX_POINT('',#547);
#185=VERTEX_POINT('',#549);
#186=VERTEX_POINT('',#553);
#187=VERTEX_POINT('',#555);
#188=VERTEX_POINT('',#558);
#189=VERTEX_POINT('',#560);
#190=VERTEX_POINT('',#564);
#191=VERTEX_POINT('',#565);
#192=VERTEX_POINT('',#567);
#193=VERTEX_POINT('',#569);
#194=VERTEX_POINT('',#573);
#195=VERTEX_POINT('',#574);
#196=VERTEX_POINT('',#576);
#197=VERTEX_POINT('',#578);
#198=VERTEX_POINT('',#582);
#199=VERTEX_POINT('',#583);
#200=VERTEX_POINT('',#585);
#201=VERTEX_POINT('',#587);
#202=VERTEX_POINT('',#591);
#203=VERTEX_POINT('',#592);
#204=VERTEX_POINT('',#594);
#205=VERTEX_POINT('',#596);
#206=CIRCLE('',#362,0.00135);
#207=CIRCLE('',#363,0.00135);
#208=CIRCLE('',#365,0.00307490724363963);
#209=CIRCLE('',#366,0.00307490724363963);
#210=CIRCLE('',#369,0.00135);
#211=CIRCLE('',#370,0.00135);
#212=CIRCLE('',#372,0.00304947140365572);
#213=CIRCLE('',#373,0.00304947140365572);
#214=CIRCLE('',#376,0.00135);
#215=CIRCLE('',#377,0.00135);
#216=CIRCLE('',#379,0.00300274988984485);
#217=CIRCLE('',#380,0.00300274988984485);
#218=CIRCLE('',#383,0.00135);
#219=CIRCLE('',#384,0.00135);
#220=CIRCLE('',#386,0.00302731588194941);
#221=CIRCLE('',#387,0.00302731588194941);
#222=CIRCLE('',#394,0.005);
#223=CIRCLE('',#395,0.005);
#224=CIRCLE('',#396,0.005);
#225=CIRCLE('',#397,0.005);
#226=CIRCLE('',#399,0.005);
#227=CIRCLE('',#400,0.005);
#228=CIRCLE('',#401,0.005);
#229=CIRCLE('',#402,0.005);
#230=EDGE_LOOP('',(#54));
#231=EDGE_LOOP('',(#55));
#232=EDGE_LOOP('',(#56));
#233=EDGE_LOOP('',(#57));
#234=EDGE_LOOP('',(#58));
#235=EDGE_LOOP('',(#59));
#236=EDGE_LOOP('',(#60));
#237=EDGE_LOOP('',(#61));
#238=EDGE_LOOP('',(#62));
#239=EDGE_LOOP('',(#63));
#240=EDGE_LOOP('',(#64));
#241=EDGE_LOOP('',(#65));
#242=EDGE_LOOP('',(#66));
#243=EDGE_LOOP('',(#67));
#244=EDGE_LOOP('',(#68));
#245=EDGE_LOOP('',(#69));
#246=EDGE_LOOP('',(#70));
#247=EDGE_LOOP('',(#71));
#248=EDGE_LOOP('',(#72));
#249=EDGE_LOOP('',(#73));
#250=EDGE_LOOP('',(#74));
#251=EDGE_LOOP('',(#75));
#252=EDGE_LOOP('',(#76));
#253=EDGE_LOOP('',(#77));
#254=EDGE_LOOP('',(#78,#79,#80,#81));
#255=EDGE_LOOP('',(#82,#83,#84,#85));
#256=EDGE_LOOP('',(#86,#87,#88,#89));
#257=EDGE_LOOP('',(#90,#91,#92,#93));
#258=EDGE_LOOP('',(#94,#95,#96,#97,#98,#99,#100,#101));
#259=EDGE_LOOP('',(#102));
#260=EDGE_LOOP('',(#103));
#261=EDGE_LOOP('',(#104));
#262=EDGE_LOOP('',(#105));
#263=EDGE_LOOP('',(#106));
#264=EDGE_LOOP('',(#107));
#265=EDGE_LOOP('',(#108));
#266=EDGE_LOOP('',(#109));
#267=EDGE_LOOP('',(#110,#111,#112,#113,#114,#115,#116,#117));
#268=EDGE_LOOP('',(#118,#119,#120,#121));
#269=EDGE_LOOP('',(#122,#123,#124,#125));
#270=EDGE_LOOP('',(#126,#127,#128,#129));
#271=EDGE_LOOP('',(#130,#131,#132,#133));
#272=FACE_BOUND('',#230,.T.);
#273=FACE_BOUND('',#231,.T.);
#274=FACE_BOUND('',#232,.T.);
#275=FACE_BOUND('',#233,.T.);
#276=FACE_BOUND('',#234,.T.);
#277=FACE_BOUND('',#235,.T.);
#278=FACE_BOUND('',#236,.T.);
#279=FACE_BOUND('',#237,.T.);
#280=FACE_BOUND('',#238,.T.);
#281=FACE_BOUND('',#239,.T.);
#282=FACE_BOUND('',#240,.T.);
#283=FACE_BOUND('',#241,.T.);
#284=FACE_BOUND('',#242,.T.);
#285=FACE_BOUND('',#243,.T.);
#286=FACE_BOUND('',#244,.T.);
#287=FACE_BOUND('',#245,.T.);
#288=FACE_BOUND('',#246,.T.);
#289=FACE_BOUND('',#247,.T.);
#290=FACE_BOUND('',#248,.T.);
#291=FACE_BOUND('',#249,.T.);
#292=FACE_BOUND('',#250,.T.);
#293=FACE_BOUND('',#251,.T.);
#294=FACE_BOUND('',#252,.T.);
#295=FACE_BOUND('',#253,.T.);
#296=FACE_BOUND('',#254,.T.);
#297=FACE_BOUND('',#255,.T.);
#298=FACE_BOUND('',#256,.T.);
#299=FACE_BOUND('',#257,.T.);
#300=FACE_BOUND('',#258,.T.);
#301=FACE_BOUND('',#259,.T.);
#302=FACE_BOUND('',#260,.T.);
#303=FACE_BOUND('',#261,.T.);
#304=FACE_BOUND('',#262,.T.);
#305=FACE_BOUND('',#263,.T.);
#306=FACE_BOUND('',#264,.T.);
#307=FACE_BOUND('',#265,.T.);
#308=FACE_BOUND('',#266,.T.);
#309=FACE_BOUND('',#267,.T.);
#310=FACE_BOUND('',#268,.T.);
#311=FACE_BOUND('',#269,.T.);
#312=FACE_BOUND('',#270,.T.);
#313=FACE_BOUND('',#271,.T.);
#314=CYLINDRICAL_SURFACE('',#361,0.00135);
#315=CYLINDRICAL_SURFACE('',#364,0.00307490724363963);
#316=CYLINDRICAL_SURFACE('',#368,0.00135);
#317=CYLINDRICAL_SURFACE('',#371,0.00304947140365572);
#318=CYLINDRICAL_SURFACE('',#375,0.00135);
#319=CYLINDRICAL_SURFACE('',#378,0.00300274988984485);
#320=CYLINDRICAL_SURFACE('',#382,0.00135);
#321=CYLINDRICAL_SURFACE('',#385,0.00302731588194941);
#322=CYLINDRICAL_SURFACE('',#403,0.005);
#323=CYLINDRICAL_SURFACE('',#404,0.005);
#324=CYLINDRICAL_SURFACE('',#405,0.005);
#325=CYLINDRICAL_SURFACE('',#406,0.005);
#326=ADVANCED_FACE('',(#272,#273),#314,.F.);
#327=ADVANCED_FACE('',(#274,#275),#315,.T.);
#328=ADVANCED_FACE('',(#276,#277),#44,.F.);
#329=ADVANCED_FACE('',(#278,#279),#316,.F.);
#330=ADVANCED_FACE('',(#280,#281),#317,.T.);
#331=ADVANCED_FACE('',(#282,#283),#45,.F.);
#332=ADVANCED_FACE('',(#284,#285),#318,.F.);
#333=ADVANCED_FACE('',(#286,#287),#319,.T.);
#334=ADVANCED_FACE('',(#288,#289),#46,.F.);
#335=ADVANCED_FACE('',(#290,#291),#320,.F.);
#336=ADVANCED_FACE('',(#292,#293),#321,.T.);
#337=ADVANCED_FACE('',(#294,#295),#47,.F.);
#338=ADVANCED_FACE('',(#296),#48,.T.);
#339=ADVANCED_FACE('',(#297),#49,.F.);
#340=ADVANCED_FACE('',(#298),#50,.F.);
#341=ADVANCED_FACE('',(#299),#51,.T.);
#342=ADVANCED_FACE('',(#300,#301,#302,#303,#304),#52,.T.);
#343=ADVANCED_FACE('',(#305,#306,#307,#308,#309),#53,.F.);
#344=ADVANCED_FACE('',(#310),#322,.T.);
#345=ADVANCED_FACE('',(#311),#323,.T.);
#346=ADVANCED_FACE('',(#312),#324,.T.);
#347=ADVANCED_FACE('',(#313),#325,.T.);
#348=CLOSED_SHELL('',(#326,#327,#328,#329,#330,#331,#332,#333,#334,#335,
#336,#337,#338,#339,#340,#341,#342,#343,#344,#345,#346,#347));
#349=STYLED_ITEM('',(#350),#357);
#350=PRESENTATION_STYLE_ASSIGNMENT((#351));
#351=SURFACE_STYLE_USAGE(.BOTH.,#352);
#352=SURFACE_SIDE_STYLE('',(#353));
#353=SURFACE_STYLE_FILL_AREA(#354);
#354=FILL_AREA_STYLE('',(#355));
#355=FILL_AREA_STYLE_COLOUR('',#356);
#356=COLOUR_RGB('',0.713725490196078,0.474509803921569,0.337254901960785);
#357=MANIFOLD_SOLID_BREP('Mounted Base Case',#348);
#358=SHAPE_DEFINITION_REPRESENTATION(#618,#359);
#359=SHAPE_REPRESENTATION('Mounted Base Case',(#360),#613);
#360=AXIS2_PLACEMENT_3D('',#517,#407,#408);
#361=AXIS2_PLACEMENT_3D('',#518,#409,#410);
#362=AXIS2_PLACEMENT_3D('',#519,#411,#412);
#363=AXIS2_PLACEMENT_3D('',#521,#413,#414);
#364=AXIS2_PLACEMENT_3D('',#523,#415,#416);
#365=AXIS2_PLACEMENT_3D('',#524,#417,#418);
#366=AXIS2_PLACEMENT_3D('',#526,#419,#420);
#367=AXIS2_PLACEMENT_3D('',#528,#421,#422);
#368=AXIS2_PLACEMENT_3D('',#529,#423,#424);
#369=AXIS2_PLACEMENT_3D('',#530,#425,#426);
#370=AXIS2_PLACEMENT_3D('',#532,#427,#428);
#371=AXIS2_PLACEMENT_3D('',#534,#429,#430);
#372=AXIS2_PLACEMENT_3D('',#535,#431,#432);
#373=AXIS2_PLACEMENT_3D('',#537,#433,#434);
#374=AXIS2_PLACEMENT_3D('',#539,#435,#436);
#375=AXIS2_PLACEMENT_3D('',#540,#437,#438);
#376=AXIS2_PLACEMENT_3D('',#541,#439,#440);
#377=AXIS2_PLACEMENT_3D('',#543,#441,#442);
#378=AXIS2_PLACEMENT_3D('',#545,#443,#444);
#379=AXIS2_PLACEMENT_3D('',#546,#445,#446);
#380=AXIS2_PLACEMENT_3D('',#548,#447,#448);
#381=AXIS2_PLACEMENT_3D('',#550,#449,#450);
#382=AXIS2_PLACEMENT_3D('',#551,#451,#452);
#383=AXIS2_PLACEMENT_3D('',#552,#453,#454);
#384=AXIS2_PLACEMENT_3D('',#554,#455,#456);
#385=AXIS2_PLACEMENT_3D('',#556,#457,#458);
#386=AXIS2_PLACEMENT_3D('',#557,#459,#460);
#387=AXIS2_PLACEMENT_3D('',#559,#461,#462);
#388=AXIS2_PLACEMENT_3D('',#561,#463,#464);
#389=AXIS2_PLACEMENT_3D('',#562,#465,#466);
#390=AXIS2_PLACEMENT_3D('',#571,#471,#472);
#391=AXIS2_PLACEMENT_3D('',#580,#477,#478);
#392=AXIS2_PLACEMENT_3D('',#589,#483,#484);
#393=AXIS2_PLACEMENT_3D('',#598,#489,#490);
#394=AXIS2_PLACEMENT_3D('',#599,#491,#492);
#395=AXIS2_PLACEMENT_3D('',#600,#493,#494);
#396=AXIS2_PLACEMENT_3D('',#601,#495,#496);
#397=AXIS2_PLACEMENT_3D('',#602,#497,#498);
#398=AXIS2_PLACEMENT_3D('',#603,#499,#500);
#399=AXIS2_PLACEMENT_3D('',#604,#501,#502);
#400=AXIS2_PLACEMENT_3D('',#605,#503,#504);
#401=AXIS2_PLACEMENT_3D('',#606,#505,#506);
#402=AXIS2_PLACEMENT_3D('',#607,#507,#508);
#403=AXIS2_PLACEMENT_3D('',#608,#509,#510);
#404=AXIS2_PLACEMENT_3D('',#609,#511,#512);
#405=AXIS2_PLACEMENT_3D('',#610,#513,#514);
#406=AXIS2_PLACEMENT_3D('',#611,#515,#516);
#407=DIRECTION('',(0.,0.,1.));
#408=DIRECTION('',(1.,0.,0.));
#409=DIRECTION('',(0.,0.,1.));
#410=DIRECTION('',(1.,0.,0.));
#411=DIRECTION('',(0.,0.,-1.));
#412=DIRECTION('',(-1.,0.,0.));
#413=DIRECTION('',(0.,0.,-1.));
#414=DIRECTION('',(-1.,0.,0.));
#415=DIRECTION('',(0.,0.,1.));
#416=DIRECTION('',(1.,0.,0.));
#417=DIRECTION('',(0.,0.,-1.));
#418=DIRECTION('',(-1.,0.,0.));
#419=DIRECTION('',(0.,0.,-1.));
#420=DIRECTION('',(-1.,0.,0.));
#421=DIRECTION('',(0.,0.,-1.));
#422=DIRECTION('',(1.,0.,0.));
#423=DIRECTION('',(0.,0.,1.));
#424=DIRECTION('',(1.,0.,0.));
#425=DIRECTION('',(0.,0.,-1.));
#426=DIRECTION('',(-1.,0.,0.));
#427=DIRECTION('',(0.,0.,-1.));
#428=DIRECTION('',(-1.,0.,0.));
#429=DIRECTION('',(0.,0.,1.));
#430=DIRECTION('',(1.,0.,0.));
#431=DIRECTION('',(0.,0.,-1.));
#432=DIRECTION('',(-1.,0.,0.));
#433=DIRECTION('',(0.,0.,-1.));
#434=DIRECTION('',(-1.,0.,0.));
#435=DIRECTION('',(0.,0.,-1.));
#436=DIRECTION('',(1.,0.,0.));
#437=DIRECTION('',(0.,0.,1.));
#438=DIRECTION('',(1.,0.,0.));
#439=DIRECTION('',(0.,0.,-1.));
#440=DIRECTION('',(-1.,0.,0.));
#441=DIRECTION('',(0.,0.,-1.));
#442=DIRECTION('',(-1.,0.,0.));
#443=DIRECTION('',(0.,0.,1.));
#444=DIRECTION('',(1.,0.,0.));
#445=DIRECTION('',(0.,0.,-1.));
#446=DIRECTION('',(-1.,0.,0.));
#447=DIRECTION('',(0.,0.,-1.));
#448=DIRECTION('',(-1.,0.,0.));
#449=DIRECTION('',(0.,0.,-1.));
#450=DIRECTION('',(1.,0.,0.));
#451=DIRECTION('',(0.,0.,1.));
#452=DIRECTION('',(1.,0.,0.));
#453=DIRECTION('',(0.,0.,-1.));
#454=DIRECTION('',(-1.,0.,0.));
#455=DIRECTION('',(0.,0.,-1.));
#456=DIRECTION('',(-1.,0.,0.));
#457=DIRECTION('',(0.,0.,1.));
#458=DIRECTION('',(1.,0.,0.));
#459=DIRECTION('',(0.,0.,-1.));
#460=DIRECTION('',(-1.,0.,0.));
#461=DIRECTION('',(0.,0.,-1.));
#462=DIRECTION('',(-1.,0.,0.));
#463=DIRECTION('',(0.,0.,-1.));
#464=DIRECTION('',(1.,0.,0.));
#465=DIRECTION('',(-1.,1.89933227296731E-16,0.));
#466=DIRECTION('',(-1.89933227296731E-16,-1.,0.));
#467=DIRECTION('',(-1.8993322729673E-16,-1.,0.));
#468=DIRECTION('',(0.,0.,1.));
#469=DIRECTION('',(-1.8993322729673E-16,-1.,0.));
#470=DIRECTION('',(0.,0.,1.));
#471=DIRECTION('',(0.,-1.,0.));
#472=DIRECTION('',(0.,0.,-1.));
#473=DIRECTION('',(1.,0.,0.));
#474=DIRECTION('',(0.,0.,1.));
#475=DIRECTION('',(1.,0.,0.));
#476=DIRECTION('',(0.,0.,1.));
#477=DIRECTION('',(-1.,1.89933227296731E-16,0.));
#478=DIRECTION('',(-1.89933227296731E-16,-1.,0.));
#479=DIRECTION('',(-1.8993322729673E-16,-1.,0.));
#480=DIRECTION('',(0.,0.,1.));
#481=DIRECTION('',(-1.8993322729673E-16,-1.,0.));
#482=DIRECTION('',(0.,0.,1.));
#483=DIRECTION('',(0.,-1.,0.));
#484=DIRECTION('',(0.,0.,-1.));
#485=DIRECTION('',(1.,0.,0.));
#486=DIRECTION('',(0.,0.,1.));
#487=DIRECTION('',(1.,0.,0.));
#488=DIRECTION('',(0.,0.,1.));
#489=DIRECTION('',(0.,0.,-1.));
#490=DIRECTION('',(1.,0.,0.));
#491=DIRECTION('',(0.,0.,-1.));
#492=DIRECTION('',(-1.,0.,0.));
#493=DIRECTION('',(0.,0.,-1.));
#494=DIRECTION('',(-1.,0.,0.));
#495=DIRECTION('',(0.,0.,-1.));
#496=DIRECTION('',(-1.,0.,0.));
#497=DIRECTION('',(0.,0.,-1.));
#498=DIRECTION('',(-1.,0.,0.));
#499=DIRECTION('',(0.,0.,-1.));
#500=DIRECTION('',(1.,0.,0.));
#501=DIRECTION('',(0.,0.,-1.));
#502=DIRECTION('',(-1.,0.,0.));
#503=DIRECTION('',(0.,0.,-1.));
#504=DIRECTION('',(-1.,0.,0.));
#505=DIRECTION('',(0.,0.,-1.));
#506=DIRECTION('',(-1.,0.,0.));
#507=DIRECTION('',(0.,0.,-1.));
#508=DIRECTION('',(-1.,0.,0.));
#509=DIRECTION('',(0.,0.,-1.));
#510=DIRECTION('',(-1.,0.,0.));
#511=DIRECTION('',(0.,0.,1.));
#512=DIRECTION('',(1.,0.,0.));
#513=DIRECTION('',(0.,0.,-1.));
#514=DIRECTION('',(-1.,0.,0.));
#515=DIRECTION('',(0.,0.,1.));
#516=DIRECTION('',(1.,0.,0.));
#517=CARTESIAN_POINT('',(0.,0.,0.));
#518=CARTESIAN_POINT('',(0.0201913476419204,0.0165992602341019,-0.00721500005393561));
#519=CARTESIAN_POINT('',(0.0201913476419204,0.0165992602341019,-0.00421500005393561));
#520=CARTESIAN_POINT('',(0.0188413476419204,0.0165992602341019,-0.00421500005393561));
#521=CARTESIAN_POINT('',(0.0201913476419204,0.0165992602341019,-0.0107150000539356));
#522=CARTESIAN_POINT('',(0.0188413476419204,0.0165992602341019,-0.0107150000539356));
#523=CARTESIAN_POINT('',(0.0201913476419204,0.0165992602341019,-0.00721500005393561));
#524=CARTESIAN_POINT('',(0.0201913476419204,0.0165992602341019,-0.00721500005393561));
#525=CARTESIAN_POINT('',(0.0171164403982808,0.0165992602341019,-0.00721500005393561));
#526=CARTESIAN_POINT('',(0.0201913476419204,0.0165992602341019,-0.00421500005393561));
#527=CARTESIAN_POINT('',(0.0171164403982808,0.0165992602341019,-0.00421500005393561));
#528=CARTESIAN_POINT('',(-0.000933652358083049,-0.000400739765894599,-0.00421500005393561));
#529=CARTESIAN_POINT('',(-0.0220436523580796,0.0165992602341019,-0.00721500005393561));
#530=CARTESIAN_POINT('',(-0.0220436523580796,0.0165992602341019,-0.00421500005393561));
#531=CARTESIAN_POINT('',(-0.0233936523580796,0.0165992602341019,-0.00421500005393561));
#532=CARTESIAN_POINT('',(-0.0220436523580796,0.0165992602341019,-0.0107150000539356));
#533=CARTESIAN_POINT('',(-0.0233936523580796,0.0165992602341019,-0.0107150000539356));
#534=CARTESIAN_POINT('',(-0.0220436523580796,0.0165992602341019,-0.00721500005393561));
#535=CARTESIAN_POINT('',(-0.0220436523580796,0.0165992602341019,-0.00721500005393561));
#536=CARTESIAN_POINT('',(-0.0250931237617353,0.0165992602341019,-0.00721500005393561));
#537=CARTESIAN_POINT('',(-0.0220436523580796,0.0165992602341019,-0.00421500005393561));
#538=CARTESIAN_POINT('',(-0.0250931237617353,0.0165992602341019,-0.00421500005393561));
#539=CARTESIAN_POINT('',(-0.000933652358083049,-0.000400739765894599,-0.00421500005393561));
#540=CARTESIAN_POINT('',(-0.0220436523580796,-0.0188257397658981,-0.00721500005393561));
#541=CARTESIAN_POINT('',(-0.0220436523580796,-0.0188257397658981,-0.00421500005393561));
#542=CARTESIAN_POINT('',(-0.0233936523580796,-0.0188257397658981,-0.00421500005393561));
#543=CARTESIAN_POINT('',(-0.0220436523580796,-0.0188257397658981,-0.0107150000539356));
#544=CARTESIAN_POINT('',(-0.0233936523580796,-0.0188257397658981,-0.0107150000539356));
#545=CARTESIAN_POINT('',(-0.0220436523580796,-0.0188257397658981,-0.00721500005393561));
#546=CARTESIAN_POINT('',(-0.0220436523580796,-0.0188257397658981,-0.00721500005393561));
#547=CARTESIAN_POINT('',(-0.0250464022479244,-0.0188257397658981,-0.00721500005393561));
#548=CARTESIAN_POINT('',(-0.0220436523580796,-0.0188257397658981,-0.00421500005393561));
#549=CARTESIAN_POINT('',(-0.0250464022479244,-0.0188257397658981,-0.00421500005393561));
#550=CARTESIAN_POINT('',(-0.000933652358083049,-0.000400739765894599,-0.00421500005393561));
#551=CARTESIAN_POINT('',(0.0201913476419204,-0.0188257397658981,-0.00721500005393561));
#552=CARTESIAN_POINT('',(0.0201913476419204,-0.0188257397658981,-0.00421500005393561));
#553=CARTESIAN_POINT('',(0.0188413476419204,-0.0188257397658981,-0.00421500005393561));
#554=CARTESIAN_POINT('',(0.0201913476419204,-0.0188257397658981,-0.0107150000539356));
#555=CARTESIAN_POINT('',(0.0188413476419204,-0.0188257397658981,-0.0107150000539356));
#556=CARTESIAN_POINT('',(0.0201913476419204,-0.0188257397658981,-0.00721500005393561));
#557=CARTESIAN_POINT('',(0.0201913476419204,-0.0188257397658981,-0.00721500005393561));
#558=CARTESIAN_POINT('',(0.017164031759971,-0.0188257397658981,-0.00721500005393561));
#559=CARTESIAN_POINT('',(0.0201913476419204,-0.0188257397658981,-0.00421500005393561));
#560=CARTESIAN_POINT('',(0.017164031759971,-0.0188257397658981,-0.00421500005393561));
#561=CARTESIAN_POINT('',(-0.000933652358083049,-0.000400739765894599,-0.00421500005393561));
#562=CARTESIAN_POINT('',(-0.0307336523580796,-0.000400739765898095,-0.0107150000539356));
#563=CARTESIAN_POINT('',(-0.0307336523580796,-0.000400739765898095,-0.0107150000539356));
#564=CARTESIAN_POINT('',(-0.0307336523580795,0.0219992602341019,-0.0107150000539356));
#565=CARTESIAN_POINT('',(-0.0307336523580796,-0.0228007397658981,-0.0107150000539356));
#566=CARTESIAN_POINT('',(-0.0307336523580796,-0.0228007397658981,-0.0107150000539356));
#567=CARTESIAN_POINT('',(-0.0307336523580796,-0.0228007397658981,-0.00721500005393561));
#568=CARTESIAN_POINT('',(-0.0307336523580796,-0.000400739765898095,-0.00721500005393561));
#569=CARTESIAN_POINT('',(-0.0307336523580795,0.0219992602341019,-0.00721500005393561));
#570=CARTESIAN_POINT('',(-0.0307336523580795,0.0219992602341019,-0.0107150000539356));
#571=CARTESIAN_POINT('',(-0.000933652358079537,0.0269992602341019,-0.0107150000539356));
#572=CARTESIAN_POINT('',(-0.000933652358079537,0.0269992602341019,-0.0107150000539356));
#573=CARTESIAN_POINT('',(-0.0257336523580795,0.0269992602341019,-0.0107150000539356));
#574=CARTESIAN_POINT('',(0.0238663476419205,0.0269992602341019,-0.0107150000539356));
#575=CARTESIAN_POINT('',(-0.0257336523580795,0.0269992602341019,-0.00721500005393561));
#576=CARTESIAN_POINT('',(-0.0257336523580795,0.0269992602341019,-0.00721500005393561));
#577=CARTESIAN_POINT('',(-0.000933652358079537,0.0269992602341019,-0.00721500005393561));
#578=CARTESIAN_POINT('',(0.0238663476419205,0.0269992602341019,-0.00721500005393561));
#579=CARTESIAN_POINT('',(0.0238663476419205,0.0269992602341019,-0.0107150000539356));
#580=CARTESIAN_POINT('',(0.0288663476419205,-0.000400739765898095,-0.0107150000539356));
#581=CARTESIAN_POINT('',(0.0288663476419205,-0.000400739765898095,-0.00721500005393561));
#582=CARTESIAN_POINT('',(0.0288663476419205,0.0219992602341019,-0.00721500005393561));
#583=CARTESIAN_POINT('',(0.0288663476419205,-0.0228007397658981,-0.00721500005393561));
#584=CARTESIAN_POINT('',(0.0288663476419205,-0.0228007397658981,-0.0107150000539356));
#585=CARTESIAN_POINT('',(0.0288663476419205,-0.0228007397658981,-0.0107150000539356));
#586=CARTESIAN_POINT('',(0.0288663476419205,-0.000400739765898095,-0.0107150000539356));
#587=CARTESIAN_POINT('',(0.0288663476419205,0.0219992602341019,-0.0107150000539356));
#588=CARTESIAN_POINT('',(0.0288663476419205,0.0219992602341019,-0.0107150000539356));
#589=CARTESIAN_POINT('',(-0.000933652358079549,-0.0278007397658981,-0.0107150000539356));
#590=CARTESIAN_POINT('',(-0.000933652358079549,-0.0278007397658981,-0.0107150000539356));
#591=CARTESIAN_POINT('',(-0.0257336523580796,-0.0278007397658981,-0.0107150000539356));
#592=CARTESIAN_POINT('',(0.0238663476419205,-0.0278007397658981,-0.0107150000539356));
#593=CARTESIAN_POINT('',(0.0238663476419205,-0.0278007397658981,-0.00721500005393561));
#594=CARTESIAN_POINT('',(0.0238663476419205,-0.0278007397658981,-0.00721500005393561));
#595=CARTESIAN_POINT('',(-0.000933652358079549,-0.0278007397658981,-0.00721500005393561));
#596=CARTESIAN_POINT('',(-0.0257336523580796,-0.0278007397658981,-0.00721500005393561));
#597=CARTESIAN_POINT('',(-0.0257336523580796,-0.0278007397658981,-0.0107150000539356));
#598=CARTESIAN_POINT('',(-0.000933652358079542,-0.000400739765898095,-0.0107150000539356));
#599=CARTESIAN_POINT('',(0.0238663476419205,-0.0228007397658981,-0.0107150000539356));
#600=CARTESIAN_POINT('',(-0.0257336523580796,-0.0228007397658981,-0.0107150000539356));
#601=CARTESIAN_POINT('',(-0.0257336523580795,0.0219992602341019,-0.0107150000539356));
#602=CARTESIAN_POINT('',(0.0238663476419205,0.0219992602341019,-0.0107150000539356));
#603=CARTESIAN_POINT('',(-0.000933652358079542,-0.000400739765898095,-0.00721500005393561));
#604=CARTESIAN_POINT('',(0.0238663476419205,-0.0228007397658981,-0.00721500005393561));
#605=CARTESIAN_POINT('',(0.0238663476419205,0.0219992602341019,-0.00721500005393561));
#606=CARTESIAN_POINT('',(-0.0257336523580795,0.0219992602341019,-0.00721500005393561));
#607=CARTESIAN_POINT('',(-0.0257336523580796,-0.0228007397658981,-0.00721500005393561));
#608=CARTESIAN_POINT('',(0.0238663476419205,-0.0228007397658981,-0.0107150000539356));
#609=CARTESIAN_POINT('',(-0.0257336523580796,-0.0228007397658981,-0.0107150000539356));
#610=CARTESIAN_POINT('',(-0.0257336523580795,0.0219992602341019,-0.0107150000539356));
#611=CARTESIAN_POINT('',(0.0238663476419205,0.0219992602341019,-0.0107150000539356));
#612=MECHANICAL_DESIGN_GEOMETRIC_PRESENTATION_REPRESENTATION('',(#349),
#613);
#613=(
GEOMETRIC_REPRESENTATION_CONTEXT(3)
GLOBAL_UNCERTAINTY_ASSIGNED_CONTEXT((#614))
GLOBAL_UNIT_ASSIGNED_CONTEXT((#617,#616,#615))
REPRESENTATION_CONTEXT('Mounted Base Case','TOP_LEVEL_ASSEMBLY_PART')
);
#614=UNCERTAINTY_MEASURE_WITH_UNIT(LENGTH_MEASURE(1.E-8),#617,
'DISTANCE_ACCURACY_VALUE','Maximum Tolerance applied to model');
#615=(
NAMED_UNIT(*)
SI_UNIT($,.STERADIAN.)
SOLID_ANGLE_UNIT()
);
#616=(
NAMED_UNIT(*)
PLANE_ANGLE_UNIT()
SI_UNIT($,.RADIAN.)
);
#617=(
LENGTH_UNIT()
NAMED_UNIT(*)
SI_UNIT($,.METRE.)
);
#618=PRODUCT_DEFINITION_SHAPE('','',#619);
#619=PRODUCT_DEFINITION('','',#621,#620);
#620=PRODUCT_DEFINITION_CONTEXT('',#627,'design');
#621=PRODUCT_DEFINITION_FORMATION_WITH_SPECIFIED_SOURCE('','',#623,
 .NOT_KNOWN.);
#622=PRODUCT_RELATED_PRODUCT_CATEGORY('','',(#623));
#623=PRODUCT('Mounted Base Case','Mounted Base Case',
'Mounted Base Case',(#625));
#624=PRODUCT_CATEGORY('','');
#625=PRODUCT_CONTEXT('',#627,'mechanical');
#626=APPLICATION_PROTOCOL_DEFINITION('international standard',
'ap242_managed_model_based_3d_engineering',2020,#627);
#627=APPLICATION_CONTEXT('managed model based 3d engineering');
ENDSEC;
END-ISO-10303-21;
